<svg id="Layer_1" data-name="Layer 1" xmlns="http://www.w3.org/2000/svg" viewBox="0 0 181 90"><defs><style>.cls-1{opacity:0.1;}.cls-2{fill:#595959;}</style></defs><title>chachi website 2 [Recovered]</title><g class="cls-1"><path class="cls-2" d="M72.49,82c-7.18-2.78-13-13-11.8-20.67a9.42,9.42,0,0,1,7.1-8l1-.26v-1c.08-8.46,3.18-12.23,5.76-13.91a10.25,10.25,0,0,1,5.65-1.61,13.19,13.19,0,0,1,3.2.41l1.08.27.44-1a12.5,12.5,0,0,1,9.56-7.71l.52-.08.31-.41a15.79,15.79,0,0,1,11.9-6l.75-.05.34-.67c4-8.11,12.33-13.78,20.13-13.78h.17c6.36.07,11.64,3.69,14.86,10.2l.39.8.89-.07c.33,0,.67,0,1,0A16.14,16.14,0,0,1,158.41,25c2.73,3.93,2.85,8.53.32,13l-.48.82.64.7c3.64,4,4.65,11.62,2.36,17.67-2.06,5.43-6.32,8.54-11.69,8.54-.42,0-.84,0-1.27-.06l-.77-.06-.43.64c-5.6,8.38-12.81,12.45-22,12.45-8.38,0-17.26-3.3-25.1-6.22-7.67-2.86-13.46-4.89-18-4.89l-.76,0-4.8.26,4.26,2.21c2.88,1.5,4.21,5.89,2.81,9.22A6.2,6.2,0,0,1,77.38,83,13.85,13.85,0,0,1,72.49,82ZM69.9,69.84c2.76-4.29,6.5-6.29,11.75-6.29,5.93,0,12.93,2.61,19.71,5.14,8.28,3.08,16.1,6,23.46,6,8.47,0,15-4,20-12.37l.74-1.25,1.43.32a11.94,11.94,0,0,0,2.63.32h0c2.57,0,6-1,7.88-6,2.1-5.56.61-12.72-3.07-14.74l-2.15-1.17L153.84,38c3.91-4.67,2.85-8.37,1.26-10.64a12.05,12.05,0,0,0-9.36-4.9,7.36,7.36,0,0,0-2.45.39l-1.86.67-.7-1.86c-3.08-8.25-8.34-10-12.18-10.07h-.16c-7,0-14.23,5.56-17.27,13.21l-.52,1.33L109.17,26l-.74,0c-8.08,0-11.07,5.46-12.14,8.71C94.21,41,96,50.2,102.63,54.66a10.81,10.81,0,0,0,6.27,2,13.38,13.38,0,0,0,5.77-1.4c3.49-1.74,5.91-4.78,6-7.57.09-2.08-1.07-3.91-3.44-5.44l-.13-.08-.14,0a10.5,10.5,0,0,0-3.44-.7,3.14,3.14,0,0,0-2.74,1.16,3.75,3.75,0,0,0-.65,2.11l0,.79,5.1,2.9c-1.31,1.86-2.82,2.83-4.4,2.83a4.2,4.2,0,0,1-1.72-.38c-2.68-1.35-3.81-5.87-2.32-9.29a6.93,6.93,0,0,1,6.76-4.12,14.64,14.64,0,0,1,5.1,1l.45.22c5.09,3.12,5.7,7.09,5.61,9.19-.18,4.28-3.43,8.6-8.26,11A16.69,16.69,0,0,1,109,60.65,15,15,0,0,1,100.36,58c-6.2-4.18-9.74-12.39-8.8-20.41l-2.43-.8a13.15,13.15,0,0,0-1.39,3.73l-.56,2.58-2.34-1.22a10.15,10.15,0,0,0-4.66-1.25,6.34,6.34,0,0,0-3.47,1c-2.95,1.92-4.29,6.49-3.86,13.2l.13,2-2,.1c-3.72.19-5.77,1.85-6.29,5.07A15.29,15.29,0,0,0,67,71.7l1.81,3.12.61-3.56a4.33,4.33,0,0,1,.33-1.08Zm7-1.54L75.2,69.79A9,9,0,0,0,74,71L73,72.3l1.45.73a5.18,5.18,0,0,0,1.78.51l1.69.14Z"/><path class="cls-2" d="M20.44,67.9c5.22,0,10-1.82,14.66-3.58s9.25-3.52,14.06-3.52a21.19,21.19,0,0,1,11.15,3.32l2.23-3.36a25.09,25.09,0,0,0-13.32-4c-5.6,0-10.66,1.92-15.54,3.77-4.52,1.72-8.79,3.34-13.19,3.34a16.79,16.79,0,0,1-6.75-1.39l-.07,0-.08,0c-4.35-2.55-6.83-6-7-9.7l2.51-.56a11.45,11.45,0,0,0,5,4.91A18.51,18.51,0,0,0,23,59.66a8.83,8.83,0,0,0,6.21-2.19,35.31,35.31,0,0,0,8.22-11c2-3.71,3.19-5.94,6.38-5.94a14.93,14.93,0,0,1,4.66,1l2.32.78.31-2.43c1-7.26,4.16-12.25,9.29-14.43a15.26,15.26,0,0,1,6-1.16A19.77,19.77,0,0,1,78,28.3l2,1.47L81,27.54a15.93,15.93,0,0,1,3.9-4.8A18.8,18.8,0,0,1,97.32,18.4,32.81,32.81,0,0,1,109.49,21l1.6-3.69a37.12,37.12,0,0,0-13.84-3,22.15,22.15,0,0,0-18.07,8.5l-.68.9-1-.54a23.6,23.6,0,0,0-11.19-2.91,18.92,18.92,0,0,0-7.49,1.47c-5.52,2.34-9.34,7.21-11,14.08l-.29,1.19-1.2-.21a14.58,14.58,0,0,0-2.54-.24c-5.57,0-7.64,3.87-9.84,8-1.68,3.12-3.57,6.64-7.33,9.85l-.1.1A5,5,0,0,1,23,55.63a11.74,11.74,0,0,1-2.59-.32,14.77,14.77,0,0,1-6.75-3.54L12.1,50.2l2.13-.61a16.24,16.24,0,0,1,3.48-.51l3.58-.19-2-3c-2-2.95-4.67-4.58-7.45-4.58a7.76,7.76,0,0,0-1.72.2c-3.75.86-6.72,4.45-7.39,8.92-.88,6,2.49,11.74,9,15.51l.26.13A20.66,20.66,0,0,0,20.44,67.9Z"/><path class="cls-2" d="M132.84,86.91a26.36,26.36,0,0,0,6.76-.84,20.14,20.14,0,0,0,13.09-10.15l.35-.68.76,0c13.62-.55,22.48-7,24.31-17.85,1.42-8.39-2.11-17.42-8.4-21.46l-.86-.55.33-1A15.21,15.21,0,0,0,168,21.58,18.23,18.23,0,0,0,154,13l-.72-.07-.32-.65a14.77,14.77,0,0,0-8.52-7.78,16.35,16.35,0,0,0-5.24-.82,30,30,0,0,0-12.9,3.46l2.07,3.46A25.82,25.82,0,0,1,139.1,7.73a12.34,12.34,0,0,1,4,.63c3.11,1.06,5.36,3.46,6.88,7.32l.51,1.28h1.37c5.35,0,10.18,2.55,12.6,6.66a11.48,11.48,0,0,1-.15,11.77l-1.17,2.1,2.28.78c6.05,2.06,10,10.5,8.69,18.42-1.56,9.23-9.63,14.53-22.14,14.53h-1.71l-.5,1.32a15.91,15.91,0,0,1-11.23,9.65,22.38,22.38,0,0,1-5.78.72c-6.09,0-16-2.22-28.85-12.65l-2.57,3.09C115.14,84.53,126.05,86.91,132.84,86.91Z"/></g></svg>