<svg id="Layer_1" data-name="Layer 1" xmlns="http://www.w3.org/2000/svg" viewBox="0 0 181 90"><defs><style>.cls-1{opacity:0.1;}.cls-2{fill:#595959;}</style></defs><title>chachi website 2 [Recovered]</title><g class="cls-1"><path class="cls-2" d="M104.05,83A6.21,6.21,0,0,1,98,79.28c-1.4-3.33-.07-7.72,2.81-9.22L105,67.85l-4.8-.26-.76,0c-4.56,0-10.34,2-18,4.89-7.84,2.92-16.73,6.22-25.11,6.22-9.22,0-16.43-4.07-22-12.45l-.43-.64-.77.06c-.42,0-.85.06-1.27.06-5.37,0-9.63-3.11-11.69-8.54-2.29-6.05-1.27-13.65,2.36-17.67l.64-.7L22.7,38c-2.53-4.43-2.42-9,.32-13a16.11,16.11,0,0,1,12.69-6.61c.34,0,.68,0,1,0l.88.07.39-.8c3.22-6.51,8.5-10.13,14.87-10.2H53c7.81,0,16.09,5.67,20.14,13.78l.33.67.76.05a15.77,15.77,0,0,1,11.89,6l.32.41.51.08a12.49,12.49,0,0,1,9.56,7.71l.45,1L98.05,37a13.19,13.19,0,0,1,3.2-.41,10.31,10.31,0,0,1,5.66,1.61c2.58,1.68,5.67,5.45,5.76,13.91v1l.95.26a9.42,9.42,0,0,1,7.1,8C122,69,116.12,79.23,108.93,82A13.84,13.84,0,0,1,104.05,83Zm7.66-12.86a5.37,5.37,0,0,1,.33,1.08l.6,3.56,1.82-3.12a15.34,15.34,0,0,0,2.3-9.72c-.51-3.22-2.57-4.88-6.29-5.07l-2-.1.13-2c.43-6.71-.91-11.28-3.86-13.2a6.34,6.34,0,0,0-3.47-1,10.15,10.15,0,0,0-4.66,1.25l-2.34,1.22-.56-2.58a13.14,13.14,0,0,0-1.38-3.73l-2.44.8c.94,8-2.59,16.23-8.8,20.41a15,15,0,0,1-8.58,2.67A16.73,16.73,0,0,1,65,58.83c-4.83-2.4-8.07-6.72-8.26-11-.09-2.1.52-6.07,5.61-9.19l.45-.22a14.69,14.69,0,0,1,5.1-1,6.93,6.93,0,0,1,6.76,4.12c1.49,3.42.37,7.94-2.32,9.29a4.19,4.19,0,0,1-1.71.38c-1.59,0-3.1-1-4.41-2.83l5.1-2.9,0-.79a3.75,3.75,0,0,0-.65-2.11,3.14,3.14,0,0,0-2.74-1.16,10.44,10.44,0,0,0-3.43.7l-.15,0-.13.08c-2.37,1.53-3.53,3.36-3.44,5.44.12,2.79,2.54,5.83,6,7.57a13.42,13.42,0,0,0,5.77,1.4,10.81,10.81,0,0,0,6.27-2C85.4,50.2,87.21,41,85.14,34.71,84.07,31.46,81.07,26,73,26l-.74,0-1.42.06-.53-1.33C67.26,17.1,60,11.54,53,11.54h-.16c-3.84,0-9.1,1.82-12.18,10.07L40,23.48l-1.87-.67a7.36,7.36,0,0,0-2.45-.39,12.07,12.07,0,0,0-9.36,4.9c-1.58,2.27-2.65,6,1.26,10.64l1.57,1.88L27,41c-3.68,2-5.17,9.18-3.06,14.74,1.86,4.92,5.31,6,7.87,6h0a11.87,11.87,0,0,0,2.63-.32l1.43-.32.75,1.25c5,8.33,11.51,12.37,20,12.37,7.37,0,15.18-2.91,23.46-6,6.78-2.53,13.78-5.14,19.72-5.14,5.25,0,9,2,11.74,6.29Zm-8.17,3.5,1.69-.14A5.24,5.24,0,0,0,107,73l1.45-.73-1-1.26a8.45,8.45,0,0,0-1.21-1.25l-1.75-1.49Z"/><path class="cls-2" d="M161,67.9c-5.23,0-10-1.82-14.67-3.58s-9.25-3.52-14.06-3.52a21.19,21.19,0,0,0-11.15,3.32l-2.23-3.36a25.09,25.09,0,0,1,13.33-4c5.6,0,10.65,1.92,15.54,3.77,4.51,1.72,8.78,3.34,13.18,3.34a16.79,16.79,0,0,0,6.75-1.39l.08,0,.07,0c4.35-2.55,6.83-6,7-9.7l-2.52-.56a11.45,11.45,0,0,1-5,4.91,18.5,18.5,0,0,1-8.9,2.59,8.8,8.8,0,0,1-6.21-2.19,35.21,35.21,0,0,1-8.23-11c-2-3.71-3.19-5.94-6.38-5.94a14.82,14.82,0,0,0-4.65,1l-2.32.78-.32-2.43c-.95-7.26-4.16-12.25-9.29-14.43a15.23,15.23,0,0,0-6-1.16,19.72,19.72,0,0,0-11.62,4l-2,1.47-1-2.23a16,16,0,0,0-3.89-4.8A18.84,18.84,0,0,0,84.1,18.4,32.81,32.81,0,0,0,71.93,21l-1.6-3.69a37.12,37.12,0,0,1,13.84-3,22.17,22.17,0,0,1,18.08,8.5l.67.9,1-.54a23.54,23.54,0,0,1,11.18-2.91,18.92,18.92,0,0,1,7.49,1.47c5.52,2.34,9.34,7.21,11,14.08l.29,1.19,1.2-.21a14.67,14.67,0,0,1,2.54-.24c5.57,0,7.65,3.87,9.85,8,1.67,3.12,3.56,6.64,7.32,9.85l.1.1a5,5,0,0,0,3.48,1.11,11.74,11.74,0,0,0,2.59-.32,14.72,14.72,0,0,0,6.75-3.54l1.56-1.57-2.13-.61a16.24,16.24,0,0,0-3.48-.51l-3.58-.19,2-3c2-2.95,4.66-4.58,7.44-4.58a7.92,7.92,0,0,1,1.73.2c3.75.86,6.71,4.45,7.38,8.92.88,6-2.48,11.74-9,15.51l-.25.13A20.72,20.72,0,0,1,161,67.9Z"/><path class="cls-2" d="M48.58,86.91a26.22,26.22,0,0,1-6.75-.84,20.13,20.13,0,0,1-13.1-10.15l-.35-.68-.76,0C14,74.66,5.14,68.16,3.31,57.36,1.89,49,5.43,39.94,11.71,35.9l.87-.55-.34-1a15.21,15.21,0,0,1,1.22-12.8,18.25,18.25,0,0,1,14-8.54l.71-.07.33-.65A14.73,14.73,0,0,1,37,4.54a16.35,16.35,0,0,1,5.24-.82A30.07,30.07,0,0,1,55.17,7.18l-2.08,3.46A25.82,25.82,0,0,0,42.32,7.73a12.38,12.38,0,0,0-4,.63c-3.11,1.06-5.36,3.46-6.88,7.32L30.91,17H29.54c-5.36,0-10.19,2.55-12.61,6.66a11.48,11.48,0,0,0,.15,11.77l1.17,2.1L16,38.27c-6.06,2.06-10,10.5-8.7,18.42,1.56,9.23,9.63,14.53,22.15,14.53h1.71l.49,1.32a15.93,15.93,0,0,0,11.23,9.65,22.38,22.38,0,0,0,5.78.72c6.1,0,16-2.22,28.85-12.65l2.58,3.09C66.29,84.53,55.37,86.91,48.58,86.91Z"/></g></svg>