<svg id="Layer_1" data-name="Layer 1" xmlns="http://www.w3.org/2000/svg" viewBox="0 0 419 167"><defs><style>.cls-1{opacity:0.1;}.cls-2{fill:#595959;}</style></defs><title>chachi website 2 [Recovered]</title><g class="cls-1"><path class="cls-2" d="M178.49,150.65c-6.13,0-12.13-2.91-17.86-8.66-9.36-.37-16.22-3.24-19.38-8.14-1.63-2.53-3-6.78-.76-13a15.57,15.57,0,0,1,1.21-18.54,11,11,0,0,1,12.47-3.19c10.43-7,16.49-6,19.77-3.86a11.08,11.08,0,0,1,4.68,8,19.42,19.42,0,0,1,11.94-11.36c12.29-4.21,28.75,2.79,35.95,15.31,3.26,5.66,8.84,20.57-9.65,36.57l-.15.12c-7.93,5.95-17.19,3-22.45-.28-2.58,2.52-7.78,6.62-14.78,7Zm-28.33-46.78a6,6,0,0,0-4.34,2.13c-2.48,2.77-3.54,8,0,12.91l.92,1.27-.62,1.44c-1.64,3.82-1.72,6.92-.23,9.23,2.22,3.45,8,5.5,16,5.64l1.16,0,.79.85c5.11,5.38,10.26,8,15.33,7.75,7.4-.36,12.46-6.74,12.52-6.81l0,0a17,17,0,0,1-14.91-12.35l-.1-.44a57.66,57.66,0,0,1-.49-10.8,8.18,8.18,0,0,1-5.27,3.69c-2.67.48-6.77-.44-11.06-7.44l-.22-.35-.1-.4c-1-3.67.95-6.05,3.28-6.79,3-.93,7.26.52,8.49,3.87l-5.19,1.91a2,2,0,0,0-1.16-.51c2.2,3.39,4,4.44,5,4.26s2.44-1.93,3-4.81.2-6.73-2.08-8.22c-2.76-1.79-8.18-.1-14.88,4.66l-1.44,1-1.53-.87A5.87,5.87,0,0,0,150.16,103.87Zm46,34.41c2.22,1.55,10.2,6.41,17.14,1.29,10.92-9.5,13.91-20,8.4-29.58C216,100,202,93.86,192.35,97.16c-8.59,3-12.21,12.65-10.21,27.32a11.56,11.56,0,0,0,10.66,8.34c6.09.43,12.38-2.74,14.63-7.41,1.93-4,.71-8.58-3.51-13.3-3.31-1.79-5.65-.54-7,.85-1.93,1.92-2.44,4.51-1.93,5.38.22.37,1.27.55,3.07,0l1.53,5.31c-6.07,1.76-8.57-1.19-9.36-2.53-2-3.35-.78-8.56,2.79-12.11,3.88-3.87,9.15-4.43,14.1-1.49l.35.21.27.29c8.14,8.83,6.44,16.17,4.71,19.77C209.66,133.51,203.19,137.56,196.18,138.28Z"/><path class="cls-2" d="M14.34,160.5c-2.83,0-6.56-1.26-9.84-6.46-4-6.31-3.14-15.4,2-22.1,10.33-13.4,30-10.77,41.21-7.86,0-.22-.08-.44-.11-.66l0-.44c0-7.15,1.9-11.54,5.76-13,5.85-2.29,13,3.75,14.18,5l5.1,5.62a22,22,0,0,0,3.75-5.35c2.31-4.18,4.59-7.16,11.39-6.41,1-10.72,6.1-19.59,14.12-24.13,6.69-3.79,14.56-4,22-.78,2.31-8.17,7.54-14.45,14.46-17.16,7.18-2.82,15.16-1.59,22.72,3.45,7.1-8.1,14.95-12.49,22.82-12.76,7.7-.22,15.19,3.33,22.36,10.66,7.19-1.82,14.83-.2,19.84,4.31A15.76,15.76,0,0,1,231.46,85a22.52,22.52,0,0,1,17.28,14.2c3.08,8,1.06,16.33-5.53,23.09,5,6.91,3.52,13.71.18,18-3.72,4.79-9.74,7.12-14.78,6a22.85,22.85,0,0,1-15,12.21,24.56,24.56,0,0,1-20.82-4.61c-16.61,12.27-31.38,3.58-43.33-3.46-8.84-5.2-16.48-9.69-23.9-7C92.19,158.87,91,159,62.16,149c-7.3-2.52-16.36-5.66-28.37-9.35-12-1.29-17.78,2.46-19.11,6.09-.63,1.71-.2,3.16.53,3.64s2.67.33,5.29-2.06l3.32-3L25,148.62c1.06,3.83-2.07,9-6.69,11A10.21,10.21,0,0,1,14.34,160.5Zm16.74-33.32c-12.19,0-17.92,5.21-20.17,8.13-4.22,5.47-4.06,12.08-1.73,15.78,1.69,2.69,3.49,4,5.38,3.89a6.78,6.78,0,0,1-2.44-1c-3-2-4.09-6.19-2.63-10.14,1-2.82,5.9-11.83,25.18-9.64l.5.1c8.14,2.5,14.95,4.75,20.76,6.73a23.61,23.61,0,0,1-6.68-10.78A62.64,62.64,0,0,0,31.08,127.18Zm99.08,9.91c7.59,0,15,4.34,22.15,8.57,12.58,7.4,24.46,14.39,38.81,2.55l1.81-1.49,1.77,1.55c5.22,4.58,11.65,6.35,17.62,4.86a17.7,17.7,0,0,0,12.21-11.29l1.12-3,2.78,1.51c3,1.62,7.85,0,10.6-3.53,3-3.87,2.42-8.6-1.62-13l-1.93-2.09,2.15-1.87c8.58-7.46,7.41-15,5.94-18.78-2.45-6.4-8.9-11-15.17-10.86l-3.5.06.76-3.42a10.42,10.42,0,0,0-3.23-10.38c-4-3.56-10.28-4.61-16.11-2.67l-1.7.57-1.21-1.32C197,66.18,190.5,62.77,184.11,63c-8.63.29-15.84,7.07-20.38,12.7L162,77.81l-2.15-1.66c-6.58-5.08-13.5-6.58-19.48-4.24s-10.5,8.57-11.83,16.55l-.66,4-3.47-2c-6.77-4-13.82-4.27-19.84-.87-7.07,4-11.36,12.45-11.48,22.6l0,3.43-3.34-.76c-6-1.39-6.61-.34-8.53,3.13-2,3.68-5.09,9.24-15.41,13-5.81,1.92-8.75-1.09-9.76-2.47a10.14,10.14,0,0,1,.25-11.54,8.14,8.14,0,0,1,1.61-1.65,3.9,3.9,0,0,0-2.57-.18c-1.39.54-2.22,3.39-2.22,7.63,1.35,8,4.09,13,8.36,15.48,8.44,4.84,22.93-.68,37-6,17-6.5,34.67-13.21,46-3.76l-3.54,4.25c-8.86-7.38-25-1.25-40.52,4.68-10.67,4.06-21.61,8.23-30.88,8.23h-.28c22.18,7.56,24.23,6.6,54.16-7.24l.2-.09A18.69,18.69,0,0,1,130.16,137.09Zm-67.25-18a2.44,2.44,0,0,0-2.16,1.08,4.66,4.66,0,0,0-.22,5c.24.32,1,1.32,3.47.49a25.37,25.37,0,0,0,7.34-4l-6.75-2.31A5.38,5.38,0,0,0,62.91,119.14Z"/><path class="cls-2" d="M127.77,81.84c-7.92,0-22.27-3.78-27.21-18.59C97.28,51.56,104,45.13,108,43.35l6.44-2.88L111.64,47c-1.18,2.79-3.62,10.88-.71,14.7,1.6,2.1,4.93,2.82,9.87,2.17,9.61-1.28,13.06-4.56,16.4-7.72,3.65-3.45,7.11-6.72,16.35-5.59.47-4.64,2-8.22,4.6-10.65a13,13,0,0,1,7.54-3.34c-.36-8.61,3.31-16.43,10-20.89a20.19,20.19,0,0,1,20.76-1.09C224.89-4,248.29,2.68,259,17.78a32.15,32.15,0,0,1,5.8,22.75c-1.12,8.6-5.66,16.07-13.14,21.61l-.2.13c-13.82,8.52-30.57,3.41-39.32-5.72-7.86-8.21-8.93-18.49-2.87-27.53,5.22-9.17,16.11-10.72,23.75-7.51S244.31,32,242,39.8c-2.63,8.68-7.52,10-10.2,10h-.05c-4.11,0-8.2-3.16-9.54-7.38a8.27,8.27,0,0,1,3.32-9.68l3.16,4.54a2.82,2.82,0,0,0-1.21,3.47,5.09,5.09,0,0,0,4.26,3.52h0c2,0,3.78-2.22,4.94-6.07,2.22-7.56-3.91-10.8-5.84-11.61-5.46-2.3-13.22-1.25-16.84,5.22l-.12.2c-6.59,9.72-.65,17.71,2.21,20.69,7.33,7.65,21.41,11.56,32.33,4.9,13.75-10.24,13.45-26.17,6-36.64-12.93-18.25-37.62-13.61-56.36-.91l-1.46,1-1.52-.91c-5.43-3.28-11.4-3.25-16.38.08-5.67,3.8-8.47,10.91-7.3,18.57l.52,3.39L168.56,42c-2.86-.19-5.08.47-6.62,1.92-2,1.88-3,5.2-3,9.86v3.38l-3.31-.67c-8.84-1.79-11,.25-14.6,3.66s-8.1,7.66-19.47,9.18c-5.7.76-10.08,0-13.08-2.36,6.75,9.87,19.62,9.36,20.25,9.34l.29,5.52Q128.42,81.84,127.77,81.84Z"/><path class="cls-2" d="M210.73,70.59l-5.53,0c0-3.91-.76-6.47-2.16-7.23-1.87-1-5.47.67-6.93,1.63L193,60.38c.74-.49,7.33-4.75,12.61-1.92C209,60.28,210.75,64.36,210.73,70.59Z"/><path class="cls-2" d="M219,71l-5.45-.93c1.62-9.55-3.28-16.43-9-18.3-6.06-2-12.09,1.64-16.14,9.7L183.54,59c6.35-12.63,15.94-14.72,22.81-12.47C214.28,49.16,221.18,58.41,219,71Z"/><path class="cls-2" d="M278.07,75.1a16.67,16.67,0,0,1-8.12-2c-6-3.35-9.89-11.16-4.89-21l.2-.4.32-.32c3.2-3.17,7.13-4.3,10.77-3.12a8.83,8.83,0,0,1,6.06,6.75,7.64,7.64,0,0,1-3.23,7.49L275.86,58A2.17,2.17,0,0,0,277,55.84a3.34,3.34,0,0,0-2.3-2.4c-1.54-.5-3.25,0-4.87,1.49-2.77,5.81-1.72,10.76,2.85,13.3,4.94,2.74,12.53,1.49,16.87-5.3,3.1-12-3.89-17.58-7.07-19.45-6.31-3.72-14.45-3.21-18.95,1.18l-3.86-4c6.33-6.17,17.1-7,25.62-2,9,5.28,12.51,15,9.49,26.05l-.1.38-.2.33A19.09,19.09,0,0,1,278.07,75.1Z"/><path class="cls-2" d="M289.61,93.93a11,11,0,0,1-7.52-3c-5.13,1.58-19.91,4.54-29.66-9.69-5.17,8.82-11.77,12.15-12.09,12.31l-2.44-5c.06,0,7.41-3.85,11.81-14.24l2.37-5.59,2.66,5.46c9,18.48,26.24,11.31,27,11l1.82-.78,1.33,1.46c4.79,5.3,10.48,1.72,22.33-7.72,8.68-6.91,18.52-14.81,29.19-14.66h.19c7.16.54,12.57,4,13.15,8.39a6.13,6.13,0,0,1-1.23,4.5c1.26-.47,2.33-1.71,3.19-3.69,1.56-4.7.77-8.49-2.35-11.28-6.25-5.58-20.67-6.28-30.85-1.49l-2.67,1.25-1.08-2.75c-1.49-3.82-3.72-6.24-6.8-7.39-6.57-2.45-15,1.81-15.09,1.86L290.27,48c.43-.22,10.63-5.48,19.6-2.14a16.45,16.45,0,0,1,8.83,8c12-4.54,26.88-3.17,34.31,3.47,4.81,4.29,6.19,10.43,3.88,17.27l-.08.2c-1.61,3.78-4,6.15-7.07,7-4.79,1.36-9.15-1.57-9.63-1.91l-4.38-3.09,5.06-1.78c2.72-1,3.5-2,3.45-2.41-.12-.88-2.58-3.16-8-3.59h0c-8.68,0-17.65,7.15-25.58,13.46C303.54,88.15,296.29,93.93,289.61,93.93Z"/><path class="cls-2" d="M373.28,143.94c-11.32,0-23.68-3.87-35.5-13.1-23.11-18-49-10.52-51.94-9.59a18.38,18.38,0,0,0-1.67,1.33c-13.66,12.36-39.52,10.52-40.62,10.44l.43-5.51c.24,0,24.59,1.72,36.48-9,13.57-12.28,49.12-11.39,76.38,8.18,5,3.3,11.88,3.44,17.85.3,5.29-2.79,8.51-7.42,8.6-12.39a8.12,8.12,0,0,0-4.21-7.22c-3-1.83-7-2.09-9.62-.64-2.15,1.2-3.26,3.38-3.31,6.5.05,1.64.76,2,1,2.09a4.38,4.38,0,0,0,4-.77c.23-.18,1-.8.86-1.39l-.83-4.59L375.6,110c3.34,1.12,4.58,6.32,3.61,10.28-.58,2.4-3.55,10-17.12,7.89a12.39,12.39,0,0,1-9.84-8.31c-2.92-7.69-.51-18.45,5.85-26.16,4.12-5,13.48-13,29.84-10.16,15.35,2.63,24.75,8.44,27.94,17.28,3,8.23,0,18.44-8.26,28C399.82,138,387.36,143.94,373.28,143.94ZM330,119.5a63.34,63.34,0,0,1,11.15,7c23.8,18.6,49.83,13.25,62.23-1.21,6.89-8,9.53-16.25,7.26-22.55C408.25,96,400.07,91.24,387,89c-10.09-1.74-18.85,1.19-24.64,8.22s-6.84,15.69-4.95,20.69a6.89,6.89,0,0,0,5.54,4.81c5.36.85,9.07,0,10.42-2.54a4.54,4.54,0,0,0,.32-.72,9.7,9.7,0,0,1-8.93.82c-1.49-.71-4-2.57-4.15-7.05.08-5.21,2.27-9.2,6.16-11.36,4.4-2.44,10.35-2.16,15.15.73a13.57,13.57,0,0,1,6.89,12.06c-.13,7-4.45,13.44-11.56,17.18-7.74,4.08-16.76,3.84-23.55-.63A83,83,0,0,0,330,119.5Z"/></g></svg>