<svg id="Layer_1" data-name="Layer 1" xmlns="http://www.w3.org/2000/svg" viewBox="0 0 137 67"><defs><style>.cls-1{fill:#bf8016;}</style></defs><title>chachi website 2 [Recovered]</title><path class="cls-1" d="M54.8,62.11C49,59.86,44.39,51.85,45.39,45.63a8,8,0,0,1,6-6.74c.07-6.67,2.55-9.76,4.74-11.18a9.24,9.24,0,0,1,7.38-1,10.35,10.35,0,0,1,7.87-6.32A12.81,12.81,0,0,1,81,15.48C84.14,9.11,90.58,4.67,96.85,4.67H97c5.13,0,9.4,3,12,8.15A12.89,12.89,0,0,1,120,18.14a9.65,9.65,0,0,1,.28,10.7c3.15,3.49,3.68,9.62,2,14.18-1.83,4.82-5.82,7.38-10.67,6.95-9.91,14.85-24.5,9.41-36.3,5C69.51,52.84,65,51.25,61.69,51.42c2.58,1.35,3.79,5.15,2.54,8.12a5.59,5.59,0,0,1-5.43,3.4A11.21,11.21,0,0,1,54.8,62.11Zm56.13-17.24c3.26.73,5.52-.48,6.71-3.6,1.39-3.67.47-8.52-1.85-9.79L113.15,30l1.93-2.31c2-2.42,2.32-4.69.89-6.75-1.67-2.41-5.34-3.83-7.68-3l-2.3.82-.85-2.29c-1.67-4.46-4.51-6.84-8.2-6.88h-.1c-4.81,0-9.83,3.87-12,9.23l-.65,1.64-1.76-.08c-5.77-.23-7.89,3.54-8.64,5.82C72.4,30.58,73.62,36.92,78.19,40a7.81,7.81,0,0,0,8,.35c2.25-1.12,3.88-3.1,4-4.81,0-1.18-.67-2.25-2.12-3.19-1.75-.62-3-.63-3.5,0a1.88,1.88,0,0,0-.29,1l4.18,2.39c-2.63,4.61-5.77,3.33-6.37,3-2.48-1.24-3.52-5.14-2.19-8.19,1.2-2.74,4.49-4.92,10.13-2.81l.42.2c4.25,2.6,4.76,6,4.68,7.76-.15,3.54-2.78,7.09-6.7,9a12.66,12.66,0,0,1-13-.7c-5-3.39-7.71-9.92-7-16.15a8.68,8.68,0,0,0-.93,2.51l-.69,3.17-2.87-1.5c-1.91-1-3.81-1.09-5.09-.26-1.86,1.21-2.72,4.39-2.43,9l.16,2.5-2.51.13c-2.3.11-3.46,1-3.77,2.95A10.52,10.52,0,0,0,51.88,53a4.46,4.46,0,0,1,.33-1.08l.17-.31c5.41-8.45,15.19-4.81,24.65-1.28,12,4.49,23.42,8.72,31.22-4.34l.92-1.54ZM57,53.63a2.58,2.58,0,0,0,1,.28l-.19-1.08A5.38,5.38,0,0,0,57,53.63Z"/><path class="cls-1" d="M16.33,51.66c4.07,0,7.83-1.43,11.28-2.74,6.26-2.38,11.66-4.43,18.75.27l2.73-4.13c-9.21-6.1-16.66-3.27-23.23-.77-5,1.89-9.31,3.53-14.14,1.46-3-1.73-4.64-4-4.73-6.43a9.38,9.38,0,0,0,4.13,4.13c3.88,2.24,9.21,3.14,12.42.16a27,27,0,0,0,6.33-8.44c2.05-3.82,2.54-4.73,7.06-3.21l2.86,1,.39-3c.65-5.06,2.85-8.52,6.34-10,3.67-1.55,8.43-.77,12.15,2l2.43,1.8L62.39,21c.21-.43,5.42-10.7,20.87-4l2-4.54c-13.68-6-22.17-.85-25.87,4a17.31,17.31,0,0,0-14.78-1.12c-4.4,1.87-7.47,5.79-8.8,11.17-6.31-1.1-8.4,2.79-10.27,6.27a22.41,22.41,0,0,1-5.23,7.06l-.1.09c-.64.61-2,.75-3.64.36A10.08,10.08,0,0,1,12,38a10.26,10.26,0,0,1,2.38-.34l4.4-.24-2.49-3.63c-2.06-3-4.92-4.35-7.87-3.67-3.18.73-5.69,3.73-6.25,7.46-.72,4.86,2,9.56,7.22,12.57l.24.12A16.39,16.39,0,0,0,16.33,51.66Z"/><path class="cls-1" d="M100.17,65.83a20.16,20.16,0,0,0,5.28-.66,16,16,0,0,0,10.39-8.07c10.54-.42,17.62-5.62,19-14.12,1.15-6.8-1.76-13.82-6.7-17a12.23,12.23,0,0,0-1-10.36A14.58,14.58,0,0,0,116,8.79a11.91,11.91,0,0,0-6.9-6.29C102.16.14,94.23,4.82,93.9,5l2.54,4.25c.06,0,6.33-3.7,11.08-2.08,2,.7,3.52,2.3,4.55,4.9l.61,1.57h1.69a9.81,9.81,0,0,1,8.56,4.49,7.61,7.61,0,0,1-.12,7.8l-1.44,2.59,2.8,1c4,1.37,6.75,7.29,5.84,12.66-1.09,6.42-6.87,10.08-15.78,10H112.5l-.6,1.62a11,11,0,0,1-7.71,6.6c-4.12,1.09-12.94,1.33-25.71-9.33L75.3,54.87C85.86,63.68,94.38,65.83,100.17,65.83Z"/></svg>