<svg id="Layer_1" data-name="Layer 1" xmlns="http://www.w3.org/2000/svg" viewBox="0 0 419 167"><defs><style>.cls-1{opacity:0.1;}.cls-2{fill:#595959;}</style></defs><title>chachi website 2 [Recovered]</title><g class="cls-1"><path class="cls-2" d="M239.09,150.79c-7-.36-12.23-4.46-14.81-7-5.28,3.26-14.56,6.25-22.51.28l-.15-.12c-18.53-16-12.94-31-9.67-36.66,7.21-12.55,23.72-19.57,36-15.34a19.44,19.44,0,0,1,12,11.39,11.05,11.05,0,0,1,4.69-8.06c3.29-2.14,9.36-3.13,19.81,3.87a11.07,11.07,0,0,1,12.5,3.2A15.61,15.61,0,0,1,278.17,121c2.26,6.22.88,10.49-.76,13-3.16,4.9-10,7.78-19.42,8.15-5.75,5.77-11.76,8.69-17.9,8.69C239.75,150.82,239.42,150.81,239.09,150.79Zm26.48-46-1.54.87-1.44-1c-6.72-4.77-12.15-6.47-14.92-4.67-2.28,1.49-2.68,5.31-2.08,8.24s2,4.64,3,4.82,2.81-.88,5-4.28a2.13,2.13,0,0,0-1.17.51l-5.2-1.91c1.24-3.36,5.52-4.81,8.51-3.87,2.34.73,4.26,3.12,3.29,6.8l-.1.4-.22.35c-4.3,7-8.41,7.93-11.09,7.46a8.28,8.28,0,0,1-5.28-3.7,57,57,0,0,1-.49,10.82l-.1.45a17,17,0,0,1-14.95,12.38l0,0c0,.06,5.13,6.46,12.55,6.82,5.07.26,10.24-2.37,15.36-7.77l.8-.84,1.16,0c7.95-.13,13.79-2.2,16-5.65,1.49-2.31,1.41-5.43-.24-9.25l-.62-1.44.92-1.28c3.56-4.94,2.5-10.17,0-12.94a6.07,6.07,0,0,0-4.35-2.14A5.8,5.8,0,0,0,265.57,104.76Zm-59.49,23.17c-1.74-3.61-3.43-11,4.73-19.81l.27-.3.35-.21c5-2.94,10.24-2.38,14.13,1.49,3.58,3.56,4.78,8.78,2.8,12.14-.79,1.35-3.3,4.3-9.39,2.54l1.53-5.32c1.81.52,2.87.34,3.09,0,.51-.87,0-3.47-1.94-5.4-1.4-1.39-3.74-2.64-7.05-.84-4.24,4.73-5.46,9.33-3.53,13.33,2.26,4.68,8.57,7.85,14.67,7.42a11.59,11.59,0,0,0,10.69-8.36c2-14.7-1.63-24.43-10.24-27.38-9.63-3.31-23.66,2.83-29.44,12.86-5.52,9.61-2.53,20.13,8.42,29.65,7,5.13,15,.26,17.18-1.3C215.33,137.69,208.84,133.63,206.08,127.93Z"/><path class="cls-2" d="M400.62,159.85c-4.64-2.06-7.77-7.23-6.7-11.07l1.2-4.34,3.34,3c2.62,2.39,4.49,2.61,5.3,2.07s1.17-1.94.53-3.66c-1.34-3.64-7.15-7.4-19.16-6.1-12,3.7-21.12,6.85-28.43,9.37-28.89,10-30.11,9.9-63.61-5.6-7.43-2.68-15.09,1.82-23.95,7-12,7-26.79,15.77-43.44,3.46a24.6,24.6,0,0,1-20.87,4.62,22.92,22.92,0,0,1-15-12.23c-5.05,1.08-11.08-1.24-14.81-6.05-3.35-4.3-4.84-11.12.17-18-6.6-6.78-8.62-15.09-5.53-23.15A22.55,22.55,0,0,1,187,85a15.82,15.82,0,0,1,5.35-12.56c5-4.52,12.68-6.14,19.89-4.32,7.18-7.35,14.69-10.91,22.41-10.69,7.89.27,15.76,4.68,22.87,12.79,7.58-5,15.59-6.28,22.78-3.46,6.94,2.72,12.18,9,14.49,17.21,7.5-3.26,15.39-3,22.1.78,8,4.54,13.19,13.44,14.16,24.18,6.8-.75,9.09,2.24,11.41,6.43a21.92,21.92,0,0,0,3.76,5.36l5.11-5.63c1.17-1.29,8.35-7.34,14.22-5,3.86,1.5,5.81,5.9,5.77,13.07l0,.44c0,.22-.07.44-.11.66,11.21-2.92,31-5.56,41.31,7.88,5.18,6.72,6,15.83,2,22.15-3.28,5.22-7,6.48-9.86,6.48A10.23,10.23,0,0,1,400.62,159.85Zm-31-29.49a23.48,23.48,0,0,1-6.69,10.8c5.83-2,12.65-4.23,20.81-6.74l.5-.11c19.32-2.19,24.21,6.85,25.24,9.67,1.46,4,.38,8.14-2.64,10.17a7.07,7.07,0,0,1-2.44,1c1.9.1,3.7-1.21,5.4-3.9,2.33-3.71,2.49-10.33-1.74-15.82-2.26-2.93-8-8.15-20.22-8.15A62.7,62.7,0,0,0,369.63,130.36Zm-74.52,8,.2.08c30,13.88,32.07,14.84,54.3,7.26h-.29c-9.29,0-20.25-4.17-30.95-8.25-15.6-5.94-31.73-12.09-40.61-4.69l-3.55-4.26c11.37-9.47,29-2.74,46.13,3.77,14.05,5.35,28.58,10.89,37,6,4.29-2.46,7-7.54,8.39-15.51,0-4.25-.84-7.1-2.23-7.65a3.9,3.9,0,0,0-2.57.18,8.47,8.47,0,0,1,1.61,1.66,10.15,10.15,0,0,1,.25,11.56c-1,1.39-4,4.4-9.79,2.48-10.34-3.79-13.41-9.36-15.45-13-1.91-3.48-2.49-4.53-8.54-3.14l-3.35.77,0-3.44c-.12-10.18-4.42-18.65-11.51-22.66-6-3.41-13.1-3.1-19.89.87l-3.47,2-.66-4c-1.34-8-5.77-14.2-11.86-16.59s-12.94-.85-19.53,4.25l-2.15,1.66-1.7-2.12c-4.55-5.65-11.77-12.45-20.43-12.74-6.41-.22-12.94,3.21-19.34,10.16l-1.22,1.32-1.7-.57C206.35,71.91,200,73,196,76.53a10.43,10.43,0,0,0-3.23,10.4l.75,3.43-3.51-.06c-6.28-.1-12.75,4.47-15.21,10.89-1.46,3.82-2.64,11.35,6,18.83l2.16,1.87L181,124c-4,4.38-4.63,9.12-1.62,13,2.75,3.54,7.62,5.16,10.62,3.54l2.79-1.51,1.12,3a17.77,17.77,0,0,0,12.24,11.31c6,1.5,12.43-.28,17.67-4.87l1.77-1.56,1.82,1.5c14.38,11.86,26.29,4.86,38.9-2.56,7.2-4.24,14.6-8.59,22.2-8.59A18.76,18.76,0,0,1,295.11,138.4Zm59.15-18.86-6.77,2.31a25,25,0,0,0,7.36,4c2.52.83,3.24-.16,3.48-.49a4.67,4.67,0,0,0-.22-5,2.46,2.46,0,0,0-2.17-1.08A5.38,5.38,0,0,0,354.26,119.54Z"/><path class="cls-2" d="M290.93,81.84c7.94,0,22.32-3.79,27.27-18.63,3.29-11.72-3.42-18.17-7.42-20l-6.46-2.89,2.78,6.5c1.18,2.8,3.63,10.91.71,14.74-1.6,2.1-4.94,2.83-9.9,2.17-9.63-1.28-13.09-4.56-16.44-7.73-3.65-3.46-7.12-6.74-16.39-5.6-.47-4.66-2-8.24-4.61-10.68a13,13,0,0,0-7.56-3.35c.37-8.63-3.32-16.46-10-20.94a20.24,20.24,0,0,0-20.81-1.09c-28.52-18.61-52-11.9-62.7,3.24a32.22,32.22,0,0,0-5.81,22.8c1.12,8.62,5.67,16.11,13.17,21.66l.19.13c13.86,8.54,30.65,3.42,39.43-5.74,7.88-8.22,8.95-18.52,2.87-27.59-5.23-9.19-16.15-10.75-23.81-7.53s-11.32,10.47-9,18.33c2.64,8.71,7.54,10,10.22,10.06h.06c4.11,0,8.21-3.17,9.56-7.4a8.32,8.32,0,0,0-3.32-9.71l-3.17,4.55a2.84,2.84,0,0,1,1.2,3.48,5.09,5.09,0,0,1-4.27,3.53h0c-2,0-3.78-2.23-4.95-6.09-2.22-7.58,3.93-10.82,5.86-11.64,5.47-2.3,13.25-1.25,16.88,5.24l.12.2c6.6,9.74.65,17.75-2.21,20.74C195,60.32,180.9,64.24,170,57.57c-13.78-10.27-13.47-26.24-6-36.74,13-18.3,37.72-13.64,56.5-.91l1.46,1,1.52-.92c5.45-3.29,11.43-3.26,16.43.08,5.68,3.81,8.48,10.94,7.31,18.62l-.52,3.39,3.43-.21c2.86-.18,5.09.47,6.64,1.93,2,1.88,3,5.21,3,9.88v3.39L263,56.4c8.86-1.79,11,.26,14.64,3.67s8.11,7.69,19.52,9.21c5.71.76,10.1,0,13.11-2.36-6.77,9.88-19.67,9.38-20.31,9.35l-.29,5.54C290.08,81.83,290.5,81.84,290.93,81.84Z"/><path class="cls-2" d="M207.77,70.56l5.54,0c0-3.91.76-6.48,2.17-7.24,1.87-1,5.48.66,6.94,1.63l3.09-4.6c-.74-.5-7.35-4.76-12.64-1.92C209.46,60.23,207.75,64.32,207.77,70.56Z"/><path class="cls-2" d="M199.45,71l5.46-.92c-1.63-9.58,3.28-16.48,9-18.35,6.07-2,12.12,1.64,16.18,9.72L235,59c-6.37-12.66-16-14.75-22.87-12.5C204.21,49.08,197.3,58.35,199.45,71Z"/><path class="cls-2" d="M140.27,75.09a16.79,16.79,0,0,0,8.14-2c6.05-3.36,9.91-11.19,4.9-21.1l-.2-.4-.32-.32c-3.21-3.17-7.15-4.31-10.8-3.12a8.84,8.84,0,0,0-6.07,6.77,7.66,7.66,0,0,0,3.23,7.51l3.33-4.44a2.18,2.18,0,0,1-1.09-2.16,3.33,3.33,0,0,1,2.3-2.41c1.55-.5,3.26,0,4.88,1.5,2.78,5.81,1.73,10.78-2.86,13.33-5,2.75-12.56,1.49-16.9-5.31-3.11-12,3.9-17.62,7.08-19.5,6.33-3.73,14.49-3.22,19,1.18l3.87-4c-6.34-6.18-17.14-7-25.68-2-9,5.3-12.55,15.06-9.52,26.12l.1.38.21.33A19.15,19.15,0,0,0,140.27,75.09Z"/><path class="cls-2" d="M128.7,94a11.08,11.08,0,0,0,7.53-3c5.15,1.59,20,4.55,29.74-9.71,5.18,8.84,11.79,12.18,12.12,12.34l2.45-5c-.06,0-7.44-3.86-11.85-14.28l-2.37-5.6-2.67,5.47c-9.05,18.53-26.3,11.34-27,11l-1.82-.78-1.34,1.46c-4.8,5.31-10.51,1.72-22.38-7.74-8.7-6.93-18.57-14.85-29.27-14.7h-.19c-7.18.54-12.6,4-13.18,8.42a6.13,6.13,0,0,0,1.24,4.51c-1.27-.47-2.34-1.71-3.21-3.7-1.56-4.71-.76-8.52,2.36-11.3,6.27-5.6,20.72-6.3,30.92-1.51l2.68,1.26,1.08-2.76c1.5-3.83,3.73-6.25,6.82-7.4,6.59-2.46,15,1.81,15.13,1.86L128,48c-.43-.23-10.66-5.5-19.65-2.15a16.47,16.47,0,0,0-8.85,8c-12-4.56-26.95-3.18-34.4,3.47-4.82,4.3-6.2,10.45-3.88,17.31l.07.2c1.62,3.8,4,6.17,7.09,7,4.8,1.37,9.18-1.58,9.66-1.92l4.38-3.1L77.4,75c-2.73-1-3.51-2-3.46-2.41.11-.89,2.58-3.17,8-3.6h0c8.7,0,17.7,7.16,25.65,13.49C114.73,88.17,122,94,128.7,94Z"/><path class="cls-2" d="M10.4,129c-8.24-9.61-11.25-19.85-8.28-28.09,3.2-8.86,12.62-14.69,28-17.33C46.53,80.75,55.91,88.73,60,93.75c6.37,7.73,8.79,18.52,5.87,26.22A12.42,12.42,0,0,1,56,128.3c-13.6,2.16-16.58-5.5-17.16-7.9-1-4,.28-9.19,3.62-10.31L47,108.61l-.84,4.61c-.11.59.63,1.21.86,1.39a4.37,4.37,0,0,0,4,.77c.24-.12,1-.45,1-2.1,0-3.12-1.16-5.31-3.32-6.51-2.63-1.46-6.59-1.19-9.64.64a8.18,8.18,0,0,0-4.22,7.24c.09,5,3.32,9.62,8.62,12.42,6,3.14,12.87,3,17.89-.3,27.33-19.62,63-20.51,76.56-8.2,11.92,10.78,36.34,9.06,36.58,9.05l.42,5.52c-1.1.09-27,1.93-40.71-10.46a17.32,17.32,0,0,0-1.68-1.34c-2.9-.92-28.89-8.47-52.06,9.62-11.85,9.25-24.24,13.13-35.59,13.13C30.71,144.09,18.22,138.09,10.4,129Zm54,2.36c-6.8,4.48-15.85,4.72-23.61.63-7.12-3.75-11.45-10.19-11.58-17.22a13.6,13.6,0,0,1,6.9-12.09c4.82-2.89,10.78-3.18,15.19-.73,3.9,2.16,6.09,6.16,6.17,11.39-.13,4.48-2.66,6.35-4.15,7.06a9.71,9.71,0,0,1-9-.82,5.1,5.1,0,0,0,.32.72c1.36,2.5,5.08,3.4,10.45,2.55A6.94,6.94,0,0,0,60.73,118c1.89-5,.8-13.74-5-20.74S41.18,87.29,31.07,89C18,91.27,9.77,96,7.33,102.77c-2.27,6.31.38,14.55,7.28,22.6C27,139.87,53.13,145.23,77,126.59a62.68,62.68,0,0,1,11.17-7A83.12,83.12,0,0,0,64.44,131.34Z"/></g></svg>