<svg id="Layer_1" data-name="Layer 1" xmlns="http://www.w3.org/2000/svg" viewBox="0 0 137 67"><defs><style>.cls-1{fill:#bf8016;}</style></defs><title>chachi website 2 [Recovered]</title><path class="cls-1" d="M77.84,62.94a5.58,5.58,0,0,1-5.43-3.4c-1.26-3,0-6.77,2.54-8.12-3.33-.17-7.83,1.42-13.61,3.57C49.54,59.38,35,64.82,25,50c-4.85.43-8.84-2.13-10.66-6.95-1.73-4.56-1.21-10.69,2-14.18a9.65,9.65,0,0,1,.28-10.7,12.88,12.88,0,0,1,11.1-5.32c2.54-5.16,6.81-8.1,12-8.15h.13c6.28,0,12.71,4.44,15.89,10.81a12.8,12.8,0,0,1,9.58,4.88,10.37,10.37,0,0,1,7.88,6.32,9.21,9.21,0,0,1,7.37,1c2.19,1.42,4.68,4.51,4.75,11.18a8,8,0,0,1,6,6.74c1,6.22-3.58,14.23-9.41,16.48A11.3,11.3,0,0,1,77.84,62.94ZM27.46,44.47,28.38,46c7.81,13.06,19.19,8.83,31.23,4.34,9.46-3.53,19.24-7.17,24.65,1.28l.17.31A4.46,4.46,0,0,1,84.76,53a10.58,10.58,0,0,0,1.6-6.61c-.31-1.93-1.47-2.84-3.78-2.95l-2.5-.13.16-2.5c.29-4.58-.57-7.76-2.44-9-1.28-.83-3.17-.74-5.08.26l-2.87,1.5-.7-3.17a8.69,8.69,0,0,0-.92-2.51c.73,6.23-2,12.76-7,16.15a12.66,12.66,0,0,1-13,.7c-3.92-1.95-6.55-5.5-6.7-9C41.47,34,42,30.59,46.24,28l.42-.2c5.64-2.11,8.93.07,10.13,2.81,1.33,3,.28,6.95-2.19,8.19-.61.3-3.75,1.58-6.38-3l4.19-2.39a1.81,1.81,0,0,0-.3-1c-.45-.62-1.74-.61-3.49,0-1.46.94-2.17,2-2.12,3.19.07,1.71,1.7,3.69,4,4.81a7.81,7.81,0,0,0,8-.35c4.56-3.08,5.79-9.42,4.36-13.77-.75-2.28-2.87-6.05-8.64-5.82l-1.76.08-.65-1.64c-2.13-5.36-7.15-9.23-12-9.23H39.7c-3.7,0-6.53,2.42-8.2,6.88l-.86,2.29L28.35,18c-2.35-.83-6,.59-7.68,3-1.44,2.06-1.14,4.33.88,6.75L23.49,30l-2.65,1.45c-2.32,1.27-3.23,6.12-1.84,9.79,1.18,3.12,3.44,4.33,6.71,3.6Zm51.37,8.36-.19,1.08a2.68,2.68,0,0,0,1-.28A6.59,6.59,0,0,0,78.83,52.83Z"/><path class="cls-1" d="M120.31,51.66c-4.07,0-7.83-1.43-11.29-2.74-6.25-2.38-11.65-4.43-18.74.27l-2.74-4.13c9.21-6.1,16.67-3.27,23.24-.77,5,1.89,9.31,3.53,14.14,1.46,3-1.73,4.63-4,4.73-6.43a9.38,9.38,0,0,1-4.13,4.13c-3.88,2.24-9.22,3.14-12.42.16a27.16,27.16,0,0,1-6.34-8.44c-2.05-3.82-2.54-4.73-7.05-3.21l-2.86,1-.39-3c-.66-5.06-2.85-8.52-6.34-10-3.67-1.55-8.44-.77-12.15,2l-2.44,1.8L74.25,21c-.21-.43-5.42-10.7-20.87-4l-2-4.54c13.69-6,22.17-.85,25.88,4a17.29,17.29,0,0,1,14.77-1.12c4.41,1.87,7.47,5.79,8.81,11.17,6.31-1.1,8.4,2.79,10.27,6.27a22.25,22.25,0,0,0,5.23,7.06l.1.09c.64.61,2,.75,3.64.36A10.08,10.08,0,0,0,124.67,38a10.26,10.26,0,0,0-2.38-.34l-4.4-.24,2.49-3.63c2.05-3,4.91-4.35,7.86-3.67,3.19.73,5.7,3.73,6.25,7.46.73,4.86-2,9.56-7.22,12.57l-.23.12A16.45,16.45,0,0,1,120.31,51.66Z"/><path class="cls-1" d="M36.47,65.83a20.3,20.3,0,0,1-5.29-.66A16,16,0,0,1,20.8,57.1C10.25,56.68,3.18,51.48,1.74,43c-1.15-6.8,1.77-13.82,6.7-17a12.27,12.27,0,0,1,1-10.36A14.55,14.55,0,0,1,20.62,8.79,12,12,0,0,1,27.53,2.5C34.48.14,42.41,4.82,42.74,5L40.19,9.27c-.06,0-6.32-3.7-11.08-2.08-2,.7-3.52,2.3-4.54,4.9L24,13.66H22.26a9.81,9.81,0,0,0-8.56,4.49,7.61,7.61,0,0,0,.13,7.8l1.44,2.59-2.81,1c-4,1.37-6.74,7.29-5.83,12.66,1.08,6.42,6.87,10.08,15.77,10h1.73l.61,1.62a11,11,0,0,0,7.71,6.6c4.12,1.09,12.94,1.33,25.71-9.33l3.17,3.81C50.77,63.68,42.26,65.83,36.47,65.83Z"/></svg>