<svg id="Layer_1" data-name="Layer 1" xmlns="http://www.w3.org/2000/svg" viewBox="0 0 372 146"><defs><style>.cls-1{fill:#bf8016;}</style></defs><title>chachi website 2 [Recovered]</title><path class="cls-1" d="M214.1,134.23l-.89,0c-6.27-.32-10.93-4-13.24-6.25-4.71,2.91-13,5.58-20.11.25l-.13-.11c-16.57-14.33-11.57-27.69-8.65-32.76,6.45-11.21,21.19-17.49,32.21-13.71A17.38,17.38,0,0,1,214,91.81a9.91,9.91,0,0,1,4.2-7.2c2.93-1.91,8.36-2.8,17.7,3.46a9.9,9.9,0,0,1,11.17,2.86,13.93,13.93,0,0,1,1.09,16.6c2,5.57.78,9.38-.68,11.65-2.83,4.38-9,7-17.36,7.29C225,131.62,219.59,134.23,214.1,134.23Zm-11.84-11.09,0,0c0,.06,4.58,5.77,11.21,6.09,4.55.24,9.15-2.12,13.73-6.94l.71-.76h1c7.11-.13,12.32-2,14.31-5.06,1.34-2.07,1.27-4.85-.21-8.26l-.55-1.29.82-1.14c3.18-4.41,2.24-9.09,0-11.57a5,5,0,0,0-6.5-1.16l-1.37.78-1.29-.92c-6-4.26-10.86-5.78-13.33-4.17-2,1.33-2.4,4.75-1.87,7.36s1.8,4.15,2.72,4.31,2.51-.78,4.48-3.82a1.85,1.85,0,0,0-1.06.49l-4.63-1.74c1.1-3,4.93-4.3,7.6-3.46,2.09.65,3.81,2.79,2.95,6.08l-.1.35-.19.32c-3.84,6.27-7.51,7.09-9.91,6.66a7.33,7.33,0,0,1-4.72-3.3,51.41,51.41,0,0,1-.44,9.67l-.09.39A15.19,15.19,0,0,1,202.26,123.14ZM182.9,124.3c6.21,4.59,13.35.24,15.35-1.16-6.28-.64-12.08-4.27-14.54-9.37-1.55-3.22-3.07-9.79,4.22-17.7l.25-.26.31-.19c4.43-2.63,9.15-2.13,12.63,1.33,3.19,3.18,4.27,7.85,2.5,10.85-.71,1.2-2.94,3.84-8.39,2.27l1.37-4.76c1.61.46,2.55.31,2.75,0,.46-.78,0-3.1-1.73-4.83a4.91,4.91,0,0,0-6.3-.75c-3.78,4.22-4.87,8.34-3.15,11.91,2,4.18,7.65,7,13.11,6.64a10.38,10.38,0,0,0,9.55-7.47c1.79-13.15-1.45-21.84-9.15-24.48-8.61-3-21.15,2.53-26.31,11.5C170.44,106.39,173.11,115.8,182.9,124.3Z"/><path class="cls-1" d="M361.14,143.05a9.07,9.07,0,0,1-3.58-.75c-4.14-1.84-6.94-6.46-6-9.89l1.08-3.88,3,2.71c2.34,2.14,4,2.34,4.74,1.86s1-1.74.47-3.27c-1.19-3.25-6.39-6.62-17.12-5.45-10.75,3.3-18.88,6.11-25.41,8.37-25.82,8.93-26.9,8.84-56.84-5-6.65-2.4-13.49,1.63-21.41,6.29-10.71,6.3-23.95,14.08-38.82,3.09a22,22,0,0,1-18.65,4.13,20.5,20.5,0,0,1-13.4-10.94c-4.51,1-9.9-1.1-13.23-5.39-3-3.85-4.32-9.94.16-16.13-5.9-6.06-7.71-13.49-5-20.69a20.19,20.19,0,0,1,15.47-12.72,14.15,14.15,0,0,1,4.78-11.22c4.49-4,11.32-5.49,17.78-3.86,6.42-6.57,13.16-9.76,20-9.55,7,.23,14.07,4.17,20.43,11.43,6.77-4.51,13.93-5.62,20.36-3.1,6.2,2.43,10.88,8.06,13,15.38a21.78,21.78,0,0,1,19.75.7c7.18,4.06,11.79,12,12.65,21.61,6.09-.67,8.13,2,10.2,5.74a19.27,19.27,0,0,0,3.36,4.79l4.57-5c1-1.15,7.44-6.56,12.7-4.51,3.45,1.34,5.19,5.27,5.16,11.68l0,.39c0,.2-.07.4-.1.59,10-2.6,27.66-5,36.91,7,4.63,6,5.38,14.14,1.82,19.79C367,141.92,363.68,143.05,361.14,143.05Zm-.2-4.94c1.67.08,3.31-1.08,4.83-3.49,2.09-3.31,2.23-9.23-1.55-14.13-2.83-3.68-11.82-11.41-34.35-4.54a21,21,0,0,1-6,9.65c5.22-1.77,11.31-3.79,18.61-6l.45-.09c17.26-2,21.62,6.12,22.55,8.64,1.3,3.54.33,7.28-2.36,9.09A6.32,6.32,0,0,1,360.94,138.11Zm-159.78-7.4,1.63,1.34c12.85,10.6,23.49,4.33,34.76-2.29,8.28-4.87,16.84-9.91,25.72-6.63l.18.08c26.82,12.4,28.66,13.26,48.53,6.48-8.39.1-18.26-3.69-27.92-7.37-13.95-5.31-28.37-10.8-36.3-4.19l-3.17-3.8c10.16-8.47,26-2.46,41.23,3.36,12.55,4.78,25.53,9.72,33.09,5.39,3.83-2.2,6.29-6.73,7.5-13.86,0-3.8-.75-6.35-2-6.84a3.51,3.51,0,0,0-2.29.16,7.79,7.79,0,0,1,1.44,1.48,9.08,9.08,0,0,1,.22,10.34c-.9,1.24-3.53,3.94-8.67,2.24-9.32-3.41-12.06-8.4-13.88-11.69-1.72-3.11-2.24-4-7.64-2.81l-3,.69,0-3.07c-.1-9.1-3.95-16.66-10.28-20.25-5.4-3-11.71-2.77-17.78.78l-3.1,1.82-.59-3.55c-1.19-7.15-5.15-12.69-10.6-14.83s-11.56-.75-17.45,3.8L228.84,69l-1.52-1.89C223.26,62,216.8,56,209.06,55.7c-5.71-.19-11.56,2.86-17.28,9.08L190.69,66l-1.52-.51c-5.23-1.74-10.89-.8-14.44,2.39a9.33,9.33,0,0,0-2.88,9.3l.67,3.06-3.14,0c-5.71-.11-11.39,4-13.59,9.73-1.31,3.41-2.36,10.14,5.33,16.82l1.92,1.68-1.73,1.87c-3.61,3.92-4.14,8.15-1.44,11.63,2.46,3.16,6.8,4.61,9.49,3.15l2.49-1.34,1,2.65a15.88,15.88,0,0,0,10.94,10.11c5.36,1.33,11.11-.25,15.79-4.36Zm108.93-22.37a22.59,22.59,0,0,0,6.65,3.58c2.17.72,2.81-.17,3-.46a4.16,4.16,0,0,0-.19-4.49c-.27-.37-1.1-1.49-3.44-.69Z"/><path class="cls-1" d="M259.53,72.59c-.38,0-.75,0-1.1,0l.26-5c.55,0,12,.47,18.08-8.31-2.68,2-6.58,2.74-11.65,2.06-10.2-1.36-14.22-5.17-17.45-8.22s-5.15-4.89-13.08-3.28l-3,.6v-3c0-4.18-.9-7.15-2.69-8.83A7.64,7.64,0,0,0,223,36.88l-3.07.19.46-3c1.05-6.86-1.45-13.23-6.53-16.63-4.47-3-9.81-3-14.68-.08l-1.36.82-1.31-.89c-16.78-11.38-38.9-15.53-50.49.82-6.64,9.38-6.91,23.65,5.4,32.82,9.79,6,22.4,2.47,29-4.39,2.56-2.67,7.88-9.82,2-18.54l-.11-.17c-3.25-5.8-10.19-6.74-15.08-4.68-1.73.72-7.22,3.63-5.23,10.42,1,3.43,2.65,5.41,4.42,5.42h0a4.56,4.56,0,0,0,3.82-3.15,2.55,2.55,0,0,0-1.08-3.12L172,28.62a7.42,7.42,0,0,1,3,8.68,9.52,9.52,0,0,1-8.59,6.61c-2.4,0-6.78-1.21-9.13-9-2.06-7.05,1.1-13.48,8.06-16.41s16.6-1.48,21.27,6.73C192,33.37,191,42.58,184,49.93c-7.85,8.18-22.86,12.76-35.24,5.13l-.17-.12a28.36,28.36,0,0,1-11.77-19.36A28.83,28.83,0,0,1,142,15.2c9.59-13.53,30.55-19.52,56-2.89a18.08,18.08,0,0,1,18.59,1c6,4,9.28,11,8.95,18.72a11.62,11.62,0,0,1,6.76,3c2.31,2.18,3.69,5.38,4.12,9.54,8.27-1,11.37,1.92,14.64,5,3,2.83,6.09,5.76,14.69,6.91,4.44.59,7.42-.06,8.85-1.94,2.61-3.42.42-10.67-.64-13.17l-2.46-5.8,5.75,2.57c3.58,1.59,9.57,7.36,6.67,17.71C279.49,69.2,266.63,72.59,259.53,72.59Z"/><path class="cls-1" d="M185.22,62.51c0-5.58,1.51-9.24,4.55-10.86,4.73-2.54,10.64,1.27,11.3,1.71l-2.76,4.12c-1.3-.87-4.53-2.37-6.2-1.46-1.26.67-2,3-1.94,6.47Z"/><path class="cls-1" d="M177.78,62.91C175.86,51.6,182,43.31,189.14,41c6.15-2,14.75-.14,20.44,11.17l-4.43,2.22c-3.63-7.22-9-10.47-14.46-8.68-5.09,1.67-9.48,7.84-8,16.39Z"/><path class="cls-1" d="M124.9,66.55a17.1,17.1,0,0,1-14.66-8.62l-.18-.3L110,57.3c-2.71-9.88.47-18.61,8.5-23.34,7.63-4.5,17.28-3.75,22.95,1.78L138,39.28c-4-3.93-11.33-4.38-17-1.06-2.84,1.68-9.1,6.72-6.33,17.43,3.89,6.08,10.69,7.21,15.11,4.75,4.1-2.28,5-6.72,2.55-11.92-1.44-1.3-3-1.78-4.35-1.34a3,3,0,0,0-2.07,2.16,2,2,0,0,0,1,1.93l-3,4A6.82,6.82,0,0,1,121,48.48a7.91,7.91,0,0,1,5.42-6c3.26-1.06,6.79,0,9.65,2.8l.29.28.18.36c4.48,8.85,1,15.85-4.38,18.85A15,15,0,0,1,124.9,66.55Z"/><path class="cls-1" d="M114.55,83.42c-6,0-12.48-5.18-18.83-10.23-7.1-5.66-15.14-12.06-22.91-12.06h0c-4.85.38-7.06,2.43-7.16,3.22-.05.33.65,1.3,3.09,2.15l4.53,1.6-3.92,2.76c-.43.31-4.33,2.94-8.63,1.71-2.76-.78-4.89-2.9-6.34-6.29l-.06-.18c-2.07-6.13-.84-11.63,3.47-15.47,6.66-6,20-7.18,30.74-3.1a14.71,14.71,0,0,1,7.91-7.15c8-3,17.17,1.72,17.55,1.92l-2.29,4.39c-.08,0-7.6-3.89-13.55-1.66-2.75,1-4.73,3.2-6.07,6.61l-1,2.47L88.69,53c-9.12-4.28-22-3.65-27.64,1.35-2.79,2.49-3.5,5.89-2.1,10.1a5.62,5.62,0,0,0,2.86,3.3,5.47,5.47,0,0,1-1.1-4c.52-3.94,5.36-7,11.78-7.52h.32c9.5,0,18.27,7,26,13.14,10.61,8.45,15.71,11.66,20,6.92L120,74.9l1.64.72c.65.28,16.07,6.7,24.15-9.85l2.39-4.89,2.12,5c3.93,9.31,10.53,12.73,10.59,12.76l-2.2,4.44c-.29-.14-6.2-3.13-10.83-11-8.74,12.75-22,10.1-26.57,8.68A10,10,0,0,1,114.55,83.42Z"/><path class="cls-1" d="M39.6,128.22c-12.61,0-23.77-5.36-30.76-13.51C1.48,106.13-1.22,97,1.44,89.61c2.85-7.92,11.28-13.13,25-15.49,14.66-2.5,23,4.63,26.73,9.11,5.7,6.91,7.85,16.55,5.24,23.43a11.09,11.09,0,0,1-8.81,7.45C37.47,116,34.81,109.19,34.29,107c-.87-3.55.25-8.21,3.24-9.21l4-1.32-.75,4.12c-.1.53.56,1.08.77,1.24a3.92,3.92,0,0,0,3.58.69c.21-.1.84-.41.89-2-.05-2.68-1-4.64-3-5.71-2.34-1.31-5.89-1.07-8.62.57a7.32,7.32,0,0,0-3.77,6.46c.09,4.46,3,8.6,7.71,11.1a15.8,15.8,0,0,0,16.07-.32c24.34-17.47,56.18-18.27,68.34-7.27,10.65,9.64,32.47,8.1,32.68,8.09l.38,4.94c-1,.07-24.15,1.71-36.39-9.36a16.19,16.19,0,0,0-1.49-1.19c-2.57-.81-25.88-7.53-46.53,8.59C60.82,124.75,49.74,128.22,39.6,128.22ZM32.27,78.57a29.47,29.47,0,0,0-5,.44c-11.7,2-19,6.25-21.21,12.28-2,5.64.33,13,6.5,20.2,11.11,13,34.43,17.75,55.75,1.09a56.36,56.36,0,0,1,10.05-6.29,74.59,74.59,0,0,0-21.19,10.47,20.78,20.78,0,0,1-21.18.63C29.67,114,25.8,108.28,25.68,102a12.18,12.18,0,0,1,6.17-10.81c4.3-2.58,9.63-2.84,13.58-.65,3.48,1.93,5.44,5.51,5.51,10.07-.11,4.12-2.38,5.78-3.71,6.42a8.69,8.69,0,0,1-8-.73,4.06,4.06,0,0,0,.29.64c1.21,2.23,4.53,3,9.34,2.28a6.2,6.2,0,0,0,5-4.31c1.7-4.48.72-12.28-4.43-18.53A21.47,21.47,0,0,0,32.27,78.57Z"/></svg>