<svg id="Layer_1" data-name="Layer 1" xmlns="http://www.w3.org/2000/svg" xmlns:xlink="http://www.w3.org/1999/xlink" viewBox="0 0 867 139"><defs><style>.cls-1{fill:#d58d19;}.cls-2{clip-path:url(#clip-path);}</style><clipPath id="clip-path"><path class="cls-1" d="M492.6,45q-3.8,3.83-7.66,7.61t-7.78,7.49l-3.94,3.7-4,3.66c-2.67,2.42-5.34,4.84-8.11,7.17,2.33-2.77,4.75-5.43,7.17-8.11l3.66-4c1.23-1.31,2.46-2.63,3.7-3.94q3.72-3.91,7.5-7.78,2-2.09,4.11-4.16l-1,.21a30.69,30.69,0,0,1-6.09.64A15,15,0,0,1,477,47.2a7.62,7.62,0,0,1-.79-.2c-.26-.07-.5-.16-.75-.24l-.37-.12-.36-.15c-.25-.1-.49-.18-.73-.3a11.56,11.56,0,0,1-2.73-1.67c-.82-.67-1.51-1.36-2.22-2a15.61,15.61,0,0,0-2.29-1.64l-.3-.19-.32-.17-.63-.34c-.43-.2-.87-.41-1.31-.59a11.77,11.77,0,0,0-2.69-.77,5.08,5.08,0,0,0-2.66.24,4.16,4.16,0,0,0-1.12.71,5.27,5.27,0,0,0-.88,1.05,9.4,9.4,0,0,0-.89,1.83s0,.06,0,.09c-.28,1.05-.6,2.09-1,3.12l-.12.41a7.57,7.57,0,0,1-.57,1.38l-.07.12-.3.65c0-.11,0-.22.05-.33a1.1,1.1,0,0,1,0-.18c.27-1.81.51-3.61.65-5.4a29,29,0,0,0,0-5.74c0-.23-.07-.44-.11-.64s-.1-.41-.16-.61a7.1,7.1,0,0,0-.5-1.17,8,8,0,0,0-1.59-2,10.61,10.61,0,0,0-2.15-1.57,12.81,12.81,0,0,0-2.47-1.12c-.43-.15-.86-.29-1.31-.4s-.94-.2-1.43-.32c-1-.25-2-.51-3-.85a19,19,0,0,1-5.58-2.87,15,15,0,0,1-4.07-4.74,19.64,19.64,0,0,1-1.21-2.75c0,5.09,0,8.35,0,10.91,0,6,0,8.17,0,20.84,0,4-1.29,6.25-4.36,7.45a5.34,5.34,0,0,1,3.28,4,4.33,4.33,0,0,1-.64,3.48c-.39.55-.81,1.1-1.22,1.62a21.74,21.74,0,0,0-3,4.75.28.28,0,0,1-.26.18h0a.3.3,0,0,1-.26-.17,24.93,24.93,0,0,0-3.6-5.51,5.4,5.4,0,0,1-1.24-4.6A5.57,5.57,0,0,1,423,57l0,0c-3.12-1.32-4.34-3.16-4.35-6.5V18a18.13,18.13,0,0,1-1.11,2.47,15,15,0,0,1-4.07,4.74,19,19,0,0,1-5.58,2.87c-1,.34-2,.6-3,.85-.49.12-1,.22-1.43.32s-.88.25-1.31.4a13.17,13.17,0,0,0-2.48,1.12,10.82,10.82,0,0,0-2.14,1.57,8,8,0,0,0-1.59,2,7.1,7.1,0,0,0-.5,1.17c-.06.2-.11.4-.16.61s-.08.41-.11.64a28.23,28.23,0,0,0,0,5.74c.13,1.79.39,3.59.65,5.4,0,.06,0,.12,0,.18s0,.22.05.33c-.1-.21-.2-.42-.29-.64a.57.57,0,0,1-.08-.13,6.92,6.92,0,0,1-.57-1.38l-.13-.43c-.24-.8-.45-1.61-.7-2.4-.09-.26-.18-.53-.28-.79a9.69,9.69,0,0,0-.89-1.83,5,5,0,0,0-.89-1.05,3.87,3.87,0,0,0-1.12-.71,5,5,0,0,0-2.65-.24,11.92,11.92,0,0,0-2.69.77c-.45.18-.88.39-1.31.59l-.63.34-.31.17-.31.19a15.61,15.61,0,0,0-2.29,1.64c-.71.62-1.4,1.31-2.22,2a11.76,11.76,0,0,1-2.73,1.67c-.24.12-.48.2-.73.3l-.36.15-.37.12c-.25.08-.49.17-.75.24a7.62,7.62,0,0,1-.79.2,14.93,14.93,0,0,1-3.16.32,30.89,30.89,0,0,1-6.11-.64l-1-.21q2.07,2.07,4.12,4.16,3.76,3.87,7.49,7.78c1.24,1.31,2.47,2.63,3.7,3.94l3.66,4c2.41,2.68,4.84,5.34,7.16,8.11-2.76-2.33-5.43-4.75-8.1-7.17l-4-3.66-3.94-3.7q-3.91-3.72-7.78-7.49T357.26,45a1.3,1.3,0,0,1,1.36-2.15h0c.87.3,1.81.59,2.73.84s1.85.5,2.79.7a31,31,0,0,0,5.61.76,13.48,13.48,0,0,0,2.71-.16c.22,0,.43-.08.64-.13l.67-.18.34-.09.33-.11c.21-.08.44-.14.64-.23A10.31,10.31,0,0,0,377.47,43c.74-.53,1.49-1.18,2.33-1.78a16.52,16.52,0,0,1,2.64-1.59,26.43,26.43,0,0,1,2.81-1.17,12.74,12.74,0,0,1,3-.68,6,6,0,0,1,3.13.49,4.75,4.75,0,0,1,1.31.94,5.31,5.31,0,0,1,.69.89,19.84,19.84,0,0,1-.24-3.47c0-.26,0-.55.06-.83l.06-.42c0-.15.07-.29.09-.43a9,9,0,0,1,.56-1.61,9.85,9.85,0,0,1,1.93-2.76,14.38,14.38,0,0,1,5.52-3.39c.51-.17,1-.32,1.55-.44s1-.22,1.48-.32c.95-.19,1.87-.43,2.79-.69a20.35,20.35,0,0,0,5.16-2.19,15.83,15.83,0,0,0,4.17-3.76,23.16,23.16,0,0,0,2.17-3.35V16a5.43,5.43,0,0,1,0-.8.76.76,0,0,1,.69-.7h.08a.76.76,0,0,1,.77.73,11.31,11.31,0,0,1,.05,1.27V49.87c0,1.78.09,3.24,1.3,4.4a4.73,4.73,0,0,0,3.29,1.37,4.58,4.58,0,0,0,1.74-.35A4.38,4.38,0,0,0,429.41,51V16a3.25,3.25,0,0,1,.07-.82.83.83,0,0,1,.81-.7h0c.25,0,.68.13.74.81a6.77,6.77,0,0,1,0,.78v.2a23,23,0,0,0,2.27,3.54,15.83,15.83,0,0,0,4.17,3.76,20.2,20.2,0,0,0,5.16,2.19c.91.26,1.85.5,2.79.69.48.1.93.19,1.48.32s1,.27,1.55.44A14.38,14.38,0,0,1,454,30.58,9.24,9.24,0,0,1,456.5,35c0,.14.06.28.08.43l.07.42c0,.28.05.57.06.83a18.87,18.87,0,0,1-.24,3.46,5.81,5.81,0,0,1,.69-.88,4.75,4.75,0,0,1,1.31-.94,6,6,0,0,1,3.13-.49,12.74,12.74,0,0,1,3,.68,27.33,27.33,0,0,1,2.81,1.17,17,17,0,0,1,2.64,1.59c.84.6,1.58,1.25,2.33,1.78a10.45,10.45,0,0,0,2.38,1.26c.21.09.44.15.65.23l.33.11.34.09.67.18c.21.05.42.1.64.13a13.48,13.48,0,0,0,2.71.16,30.87,30.87,0,0,0,5.61-.76c.94-.2,1.87-.44,2.79-.7s1.86-.54,2.73-.84h0A1.3,1.3,0,0,1,492.6,45Z"/></clipPath></defs><title>chachi website 2 [Recovered]</title><path class="cls-1" d="M425.21,122.78a32.42,32.42,0,0,1,2.42-3.47,35.22,35.22,0,0,1,3.45-3,8.16,8.16,0,0,0,2-10.09c-1.7-3.35-4.56-5.1-7.75-6.29a1.46,1.46,0,0,0-1,0c-3.07,1.25-5.88,3-7.56,6.22a8.43,8.43,0,0,0,2.1,10.29C421.06,118.4,423.05,120.62,425.21,122.78Z"/><path class="cls-1" d="M424.87,75.19c-1.93,1.89-4.12,3.88-6.12,6.06a10.59,10.59,0,0,0-2.47,3.86c-1.6,5.14,3.79,12.58,8.8,12.37a1.15,1.15,0,0,0,.62-.12c2.23-1.67,4.81-3,6.58-5.12a8.07,8.07,0,0,0-1.11-11C429,79.17,426.81,77,424.87,75.19Z"/><path class="cls-1" d="M402.52,120.48c2-1.41,4.2-2.9,6.35-4.43a8.6,8.6,0,0,0,4.06-7.09c.12-3.31,1.84-5.72,4.12-7.7.4-.35.8-.72,1.19-1.08l-.19-.83c-4.09.6-8.21,1-12.27,1.86a11.43,11.43,0,0,0-7.13,4.5,8.28,8.28,0,0,0,1.12,11.4A28.23,28.23,0,0,1,402.52,120.48Z"/><path class="cls-1" d="M431,99.83l2.23,2c1.88,1.76,3.44,3.93,3.47,6.63,0,3.88,2,6.09,4.61,7.94,2,1.38,4,2.72,6,4.08l-.88-1.06a22.61,22.61,0,0,0,3.87-2.8,9.43,9.43,0,0,0,2.21-4c.91-3.78-.8-7.34-4.39-9.56C442.86,99.88,437.17,99.74,431,99.83Z"/><path class="cls-1" d="M418.49,97.52C413.9,93,414,93,412.55,86.42a7.7,7.7,0,0,0-2.41-3.87c-2.41-2-5.07-3.74-7-5.15A52.79,52.79,0,0,0,399,81.08a8.1,8.1,0,0,0-1.73,3.07c-1.18,4,.66,8.14,4.67,10.4C407.05,97.4,412.54,97.66,418.49,97.52Z"/><path class="cls-1" d="M431.3,97.15l.23.94c4.4-.72,8.86-1.15,13.16-2.3A13.66,13.66,0,0,0,450.55,92c2.86-2.92,2.74-8.2.14-10.82l-3.82-3.88a50.64,50.64,0,0,0-6.29,4.32c-1.48,1.35-3.33,3.27-3.5,5.11A13.8,13.8,0,0,1,431.3,97.15Z"/><path class="cls-1" d="M376.13,98.11c-1.79,3.62,1.32,1.79,2.16,2.52l-.76,2.54c3.78-3.15,8-3.09,12.1-3.58-.06-.15-.06-.25-.1-.28A4.23,4.23,0,0,0,389,99a14,14,0,0,1-8.9-8.11,6.56,6.56,0,0,0-2.13-2.46c-2.62-2-8.48-2.55-11.56-1.27,1.76,1.39,1.76,1.39,2.21,5.08.48,3.93,1.83,5.37,5.39,5.7C374.59,98,375.22,98.06,376.13,98.11Z"/><path class="cls-1" d="M473.73,98.15l.91-.1c5.12-.39,6-1.34,7-6.89.27-1.54,1.22-2.93,1.9-4.47a56.8,56.8,0,0,0-7,.06c-3.44.4-5.9,2.3-7.71,5.87-1.14,2.24-3.57,3.71-5.52,5.4a14.61,14.61,0,0,1-2.95,1.47c4.36.67,8.41.59,11.87,3.58l-.63-2.55,2.84-.3Z"/><path class="cls-1" d="M400.06,96.68c-2.19-1.85-4.38-3.58-4.75-6.81a6.55,6.55,0,0,0-3.44-5.16c-1.84-1.07-3.71-2.08-5.42-3a34.15,34.15,0,0,0-2.53,3.23,8.72,8.72,0,0,0-1.33,3.26c-.44,3.46,1.2,6,4.64,7.55C391.37,97.54,395.69,97.11,400.06,96.68Z"/><path class="cls-1" d="M400.19,100.94l-.17-.67c-1.52,0-3,0-4.56,0a30.67,30.67,0,0,0-4.4.24c-2.71.48-5.36,1.22-7.24,3.71a6.81,6.81,0,0,0,0,8.25c.89,1,1.71,2.16,2.61,3.3a44,44,0,0,0,5.44-3.15c1.25-1,2.74-2.33,3.06-3.8C395.68,105.26,397.18,102.58,400.19,100.94Z"/><path class="cls-1" d="M449.51,100.68c2.34,1.73,4.39,3.63,4.78,6.8a6.41,6.41,0,0,0,3.08,4.93c2,1.24,4,2.33,5.93,3.44a22.88,22.88,0,0,1,1.68-2.59c3.49-4,2.72-8.77-1.84-11.21C458.78,99.71,454.16,100.33,449.51,100.68Z"/><path class="cls-1" d="M463.22,81.73c-1.75,1-3.56,1.92-5.34,3A7,7,0,0,0,454.24,90a11.6,11.6,0,0,1-2.17,4.34,17.51,17.51,0,0,1-2.84,2.59c3.35,0,6.25.42,9-.12a16.25,16.25,0,0,0,7-3.21c2.74-2.23,2.48-6.44,0-9.08A30.92,30.92,0,0,1,463.22,81.73Z"/><path class="cls-1" d="M425.21,122.78c-2.16-2.16-4.15-4.38-6.35-6.31a8.43,8.43,0,0,1-2.1-10.29c1.68-3.27,4.49-5,7.56-6.22a1.46,1.46,0,0,1,1,0c3.19,1.19,6,2.94,7.75,6.29a8.16,8.16,0,0,1-2,10.09,35.22,35.22,0,0,0-3.45,3A32.42,32.42,0,0,0,425.21,122.78Z"/><path class="cls-1" d="M424.87,75.19c1.94,1.85,4.08,4,6.3,6a8.07,8.07,0,0,1,1.11,11c-1.77,2.14-4.35,3.45-6.58,5.12a1.15,1.15,0,0,1-.62.12c-5,.21-10.4-7.23-8.8-12.37a10.59,10.59,0,0,1,2.47-3.86C420.75,79.07,422.94,77.08,424.87,75.19Z"/><path class="cls-1" d="M402.52,120.48a28.23,28.23,0,0,0-2.75-3.37,8.28,8.28,0,0,1-1.12-11.4,11.43,11.43,0,0,1,7.13-4.5c4.06-.84,8.18-1.26,12.27-1.86l.19.83c-.39.36-.79.73-1.19,1.08-2.28,2-4,4.39-4.12,7.7a8.6,8.6,0,0,1-4.06,7.09C406.72,117.58,404.54,119.07,402.52,120.48Z"/><path class="cls-1" d="M431,99.83c6.21-.09,11.9,0,17.09,3.26,3.59,2.22,5.3,5.78,4.39,9.56a9.43,9.43,0,0,1-2.21,4,22.61,22.61,0,0,1-3.87,2.8l.88,1.06c-2-1.36-4-2.7-6-4.08-2.64-1.85-4.57-4.06-4.61-7.94,0-2.7-1.59-4.87-3.47-6.63Z"/><path class="cls-1" d="M418.49,97.52c-5.95.14-11.44-.12-16.52-3-4-2.26-5.85-6.36-4.67-10.4A8.1,8.1,0,0,1,399,81.08a52.79,52.79,0,0,1,4.09-3.68c1.95,1.41,4.61,3.1,7,5.15a7.7,7.7,0,0,1,2.41,3.87C414,93,413.9,93,418.49,97.52Z"/><path class="cls-1" d="M431.3,97.15a13.8,13.8,0,0,0,5.78-10.44c.17-1.84,2-3.76,3.5-5.11a50.64,50.64,0,0,1,6.29-4.32l3.82,3.88c2.6,2.62,2.72,7.9-.14,10.82a13.66,13.66,0,0,1-5.86,3.81c-4.3,1.15-8.76,1.58-13.16,2.3Z"/><path class="cls-1" d="M376.13,98.11c-.91,0-1.54-.07-2.16-.13-3.56-.33-4.91-1.77-5.39-5.7-.45-3.69-.45-3.69-2.21-5.08,3.08-1.28,8.94-.71,11.56,1.27a6.56,6.56,0,0,1,2.13,2.46A14,14,0,0,0,389,99a4.23,4.23,0,0,1,.57.27s0,.13.1.28c-4.1.49-8.32.43-12.1,3.58l.76-2.54C377.45,99.9,374.34,101.73,376.13,98.11Z"/><path class="cls-1" d="M473.73,98.15l.68,2.07-2.84.3.63,2.55c-3.46-3-7.51-2.91-11.87-3.58A14.61,14.61,0,0,0,463.28,98c2-1.69,4.38-3.16,5.52-5.4,1.81-3.57,4.27-5.47,7.71-5.87a56.8,56.8,0,0,1,7-.06c-.68,1.54-1.63,2.93-1.9,4.47-1,5.55-1.84,6.5-7,6.89Z"/><path class="cls-1" d="M400.06,96.68c-4.37.43-8.69.86-12.83-1-3.44-1.53-5.08-4.09-4.64-7.55a8.72,8.72,0,0,1,1.33-3.26,34.15,34.15,0,0,1,2.53-3.23c1.71,1,3.58,2,5.42,3a6.55,6.55,0,0,1,3.44,5.16C395.68,93.1,397.87,94.83,400.06,96.68Z"/><path class="cls-1" d="M400.19,100.94c-3,1.64-4.51,4.32-5.27,7.88-.32,1.47-1.81,2.85-3.06,3.8a44,44,0,0,1-5.44,3.15c-.9-1.14-1.72-2.25-2.61-3.3a6.81,6.81,0,0,1,0-8.25c1.88-2.49,4.53-3.23,7.24-3.71a30.67,30.67,0,0,1,4.4-.24c1.52,0,3,0,4.56,0Z"/><path class="cls-1" d="M449.51,100.68c4.65-.35,9.27-1,13.63,1.37,4.56,2.44,5.33,7.2,1.84,11.21a22.88,22.88,0,0,0-1.68,2.59c-1.92-1.11-4-2.2-5.93-3.44a6.41,6.41,0,0,1-3.08-4.93C453.9,104.31,451.85,102.41,449.51,100.68Z"/><path class="cls-1" d="M463.22,81.73a30.92,30.92,0,0,0,2,2.75c2.44,2.64,2.7,6.85,0,9.08a16.25,16.25,0,0,1-7,3.21c-2.75.54-5.65.12-9,.12a17.51,17.51,0,0,0,2.84-2.59A11.6,11.6,0,0,0,454.24,90a7,7,0,0,1,3.64-5.26C459.66,83.65,461.47,82.7,463.22,81.73Z"/><path class="cls-1" d="M492.6,45q-3.8,3.83-7.66,7.61t-7.78,7.49l-3.94,3.7-4,3.66c-2.67,2.42-5.34,4.84-8.11,7.17,2.33-2.77,4.75-5.43,7.17-8.11l3.66-4c1.23-1.31,2.46-2.63,3.7-3.94q3.72-3.91,7.5-7.78,2-2.09,4.11-4.16l-1,.21a30.69,30.69,0,0,1-6.09.64A15,15,0,0,1,477,47.2a7.62,7.62,0,0,1-.79-.2c-.26-.07-.5-.16-.75-.24l-.37-.12-.36-.15c-.25-.1-.49-.18-.73-.3a11.56,11.56,0,0,1-2.73-1.67c-.82-.67-1.51-1.36-2.22-2a15.61,15.61,0,0,0-2.29-1.64l-.3-.19-.32-.17-.63-.34c-.43-.2-.87-.41-1.31-.59a11.77,11.77,0,0,0-2.69-.77,5.08,5.08,0,0,0-2.66.24,4.16,4.16,0,0,0-1.12.71,5.27,5.27,0,0,0-.88,1.05,9.4,9.4,0,0,0-.89,1.83s0,.06,0,.09c-.28,1.05-.6,2.09-1,3.12l-.12.41a7.57,7.57,0,0,1-.57,1.38l-.07.12-.3.65c0-.11,0-.22.05-.33a1.1,1.1,0,0,1,0-.18c.27-1.81.51-3.61.65-5.4a29,29,0,0,0,0-5.74c0-.23-.07-.44-.11-.64s-.1-.41-.16-.61a7.1,7.1,0,0,0-.5-1.17,8,8,0,0,0-1.59-2,10.61,10.61,0,0,0-2.15-1.57,12.81,12.81,0,0,0-2.47-1.12c-.43-.15-.86-.29-1.31-.4s-.94-.2-1.43-.32c-1-.25-2-.51-3-.85a19,19,0,0,1-5.58-2.87,15,15,0,0,1-4.07-4.74,19.64,19.64,0,0,1-1.21-2.75c0,5.09,0,8.35,0,10.91,0,6,0,8.17,0,20.84,0,4-1.29,6.25-4.36,7.45a5.34,5.34,0,0,1,3.28,4,4.33,4.33,0,0,1-.64,3.48c-.39.55-.81,1.1-1.22,1.62a21.74,21.74,0,0,0-3,4.75.28.28,0,0,1-.26.18h0a.3.3,0,0,1-.26-.17,24.93,24.93,0,0,0-3.6-5.51,5.4,5.4,0,0,1-1.24-4.6A5.57,5.57,0,0,1,423,57l0,0c-3.12-1.32-4.34-3.16-4.35-6.5V18a18.13,18.13,0,0,1-1.11,2.47,15,15,0,0,1-4.07,4.74,19,19,0,0,1-5.58,2.87c-1,.34-2,.6-3,.85-.49.12-1,.22-1.43.32s-.88.25-1.31.4a13.17,13.17,0,0,0-2.48,1.12,10.82,10.82,0,0,0-2.14,1.57,8,8,0,0,0-1.59,2,7.1,7.1,0,0,0-.5,1.17c-.06.2-.11.4-.16.61s-.08.41-.11.64a28.23,28.23,0,0,0,0,5.74c.13,1.79.39,3.59.65,5.4,0,.06,0,.12,0,.18s0,.22.05.33c-.1-.21-.2-.42-.29-.64a.57.57,0,0,1-.08-.13,6.92,6.92,0,0,1-.57-1.38l-.13-.43c-.24-.8-.45-1.61-.7-2.4-.09-.26-.18-.53-.28-.79a9.69,9.69,0,0,0-.89-1.83,5,5,0,0,0-.89-1.05,3.87,3.87,0,0,0-1.12-.71,5,5,0,0,0-2.65-.24,11.92,11.92,0,0,0-2.69.77c-.45.18-.88.39-1.31.59l-.63.34-.31.17-.31.19a15.61,15.61,0,0,0-2.29,1.64c-.71.62-1.4,1.31-2.22,2a11.76,11.76,0,0,1-2.73,1.67c-.24.12-.48.2-.73.3l-.36.15-.37.12c-.25.08-.49.17-.75.24a7.62,7.62,0,0,1-.79.2,14.93,14.93,0,0,1-3.16.32,30.89,30.89,0,0,1-6.11-.64l-1-.21q2.07,2.07,4.12,4.16,3.76,3.87,7.49,7.78c1.24,1.31,2.47,2.63,3.7,3.94l3.66,4c2.41,2.68,4.84,5.34,7.16,8.11-2.76-2.33-5.43-4.75-8.1-7.17l-4-3.66-3.94-3.7q-3.91-3.72-7.78-7.49T357.26,45a1.3,1.3,0,0,1,1.36-2.15h0c.87.3,1.81.59,2.73.84s1.85.5,2.79.7a31,31,0,0,0,5.61.76,13.48,13.48,0,0,0,2.71-.16c.22,0,.43-.08.64-.13l.67-.18.34-.09.33-.11c.21-.08.44-.14.64-.23A10.31,10.31,0,0,0,377.47,43c.74-.53,1.49-1.18,2.33-1.78a16.52,16.52,0,0,1,2.64-1.59,26.43,26.43,0,0,1,2.81-1.17,12.74,12.74,0,0,1,3-.68,6,6,0,0,1,3.13.49,4.75,4.75,0,0,1,1.31.94,5.31,5.31,0,0,1,.69.89,19.84,19.84,0,0,1-.24-3.47c0-.26,0-.55.06-.83l.06-.42c0-.15.07-.29.09-.43a9,9,0,0,1,.56-1.61,9.85,9.85,0,0,1,1.93-2.76,14.38,14.38,0,0,1,5.52-3.39c.51-.17,1-.32,1.55-.44s1-.22,1.48-.32c.95-.19,1.87-.43,2.79-.69a20.35,20.35,0,0,0,5.16-2.19,15.83,15.83,0,0,0,4.17-3.76,23.16,23.16,0,0,0,2.17-3.35V16a5.43,5.43,0,0,1,0-.8.76.76,0,0,1,.69-.7h.08a.76.76,0,0,1,.77.73,11.31,11.31,0,0,1,.05,1.27V49.87c0,1.78.09,3.24,1.3,4.4a4.73,4.73,0,0,0,3.29,1.37,4.58,4.58,0,0,0,1.74-.35A4.38,4.38,0,0,0,429.41,51V16a3.25,3.25,0,0,1,.07-.82.83.83,0,0,1,.81-.7h0c.25,0,.68.13.74.81a6.77,6.77,0,0,1,0,.78v.2a23,23,0,0,0,2.27,3.54,15.83,15.83,0,0,0,4.17,3.76,20.2,20.2,0,0,0,5.16,2.19c.91.26,1.85.5,2.79.69.48.1.93.19,1.48.32s1,.27,1.55.44A14.38,14.38,0,0,1,454,30.58,9.24,9.24,0,0,1,456.5,35c0,.14.06.28.08.43l.07.42c0,.28.05.57.06.83a18.87,18.87,0,0,1-.24,3.46,5.81,5.81,0,0,1,.69-.88,4.75,4.75,0,0,1,1.31-.94,6,6,0,0,1,3.13-.49,12.74,12.74,0,0,1,3,.68,27.33,27.33,0,0,1,2.81,1.17,17,17,0,0,1,2.64,1.59c.84.6,1.58,1.25,2.33,1.78a10.45,10.45,0,0,0,2.38,1.26c.21.09.44.15.65.23l.33.11.34.09.67.18c.21.05.42.1.64.13a13.48,13.48,0,0,0,2.71.16,30.87,30.87,0,0,0,5.61-.76c.94-.2,1.87-.44,2.79-.7s1.86-.54,2.73-.84h0A1.3,1.3,0,0,1,492.6,45Z"/><g class="cls-2"><rect class="cls-1" x="356.76" y="14.46" width="0.13" height="60.18"/><rect class="cls-1" x="356.89" y="14.46" width="3.89" height="60.18"/><rect class="cls-1" x="360.77" y="14.46" width="3.89" height="60.18"/><rect class="cls-1" x="364.66" y="14.46" width="3.89" height="60.18"/><rect class="cls-1" x="368.55" y="14.46" width="3.89" height="60.18"/><rect class="cls-1" x="372.44" y="14.46" width="3.89" height="60.18"/><rect class="cls-1" x="376.33" y="14.46" width="3.89" height="60.18"/><rect class="cls-1" x="380.22" y="14.46" width="3.89" height="60.18"/><rect class="cls-1" x="384.11" y="14.46" width="3.89" height="60.18"/><rect class="cls-1" x="387.99" y="14.46" width="3.89" height="60.18"/><rect class="cls-1" x="391.88" y="14.46" width="3.89" height="60.18"/><rect class="cls-1" x="395.77" y="14.46" width="3.89" height="60.18"/><rect class="cls-1" x="399.66" y="14.46" width="3.89" height="60.18"/><rect class="cls-1" x="403.55" y="14.46" width="3.89" height="60.18"/><rect class="cls-1" x="407.44" y="14.46" width="3.89" height="60.18"/><rect class="cls-1" x="411.33" y="14.46" width="3.89" height="60.18"/><rect class="cls-1" x="415.21" y="14.46" width="3.89" height="60.18"/><rect class="cls-1" x="419.1" y="14.46" width="3.89" height="60.18"/><rect class="cls-1" x="422.99" y="14.46" width="3.89" height="60.18"/><rect class="cls-1" x="426.88" y="14.46" width="3.89" height="60.18"/><rect class="cls-1" x="430.77" y="14.46" width="3.89" height="60.18"/><rect class="cls-1" x="434.66" y="14.46" width="3.89" height="60.18"/><rect class="cls-1" x="438.55" y="14.46" width="3.89" height="60.18"/><rect class="cls-1" x="442.43" y="14.46" width="3.89" height="60.18"/><rect class="cls-1" x="446.32" y="14.46" width="3.89" height="60.18"/><rect class="cls-1" x="450.21" y="14.46" width="3.89" height="60.18"/><rect class="cls-1" x="454.1" y="14.46" width="3.89" height="60.18"/><rect class="cls-1" x="457.99" y="14.46" width="3.89" height="60.18"/><rect class="cls-1" x="461.88" y="14.46" width="3.89" height="60.18"/><rect class="cls-1" x="465.76" y="14.46" width="3.89" height="60.18"/><rect class="cls-1" x="469.65" y="14.46" width="3.89" height="60.18"/><rect class="cls-1" x="473.54" y="14.46" width="3.89" height="60.18"/><rect class="cls-1" x="477.43" y="14.46" width="3.89" height="60.18"/><rect class="cls-1" x="481.32" y="14.46" width="3.89" height="60.18"/><rect class="cls-1" x="485.21" y="14.46" width="3.89" height="60.18"/><rect class="cls-1" x="489.1" y="14.46" width="3.89" height="60.18"/><rect class="cls-1" x="492.98" y="14.46" width="0.1" height="60.18"/></g><path class="cls-1" d="M493.24,43.54a1.66,1.66,0,0,0-2.11-1l-.08,0c-.73.25-1.59.52-2.62.81s-1.92.51-2.77.69a30.07,30.07,0,0,1-5.55.75,13.92,13.92,0,0,1-2.65-.15l-.41-.08-.2,0-.38-.1-.28-.08-.33-.09-.31-.1-.23-.08-.4-.14h0a9.81,9.81,0,0,1-2.31-1.22c-.37-.26-.74-.56-1.14-.87s-.77-.61-1.18-.91a18.56,18.56,0,0,0-2.7-1.62,24.94,24.94,0,0,0-2.85-1.18,12.46,12.46,0,0,0-3.1-.7,6.38,6.38,0,0,0-3.32.52,5.63,5.63,0,0,0-1.34.95,17.59,17.59,0,0,0,.09-2.28c0-.23,0-.51-.06-.86l-.07-.45-.06-.3,0-.14a9.31,9.31,0,0,0-.59-1.68,10.13,10.13,0,0,0-2-2.86,14.71,14.71,0,0,0-5.66-3.47c-.53-.18-1.06-.33-1.58-.46l-1-.21-.49-.1c-.86-.18-1.76-.4-2.76-.68a19.54,19.54,0,0,1-5.08-2.16,15.52,15.52,0,0,1-4.08-3.68,22.58,22.58,0,0,1-2.19-3.4V16c0-.23,0-.48,0-.73a1.11,1.11,0,0,0-1.08-1.13h0a1.18,1.18,0,0,0-1.15,1,3.51,3.51,0,0,0-.08.91V51a4,4,0,0,1-2.53,4,4.28,4.28,0,0,1-1.61.32A4.39,4.39,0,0,1,421.87,54c-1.11-1.07-1.2-2.45-1.19-4.15V16.46a11.74,11.74,0,0,0-.05-1.31,1.11,1.11,0,0,0-1.12-1h-.11a1.09,1.09,0,0,0-1,1,5.14,5.14,0,0,0,0,.86v.38a22.35,22.35,0,0,1-2.1,3.23,15.4,15.4,0,0,1-4.08,3.68,20.09,20.09,0,0,1-5.06,2.15c-1,.28-1.93.5-2.78.68l-.5.1-1,.21c-.52.13-1,.28-1.58.46a14.71,14.71,0,0,0-5.66,3.47,10.13,10.13,0,0,0-2,2.86,8.47,8.47,0,0,0-.59,1.69l0,.16c0,.09,0,.18-.06.29l-.06.43c0,.32-.06.61-.07.86a17.82,17.82,0,0,0,.09,2.29,5.11,5.11,0,0,0-1.35-1,6.32,6.32,0,0,0-3.31-.52,12.82,12.82,0,0,0-3.1.7,25.27,25.27,0,0,0-2.85,1.18,18.56,18.56,0,0,0-2.7,1.62c-.42.3-.81.61-1.19.92s-.76.6-1.14.86a9.55,9.55,0,0,1-2.3,1.22h0l-.38.14-.23.08-.32.1-.32.09-.29.08-.37.1-.21,0-.42.08a13.76,13.76,0,0,1-2.64.15,30.18,30.18,0,0,1-5.55-.75c-.84-.18-1.75-.41-2.77-.69s-1.88-.55-2.63-.81l-.08,0A1.65,1.65,0,0,0,357,45.25c2.28,2.31,4.72,4.73,7.67,7.62s5.44,5.27,7.78,7.49L376,63.64l.45.43,4,3.66.38.34c2.51,2.27,5.1,4.61,7.74,6.83l.49-.49c-2.19-2.6-4.51-5.16-6.75-7.64l-.43-.48-3.66-4-.66-.71c-1-1.06-2-2.16-3-3.23-2.22-2.34-4.67-4.89-7.49-7.78l-3.3-3.34a31.16,31.16,0,0,0,6.06.62,15.25,15.25,0,0,0,3.22-.33,6.25,6.25,0,0,0,.72-.17l.11,0,.51-.17.25-.08.37-.12.39-.16.25-.1a4,4,0,0,0,.49-.21,11.81,11.81,0,0,0,2.8-1.71c.5-.41,1-.82,1.39-1.22.29-.27.56-.52.84-.76a15.44,15.44,0,0,1,2.24-1.62l.3-.17.93-.51h0c.43-.21.83-.4,1.25-.56a11.26,11.26,0,0,1,2.61-.76,4.72,4.72,0,0,1,2.47.23,3.48,3.48,0,0,1,1,.64,5,5,0,0,1,.83,1,9.63,9.63,0,0,1,.86,1.76c.08.22.16.47.26.78.16.49.31,1,.45,1.51.09.29.17.59.26.88l.13.44a7.45,7.45,0,0,0,.6,1.45v0l.06.09c.11.24.2.44.29.62l.94,1.94-.28-2.14,0-.18c0-.05,0-.1,0-.15l0-.18c-.26-1.83-.51-3.61-.64-5.37a27.63,27.63,0,0,1,0-5.68c0-.2.06-.38.09-.56v-.05a5.75,5.75,0,0,1,.16-.58,5.6,5.6,0,0,1,.47-1.1,7.58,7.58,0,0,1,1.52-1.93,10.73,10.73,0,0,1,2.08-1.52A13.12,13.12,0,0,1,402.36,30a11.43,11.43,0,0,1,1.27-.39l.7-.16.73-.16c1-.24,2-.51,3-.86a19.43,19.43,0,0,0,5.68-2.92,15.16,15.16,0,0,0,4.17-4.86c.16-.29.31-.58.45-.88V50.43c0,3.23,1.15,5.16,3.9,6.52a5.41,5.41,0,0,0-1.51,8.51,24.92,24.92,0,0,1,3.55,5.43.6.6,0,0,0,.24.28.69.69,0,0,0,.36.1.64.64,0,0,0,.57-.39,21.28,21.28,0,0,1,3-4.67l.07-.09c.38-.5.78-1,1.15-1.55a4.62,4.62,0,0,0,.71-3.75A5.57,5.57,0,0,0,427.55,57c2.71-1.32,3.92-3.66,3.9-7.48-.05-12.53,0-14.91,0-20.65V27c0-1.95,0-4.31,0-7.44.17.37.36.74.55,1.1a15.25,15.25,0,0,0,4.16,4.86,19.68,19.68,0,0,0,5.68,2.92c1,.36,2.05.62,3,.86l.73.16.7.16a13,13,0,0,1,1.28.39,13.65,13.65,0,0,1,2.41,1.09A10.36,10.36,0,0,1,452,32.62a7.36,7.36,0,0,1,1.52,1.92,5.52,5.52,0,0,1,.47,1.1,4.7,4.7,0,0,1,.16.58c0,.16.07.37.1.62a27.54,27.54,0,0,1,0,5.67c-.14,1.83-.39,3.66-.64,5.37l0,.19a.77.77,0,0,0,0,.15l0,.17-.29,2.16.95-2c.11-.21.2-.43.3-.64l.06-.1a7.07,7.07,0,0,0,.6-1.45l.1-.34,0-.07c.35-1,.66-2,1-3.13a.64.64,0,0,1,0-.07v0a9.1,9.1,0,0,1,.85-1.74,5.26,5.26,0,0,1,.82-1,3.81,3.81,0,0,1,1-.64,4.72,4.72,0,0,1,2.47-.23,11.47,11.47,0,0,1,2.62.76c.44.18.9.4,1.27.57l.93.51.3.18a15.18,15.18,0,0,1,2.24,1.61c.28.24.56.5.86.77s.88.81,1.37,1.21a11.61,11.61,0,0,0,2.8,1.71c.17.09.34.15.5.22l.25.09L475,47l.38.13.24.08.52.17.13,0a5.35,5.35,0,0,0,.69.17,15.51,15.51,0,0,0,3.24.33,31.14,31.14,0,0,0,6.05-.62c-1.2,1.21-2.29,2.31-3.29,3.34-2.94,3-5.33,5.49-7.5,7.78-1.14,1.2-2.28,2.42-3.38,3.6l-4,4.33-.42.47c-2.24,2.47-4.56,5-6.75,7.64l.49.49c2.6-2.19,5.17-4.51,7.64-6.75l.48-.42,4-3.66,0,0c1.29-1.21,2.62-2.45,3.92-3.69,2.29-2.17,4.77-4.55,7.78-7.49l4-3.94c1.27-1.27,2.49-2.48,3.67-3.68A1.64,1.64,0,0,0,493.24,43.54ZM426.61,56.62l-.76.3.74.34a5,5,0,0,1,3.09,3.7,4,4,0,0,1-.58,3.21c-.37.51-.77,1-1.15,1.53l-.06.08a22.14,22.14,0,0,0-3,4.7A26,26,0,0,0,421.28,65a5,5,0,0,1-1.17-4.3,5.21,5.21,0,0,1,3.05-3.45l1-.25-.95-.41c-3-1.26-4.13-3-4.14-6.18V16a4.71,4.71,0,0,1,0-.75.41.41,0,0,1,.36-.4h.06a.41.41,0,0,1,.42.42,10.2,10.2,0,0,1,.05,1.23V49.87c0,1.8.1,3.39,1.41,4.66A5.09,5.09,0,0,0,424.92,56a5,5,0,0,0,1.87-.37,4.72,4.72,0,0,0,3-4.61V16a2.4,2.4,0,0,1,.06-.73c.07-.29.23-.43.45-.44h0c.17,0,.37.07.4.49a4.52,4.52,0,0,1,0,.52v13c0,5.74,0,8.12,0,20.66C430.77,53.34,429.53,55.47,426.61,56.62Zm65.75-11.86c-2.36,2.38-4.87,4.87-7.67,7.6-3,3-5.48,5.33-7.77,7.49-1.3,1.24-2.63,2.48-3.92,3.69l-4,3.67-.47.43c-1.29,1.16-2.6,2.34-3.93,3.52q1.77-2,3.53-3.93l.42-.46,3.66-4,.32-.34c1.1-1.18,2.24-2.41,3.38-3.59,2.17-2.3,4.55-4.77,7.49-7.78l4.1-4.17.84-.84-1.16.25-1,.22a30.32,30.32,0,0,1-6,.63,15.18,15.18,0,0,1-3.11-.31c-.21,0-.42-.1-.64-.16l-.11,0-.5-.16-.24-.08-.36-.12-.35-.14-.26-.11c-.16-.06-.3-.11-.45-.18h0a11.21,11.21,0,0,1-2.65-1.62c-.48-.39-.92-.79-1.34-1.18s-.58-.54-.88-.79a15.19,15.19,0,0,0-2.33-1.68l-.3-.19-1-.52h0c-.47-.23-.89-.43-1.32-.6a11.69,11.69,0,0,0-2.78-.8,5.39,5.39,0,0,0-2.84.27,4.37,4.37,0,0,0-1.22.77,6.11,6.11,0,0,0-1,1.12,10.08,10.08,0,0,0-.92,1.89v0a.25.25,0,0,0,0,.07.08.08,0,0,1,0,0c-.31,1.14-.62,2.15-1,3.09v0c.13-1.05.26-2.13.34-3.22a28.9,28.9,0,0,0,0-5.81c0-.27-.08-.5-.12-.68s-.11-.45-.17-.64a7.58,7.58,0,0,0-.52-1.22,8.19,8.19,0,0,0-1.66-2.1,11.25,11.25,0,0,0-2.21-1.62,14,14,0,0,0-2.53-1.15,12.35,12.35,0,0,0-1.34-.4l-.72-.17-.72-.16c-.93-.23-1.93-.49-2.93-.84A18.8,18.8,0,0,1,436.56,25a14.42,14.42,0,0,1-4-4.63,16.75,16.75,0,0,1-1.19-2.7l0-.15A20.74,20.74,0,0,0,433.07,20a16.07,16.07,0,0,0,4.26,3.84,20.64,20.64,0,0,0,5.24,2.23c1,.29,1.95.51,2.82.69l.49.1c.31.07.63.13,1,.22s1,.26,1.51.43a14.07,14.07,0,0,1,5.39,3.3,9.67,9.67,0,0,1,1.86,2.66,7.88,7.88,0,0,1,.53,1.55l0,.13.06.27.06.41c0,.33.05.58.06.8a19,19,0,0,1-.23,3.39l-.26,1.64.9-1.39a4.3,4.3,0,0,1,.64-.82,4.52,4.52,0,0,1,1.21-.88,5.59,5.59,0,0,1,2.95-.45,11.45,11.45,0,0,1,2.93.66,22.93,22.93,0,0,1,2.77,1.15,16.43,16.43,0,0,1,2.6,1.56c.4.29.79.59,1.16.89s.78.62,1.17.89a10.45,10.45,0,0,0,2.45,1.3c.15.07.31.12.45.17l.22.07.33.11.36.1.28.08.41.1.19,0,.46.09a14.46,14.46,0,0,0,2.78.16,31.53,31.53,0,0,0,5.68-.77c.86-.19,1.78-.41,2.81-.7s2-.58,2.74-.85h0a1,1,0,0,1,1.18.59.89.89,0,0,1,.05.32A.94.94,0,0,1,492.36,44.76Z"/><path class="cls-1" d="M351.88,87.86a.89.89,0,0,0-1.17-.84c-3.31,1-6.34,5.24-6.28,10,0,1.2-9.82-2.8-14.4-1.75,2.51-4.64,8.85-4,8.85-4V45.51h7.47a1.84,1.84,0,0,0,1.88-1.66,1.71,1.71,0,0,0-.4-1.18,38.83,38.83,0,0,0-5.5-2.47c-7.3-2.67-1.48-7.63-1.48-7.63-18.2,2.39.78,10.55.78,10.55H327.39a2.14,2.14,0,0,0-2.16,2.08,2,2,0,0,0,.6,1.4,2.11,2.11,0,0,0,1.48.6h7v3.51s-10.61-3.23-10.61,4.37S334,60.63,334,60.63v3.31c-9.3,7.27-11.09,4.54-11.35,2.42a1.72,1.72,0,0,0-.61-1.13,1.87,1.87,0,0,0-1.22-.45A1.82,1.82,0,0,0,319,66.61c.22,13.53,14.88.53,14.88.53V75.4S323.72,74,323.72,80.32s10,4.93,10,4.93v5.13c-5,.15-7.93,4.85-9.23,7.58a1,1,0,0,0,1.08,1.33c8.31-2.06,19.89,1.65,24.39,3.3a.5.5,0,0,0,.58-.75C348.83,99.45,346.57,94.36,351.88,87.86ZM334,58.17s-6.52,1.26-6.52-3S334,52.76,334,52.76Zm-6.52,22C327.45,75.65,334,78,334,78v5S327.45,84.72,327.45,80.18Z"/><path class="cls-1" d="M312.46,98.6c-4-2-15.63-6.52-20.14-6.15.25-4.49,7.91-3.31,7.91-3.31V64.85h1.55a3.06,3.06,0,0,1,2.94,2.09c1,3.1,4.23,3.48,6.32,3.38a.32.32,0,0,0,.13-.6c-1.92-1-2.32-3.54-2.37-5.11a1.33,1.33,0,0,0-1.33-1.29h-7.24V48.42c7.5,0,14.18-6.26,4.53-13.88-7.12-5.62-13.57-3-16.47-1.18a1.56,1.56,0,0,0,.55,2.85c3.63.62,9.2-5.54,15.41,1.29,4.23,6.8-4,9.06-4,9.06v-4c-2.75-4.57-15.11-3.64-15.11,2.62s10.22,3.9,10.22,3.9v2.37s-9.57,3.88-12.87,5.24a.21.21,0,0,0,0,.39c1.71.48,2.86,2.09,3.88,2.19a2.91,2.91,0,0,0,1.75-.4l7.31-4.6v9.12s-8.2.76-8.2,1.86,8.2,2.29,8.2,2.29v5S285,70,285,76.87s10.3,5.33,10.3,5.33v5.08c-5.15,0-8,4.24-9.25,6.66a1,1,0,0,0,1,1.52c10.4-.34,19.78,5.81,23.43,8.56a3.06,3.06,0,0,0,3.46.15l6.55-4.08a.43.43,0,0,0-.23-.79h-4.94A6.28,6.28,0,0,1,312.46,98.6ZM295.34,47.26s-7.44,1.05-7.44-2.64S295.34,42,295.34,42Zm-6.66,29.65c0-4.69,6.84-2.09,6.84-2.09v4.59S288.68,81.61,288.68,76.91Z"/><path class="cls-1" d="M574.42,112.4c-4.32-2.46-13-5.84-18.59-5.35.13-3.41,7.37-3.78,7.37-3.78V33.69h3.14c2.69,0,3.88-2.16,2.42-4.33A24.39,24.39,0,0,0,563.84,24a.49.49,0,0,0-.71.64,12.94,12.94,0,0,1,1.68,5.89c-2.73,0-10.39-.5-13.41,1.3a1,1,0,0,0,.38,1.76,35,35,0,0,0,6.77.05v3.7s-9.9-2.87-9.9,4.09,9.9,5.08,9.9,5.08V50.8l-7.13,1.89a.76.76,0,0,0,0,1.48l7.07,1.51v3.44l-6.62,1.71a.76.76,0,0,0,.07,1.48l6.58,1v4l-6.81,1.85a.76.76,0,0,0,.07,1.49l6.74,1.09V75.4l-6.85,1.65a.84.84,0,0,0,0,1.63l6.82,1.39v3.56l-6.62,1.48a1,1,0,0,0,0,1.92l6.67,1.76v3.34l-6.82,1.53a.85.85,0,0,0,0,1.65l6.82,1.5v5c-6.91,1.42-9.44,5.63-10,7.76a.9.9,0,0,0,1,1.12c5.89-.49,16.93,2.52,24.3,7.66a3.25,3.25,0,0,0,3.53.12c2.06-1.25,4.15-2.56,6-3.53.75-.38.07-1.66-4.19-1.42A8.61,8.61,0,0,1,574.42,112.4ZM558.55,44.18s-6.32,1.27-6.32-2.66,6.32-2.3,6.32-2.3Z"/><path class="cls-1" d="M545.57,91.45a2.17,2.17,0,0,1-2.86,3.27c-.9-.79-1.86-3-1.08-3.87S544.66,90.66,545.57,91.45Z"/><path class="cls-1" d="M545.57,84.61a2.17,2.17,0,0,1-2.86,3.27c-.9-.79-1.86-3-1.08-3.88S544.66,83.82,545.57,84.61Z"/><path class="cls-1" d="M538.05,95.94s-1.94.2-3.47.45a3,3,0,0,1-2.39-.62c-5.35-4.31-14.92-6.62-16.9-6.82,0,0,1.87-3.58,7.71-3.58l4.38-.1c0,5.82,5.1,6.39,7.12,4.73a.37.37,0,0,0-.24-.65h-.89c-1.68,0-1.37-5-1.37-7,0-1-1.92-2-3.47-1.22a11.44,11.44,0,0,1-5.53,1V41.5h3c2.7,0,3.88-2.17,2.43-4.33a24.42,24.42,0,0,0-4.92-5.33.49.49,0,0,0-.72.64,12,12,0,0,1,1.69,5.64c-2.74,0-10.05-.35-13.07,1.46-.77.45-.83,1.92.07,1.92h6.26l.07,5.59s-2.73,1.29-6.7,3l-6.73-2.59a.29.29,0,0,0-.4.39l3.74,3.62c-2.3,1-4.38,1.92-5.48,2.37a.21.21,0,0,0,0,.39c1.71.48,4.07,1.27,5,1.63a1.16,1.16,0,0,0,1.21-.06l9.3-5.56v9c-10.61,1.13-13.16,5.24-13.16,5.24-1.28,2-1.75,5.66,2.93,6.27,5,.16,6.64-5.82,1.43-6.93,0,0,3-1.33,8.81-1.33V74.09l-6.68,1.4a1,1,0,0,0,0,2l6.7,1.65V83.7s-6.32,2.43-7.75,6.62a1.2,1.2,0,0,0,1,1.57c6.9.62,14.95,5,19.33,8.74a2.56,2.56,0,0,0,3.14.17c2-1.4,4.17-2.55,5.27-3.86C539.29,96.4,539,95.85,538.05,95.94ZM510.47,67.25c0,1.41-1.12,2.09-2.52,2.09s-2.52-.77-2.52-1.94a2.1,2.1,0,0,1,1.78-2.33C509.48,64.79,510.47,66.24,510.47,67.25Z"/><path class="cls-1" d="M98.21,130.25c-3.38,0-6.68-1.6-9.84-4.76-5.15-.21-8.92-1.79-10.66-4.49-.9-1.39-1.66-3.73-.42-7.15A8.58,8.58,0,0,1,78,103.64a6.11,6.11,0,0,1,6.87-1.76c5.74-3.84,9.08-3.3,10.88-2.12a6.07,6.07,0,0,1,2.58,4.42,10.7,10.7,0,0,1,6.57-6.26c6.77-2.32,15.84,1.54,19.8,8.43,1.79,3.12,4.87,11.33-5.31,20.14l-.09.07c-4.36,3.27-9.46,1.63-12.36-.16a12.91,12.91,0,0,1-8.13,3.84ZM82.61,104.5a3.33,3.33,0,0,0-2.39,1.17,5.64,5.64,0,0,0,0,7.11l.51.7-.35.79c-.9,2.1-1,3.81-.13,5.08,1.23,1.9,4.43,3,8.8,3.11h.64l.44.46c2.81,3,5.65,4.42,8.44,4.27,4.07-.19,6.86-3.71,6.89-3.74v0a9.35,9.35,0,0,1-8.21-6.8l0-.25a30.84,30.84,0,0,1-.27-5.94,4.51,4.51,0,0,1-2.9,2c-1.48.26-3.73-.24-6.09-4.1l-.12-.19-.06-.22a2.87,2.87,0,0,1,1.81-3.73,3.92,3.92,0,0,1,4.67,2.12l-2.85,1a1.23,1.23,0,0,0-.65-.28C92,109,93,109.58,93.52,109.48s1.34-1.06,1.67-2.65.11-3.7-1.15-4.52c-1.52-1-4.5-.06-8.19,2.56l-.79.56-.85-.47A3.12,3.12,0,0,0,82.61,104.5ZM108,123.44c1.22.86,5.61,3.53,9.43.71,6-5.22,7.66-11,4.63-16.28-3.17-5.51-10.88-8.88-16.17-7.07-4.73,1.63-6.72,7-5.62,15a6.38,6.38,0,0,0,5.87,4.59c3.35.23,6.81-1.51,8-4.08,1.06-2.2.39-4.73-1.93-7.32a3,3,0,0,0-3.88.46c-1.06,1.06-1.34,2.49-1.06,3,.12.2.7.3,1.69,0l.85,2.93c-3.35,1-4.73-.66-5.16-1.4-1.09-1.85-.43-4.71,1.54-6.67a6.08,6.08,0,0,1,7.76-.82l.19.12.15.16c4.48,4.86,3.55,8.9,2.6,10.88C115.37,120.82,111.81,123,108,123.44Z"/><path class="cls-1" d="M7.83,135.67c-1.56,0-3.61-.69-5.42-3.55C.22,128.65.68,123.64,3.53,120c5.69-7.38,16.54-5.93,22.69-4.33l-.06-.36,0-.24c0-3.94,1.05-6.36,3.17-7.18,3.22-1.26,7.17,2.07,7.81,2.77l2.81,3.1A12.2,12.2,0,0,0,42,110.76c1.27-2.3,2.53-3.94,6.27-3.53.53-5.9,3.36-10.78,7.77-13.28a13.36,13.36,0,0,1,12.14-.43c1.27-4.5,4.15-8,8-9.45s8.35-.87,12.51,1.9c3.91-4.46,8.23-6.88,12.56-7s8.37,1.83,12.31,5.87a12,12,0,0,1,10.93,2.37,8.7,8.7,0,0,1,2.94,6.9,12.4,12.4,0,0,1,9.51,7.81c1.69,4.43.58,9-3,12.72a7.94,7.94,0,0,1,.09,9.91,8.46,8.46,0,0,1-8.13,3.32,12.62,12.62,0,0,1-8.23,6.72A13.54,13.54,0,0,1,106.11,132c-9.14,6.76-17.28,2-23.86-1.9-4.86-2.86-9.07-5.34-13.15-3.86-18.41,8.51-19.07,8.56-34.94,3.08-4-1.39-9-3.12-15.62-5.15C12,123.49,8.75,125.55,8,127.55a1.74,1.74,0,0,0,.29,2c.44.3,1.47.17,2.91-1.14l1.83-1.67.67,2.39c.58,2.11-1.14,5-3.69,6.07A5.5,5.5,0,0,1,7.83,135.67Zm9.22-18.34c-6.71,0-9.87,2.87-11.11,4.48-2.32,3-2.23,6.65-1,8.69.93,1.48,1.92,2.19,3,2.14a3.94,3.94,0,0,1-1.35-.56,4.69,4.69,0,0,1-1.45-5.58C5.73,125,8.41,120,19,121.19l.28.06c4.48,1.37,8.23,2.61,11.43,3.7A13,13,0,0,1,27.05,119,34.43,34.43,0,0,0,17.05,117.33Zm54.55,5.46c4.18,0,8.24,2.39,12.2,4.72,6.92,4.07,13.46,7.92,21.36,1.4l1-.82,1,.85a10.77,10.77,0,0,0,9.71,2.68,9.74,9.74,0,0,0,6.72-6.22l.61-1.62,1.54.82c1.65.9,4.32,0,5.83-1.94,1.66-2.13,1.33-4.74-.89-7.14l-1.06-1.15,1.18-1c4.72-4.11,4.08-8.25,3.27-10.34a9.29,9.29,0,0,0-8.35-6l-1.93,0,.42-1.88a5.72,5.72,0,0,0-1.78-5.72A9.11,9.11,0,0,0,113.53,88l-.94.31-.66-.72c-3.52-3.82-7.11-5.7-10.63-5.58-4.75.16-8.72,3.89-11.21,7l-.94,1.17L88,89.23c-3.62-2.79-7.43-3.62-10.73-2.33S71.46,91.62,70.73,96l-.36,2.18-1.91-1.11c-3.73-2.19-7.61-2.36-10.93-.48-3.89,2.2-6.25,6.85-6.32,12.44l0,1.89-1.84-.42c-3.32-.76-3.64-.19-4.69,1.72s-2.81,5.09-8.49,7.17c-3.2,1.06-4.82-.6-5.37-1.36a5.57,5.57,0,0,1,.13-6.35,4.52,4.52,0,0,1,.89-.91,2.14,2.14,0,0,0-1.41-.1c-.77.3-1.22,1.87-1.23,4.2.75,4.38,2.25,7.17,4.61,8.52,4.64,2.67,12.62-.37,20.34-3.31,9.38-3.58,19.09-7.28,25.34-2.07l-2,2.34c-4.88-4.07-13.74-.69-22.31,2.57-5.88,2.24-11.9,4.54-17,4.54h-.16c12.21,4.16,13.34,3.63,29.82-4l.12,0A10.27,10.27,0,0,1,71.6,122.79Zm-37-9.89a1.37,1.37,0,0,0-1.19.6,2.58,2.58,0,0,0-.12,2.76c.13.18.53.72,1.91.27a14.27,14.27,0,0,0,4-2.18l-3.72-1.27A2.79,2.79,0,0,0,34.57,112.9Z"/><path class="cls-1" d="M70.28,92.37c-4.36,0-12.26-2.08-15-10.23-1.8-6.44,1.88-10,4.08-11l3.55-1.59L61.4,73.16c-.65,1.54-2,6-.39,8.1.88,1.15,2.71,1.55,5.44,1.19,5.29-.7,7.19-2.51,9-4.25,2-1.9,3.91-3.7,9-3.07A9,9,0,0,1,87,69.26a7.11,7.11,0,0,1,4.15-1.84,12.94,12.94,0,0,1,5.5-11.5,11.11,11.11,0,0,1,11.43-.6c15.67-10.22,28.55-6.54,34.44,1.78a17.65,17.65,0,0,1,3.19,12.52,17.39,17.39,0,0,1-7.23,11.9l-.11.07c-7.61,4.69-16.83,1.88-21.65-3.15-4.33-4.51-4.92-10.17-1.58-15.15,2.88-5,8.87-5.91,13.08-4.14s6.22,5.75,5,10.07c-1.44,4.78-4.14,5.51-5.61,5.52h0a5.83,5.83,0,0,1-5.25-4.06,4.56,4.56,0,0,1,1.82-5.33l1.74,2.49a1.57,1.57,0,0,0-.66,1.92,2.82,2.82,0,0,0,2.35,1.94h0c1.08,0,2.07-1.23,2.72-3.35A5.11,5.11,0,0,0,127.05,62c-3-1.27-7.28-.69-9.27,2.87l-.07.11c-3.63,5.36-.36,9.75,1.22,11.4,4,4.21,11.79,6.36,17.8,2.7a14.23,14.23,0,0,0,3.32-20.18c-7.12-10-20.72-7.49-31-.5l-.81.55-.83-.51a8.13,8.13,0,0,0-9,.05c-3.13,2.09-4.67,6-4,10.22l.28,1.87-1.88-.12a4.7,4.7,0,0,0-3.65,1.06c-1.1,1-1.65,2.86-1.65,5.43v1.86l-1.83-.37c-4.87-1-6.06.14-8,2s-4.45,4.22-10.72,5.06c-3.14.42-5.55,0-7.2-1.3,3.72,5.43,10.8,5.15,11.15,5.14l.16,3Z"/><path class="cls-1" d="M116,86.17h-3c0-2.15-.41-3.56-1.18-4-1-.55-3,.37-3.82.9l-1.69-2.53c.4-.27,4-2.61,6.94-1C115,80.5,116,82.74,116,86.17Z"/><path class="cls-1" d="M120.53,86.42l-3-.51c.89-5.26-1.8-9-4.93-10.07-3.34-1.1-6.66.9-8.89,5.33L101,79.81c3.49-7,8.78-8.11,12.56-6.87C117.91,74.38,121.71,79.47,120.53,86.42Z"/><path class="cls-1" d="M153,88.66a9.26,9.26,0,0,1-4.47-1.12c-3.32-1.85-5.44-6.15-2.69-11.59l.11-.22.18-.18a5.83,5.83,0,0,1,5.93-1.72,4.87,4.87,0,0,1,3.33,3.72,4.2,4.2,0,0,1-1.77,4.13l-1.83-2.44a1.19,1.19,0,0,0,.6-1.18,1.84,1.84,0,0,0-1.27-1.33,2.76,2.76,0,0,0-2.68.82c-1.52,3.2-.95,5.92,1.57,7.33,2.72,1.5,6.9.81,9.29-2.92,1.71-6.59-2.14-9.68-3.89-10.71-3.48-2-8-1.77-10.44.65l-2.12-2.18c3.48-3.4,9.41-3.86,14.1-1.09,4.94,2.91,6.89,8.27,5.23,14.34l-.06.21-.11.18A10.51,10.51,0,0,1,153,88.66Z"/><path class="cls-1" d="M159.39,99a6.1,6.1,0,0,1-4.14-1.64c-2.82.87-11,2.5-16.33-5.34a17.6,17.6,0,0,1-6.66,6.78l-1.34-2.73a16.07,16.07,0,0,0,6.5-7.84l1.31-3.08,1.46,3c5,10.17,14.45,6.22,14.85,6l1-.43.74.81c2.63,2.91,5.77.94,12.29-4.26,4.78-3.8,10.2-8.15,16.07-8.07h.11c3.94.3,6.92,2.2,7.24,4.63a3.41,3.41,0,0,1-.68,2.48,3.52,3.52,0,0,0,1.76-2c.85-2.59.42-4.67-1.3-6.21-3.44-3.07-11.38-3.45-17-.82l-1.47.69-.6-1.51a6.48,6.48,0,0,0-3.74-4.07c-3.62-1.35-8.27,1-8.31,1l-1.42-2.7c.24-.12,5.85-3,10.79-1.17A9,9,0,0,1,175.41,77c6.6-2.51,14.8-1.75,18.89,1.9,2.65,2.37,3.4,5.74,2.13,9.51l0,.11a6.17,6.17,0,0,1-3.89,3.87,6.75,6.75,0,0,1-5.31-1l-2.41-1.7,2.79-1c1.5-.53,1.92-1.12,1.9-1.33-.07-.48-1.42-1.74-4.4-2h0c-4.78,0-9.72,3.94-14.09,7.42C167.06,95.84,163.07,99,159.39,99Z"/><path class="cls-1" d="M205.46,126.56c-6.23,0-13-2.13-19.55-7.21-12.72-9.94-27-5.79-28.59-5.28a8.43,8.43,0,0,0-.92.73c-7.53,6.8-21.76,5.79-22.37,5.75l.24-3c.13,0,13.54.95,20.08-5,7.47-6.76,27.05-6.27,42.06,4.51a9.72,9.72,0,0,0,9.82.16c2.92-1.54,4.69-4.09,4.74-6.82a4.49,4.49,0,0,0-2.32-4,5.58,5.58,0,0,0-5.29-.35,3.82,3.82,0,0,0-1.83,3.58c0,.9.42,1.09.55,1.15a2.42,2.42,0,0,0,2.2-.42c.13-.1.53-.44.47-.77l-.46-2.53,2.44.82c1.84.61,2.53,3.47,2,5.66-.32,1.31-1.95,5.52-9.42,4.34a6.82,6.82,0,0,1-5.42-4.58c-1.61-4.23-.28-10.15,3.22-14.4,2.27-2.75,7.42-7.14,16.43-5.6,8.45,1.45,13.63,4.65,15.38,9.52,1.64,4.53,0,10.15-4.55,15.43A24.84,24.84,0,0,1,205.46,126.56ZM181.65,113.1a35.08,35.08,0,0,1,6.14,3.85c13.1,10.23,27.43,7.29,34.26-.67,3.79-4.42,5.25-9,4-12.42-1.34-3.7-5.85-6.31-13-7.55-5.55-1-10.37.66-13.56,4.53s-3.77,8.64-2.73,11.39a3.81,3.81,0,0,0,3.05,2.65c3,.47,5,0,5.74-1.4a2.26,2.26,0,0,0,.18-.39,5.36,5.36,0,0,1-4.92.45,4.12,4.12,0,0,1-2.28-3.88,6.87,6.87,0,0,1,3.39-6.26,8.51,8.51,0,0,1,8.34.4,7.47,7.47,0,0,1,3.79,6.64c-.07,3.87-2.45,7.4-6.36,9.46a12.74,12.74,0,0,1-13-.35A46,46,0,0,0,181.65,113.1Z"/><path class="cls-1" d="M177.72,42.82a6.84,6.84,0,0,1-2.46-.51c-3.59-1.39-6.4-6.31-5.79-10.13A4.94,4.94,0,0,1,173.16,28c.05-4.09,1.57-6,2.92-6.87a5.69,5.69,0,0,1,4.53-.63,6.35,6.35,0,0,1,4.84-3.88,7.86,7.86,0,0,1,5.89-3c2-3.94,5.94-6.67,9.85-6.65,3.15,0,5.78,1.84,7.34,5a7.91,7.91,0,0,1,6.82,3.27,5.92,5.92,0,0,1,.18,6.58c1.93,2.14,2.26,5.91,1.19,8.72a6.18,6.18,0,0,1-6.55,4.27c-6.09,9.12-15.07,5.78-22.31,3.08-3.56-1.32-6.32-2.3-8.37-2.19a4,4,0,0,1,1.56,5A3.43,3.43,0,0,1,177.72,42.82Zm1.95-10.13c2.83,0,6.07,1.2,9.25,2.39,7.4,2.76,14.39,5.36,19.19-2.67l.57-.95,1.07.25a3.21,3.21,0,0,0,4.13-2.21c.85-2.26.29-5.24-1.13-6l-1.63-.89,1.19-1.42c1.24-1.49,1.43-2.88.54-4.15a4.64,4.64,0,0,0-4.72-1.84l-1.41.5-.52-1.4c-1-2.75-2.77-4.21-5-4.23h-.06c-3,0-6,2.38-7.36,5.67l-.4,1-1.08-.05A5,5,0,0,0,187,20.25c-.88,2.68-.12,6.58,2.67,8.46a4.81,4.81,0,0,0,4.92.23A4.08,4.08,0,0,0,197,26a2.31,2.31,0,0,0-1.31-2c-1.07-.37-1.87-.38-2.14,0a1.17,1.17,0,0,0-.19.64l2.58,1.46C194.3,29,192.37,28.16,192,28c-1.52-.77-2.16-3.17-1.35-5,.74-1.68,2.76-3,6.23-1.73l.26.13A5.24,5.24,0,0,1,200,26.11a7,7,0,0,1-4.12,5.55,7.77,7.77,0,0,1-8-.44,10.62,10.62,0,0,1-4.28-9.9,5.51,5.51,0,0,0-.57,1.53l-.42,1.95-1.77-.93a3.13,3.13,0,0,0-3.12-.15c-1.15.74-1.68,2.7-1.5,5.51l.1,1.53-1.54.08c-1.42.07-2.13.64-2.32,1.82a6.48,6.48,0,0,0,1,4.06,3.32,3.32,0,0,1,.2-.66l.11-.19A6.5,6.5,0,0,1,179.67,32.69Zm-3,4.41a1.81,1.81,0,0,0,.59.17l-.11-.67A3.81,3.81,0,0,0,176.63,37.1Z"/><path class="cls-1" d="M151.61,35.88a10.09,10.09,0,0,1-4.13-.87l-.15-.08c-3.22-1.85-4.88-4.74-4.44-7.72a5.4,5.4,0,0,1,3.85-4.59,4.57,4.57,0,0,1,4.83,2.26l1.53,2.23-2.7.15a6.54,6.54,0,0,0-1.47.2,6.09,6.09,0,0,0,2.81,1.46A2.55,2.55,0,0,0,154,28.7l.06-.05a13.9,13.9,0,0,0,3.22-4.34c1.15-2.14,2.43-4.53,6.31-3.85A9.55,9.55,0,0,1,169,13.59a10.58,10.58,0,0,1,9.08.69c2.28-3,7.49-6.15,15.9-2.49l-1.21,2.79c-9.59-4.16-12.7,2.18-12.83,2.45l-.79,1.69-1.49-1.11a7.8,7.8,0,0,0-7.47-1.22c-2.15.91-3.5,3-3.9,6.14L166,24.37l-1.76-.59c-2.77-.94-3.07-.38-4.33,2a16.44,16.44,0,0,1-3.9,5.19c-2,1.83-5.25,1.27-7.63-.1a5.82,5.82,0,0,1-2.54-2.54c.06,1.48,1.09,2.89,2.91,3.95,3,1.28,5.62.27,8.69-.9,4-1.53,8.62-3.27,14.28.48l-1.68,2.54c-4.36-2.89-7.68-1.63-11.52-.17A19.54,19.54,0,0,1,151.61,35.88Z"/><path class="cls-1" d="M203.14,44.6c-3.56,0-8.79-1.33-15.28-6.74l1.95-2.34c7.85,6.55,13.27,6.4,15.8,5.73a6.69,6.69,0,0,0,4.74-4.06l.37-1h1.07c5.46,0,9-2.21,9.69-6.16.56-3.3-1.12-6.93-3.59-7.77l-1.72-.59.89-1.59a4.7,4.7,0,0,0,.07-4.8,6,6,0,0,0-5.26-2.76h-1l-.38-1a4.68,4.68,0,0,0-2.79-3c-2.91-1-6.77,1.26-6.81,1.28l-1.56-2.61c.2-.12,5.08-3,9.34-1.55a7.36,7.36,0,0,1,4.25,3.86,9,9,0,0,1,6.88,4.21,7.57,7.57,0,0,1,.61,6.37c3,1.95,4.82,6.26,4.12,10.44-.89,5.23-5.24,8.42-11.72,8.68a9.82,9.82,0,0,1-6.38,5A12.77,12.77,0,0,1,203.14,44.6Z"/><path class="cls-1" d="M767.79,130.25h-.55a12.91,12.91,0,0,1-8.13-3.84c-2.9,1.79-8,3.43-12.36.16l-.08-.07c-10.19-8.81-7.11-17-5.32-20.14,4-6.89,13-10.75,19.8-8.43a10.7,10.7,0,0,1,6.57,6.26,6.07,6.07,0,0,1,2.58-4.42c1.8-1.18,5.14-1.72,10.88,2.12a6.1,6.1,0,0,1,6.87,1.76,8.58,8.58,0,0,1,.66,10.21c1.24,3.42.48,5.76-.42,7.15-1.74,2.7-5.51,4.28-10.66,4.49C774.47,128.65,771.17,130.25,767.79,130.25Zm-7.27-6.81v0s2.82,3.55,6.89,3.74c2.8.15,5.63-1.3,8.44-4.27l.44-.46h.64c4.37-.08,7.57-1.21,8.8-3.11.82-1.27.77-3-.13-5.08l-.35-.79.51-.7a5.64,5.64,0,0,0,0-7.11,3.06,3.06,0,0,0-4-.71l-.85.47-.79-.56c-3.69-2.62-6.67-3.55-8.19-2.56-1.26.82-1.48,2.92-1.15,4.52s1.1,2.55,1.67,2.65,1.54-.48,2.76-2.35a1.16,1.16,0,0,0-.66.3l-2.84-1.07a3.92,3.92,0,0,1,4.67-2.12,2.87,2.87,0,0,1,1.81,3.73l-.06.22-.12.19c-2.36,3.86-4.61,4.36-6.09,4.1a4.51,4.51,0,0,1-2.9-2,30.84,30.84,0,0,1-.27,5.94l0,.25A9.35,9.35,0,0,1,760.52,123.44Zm-11.9.71c3.81,2.82,8.2.15,9.43-.71-3.86-.4-7.42-2.62-8.94-5.76-1-2-1.88-6,2.6-10.88l.15-.16.19-.12a6.07,6.07,0,0,1,7.76.82c2,2,2.63,4.82,1.54,6.67-.43.74-1.81,2.36-5.16,1.4l.85-2.93c1,.29,1.57.19,1.69,0,.28-.48,0-1.91-1.06-3a3,3,0,0,0-3.88-.46c-2.32,2.59-3,5.12-1.93,7.32,1.24,2.57,4.7,4.33,8,4.08a6.38,6.38,0,0,0,5.87-4.59c1.1-8.08-.89-13.42-5.62-15-5.29-1.81-13,1.56-16.17,7.07C741,113.14,742.6,118.93,748.62,124.15Z"/><path class="cls-1" d="M858.17,135.67a5.5,5.5,0,0,1-2.2-.46c-2.55-1.12-4.27-4-3.69-6.07l.67-2.39,1.83,1.67c1.44,1.31,2.47,1.44,2.91,1.14a1.74,1.74,0,0,0,.29-2c-.73-2-3.93-4.07-10.52-3.35-6.61,2-11.6,3.76-15.62,5.15-15.87,5.48-16.53,5.43-34.94-3.08-4.08-1.48-8.29,1-13.15,3.86-6.58,3.87-14.72,8.66-23.86,1.9a13.53,13.53,0,0,1-11.46,2.54,12.61,12.61,0,0,1-8.24-6.72,8.46,8.46,0,0,1-8.13-3.32,7.94,7.94,0,0,1,.09-9.91c-3.62-3.73-4.73-8.29-3-12.72a12.4,12.4,0,0,1,9.51-7.81,8.7,8.7,0,0,1,2.94-6.9,12,12,0,0,1,10.93-2.37c3.94-4,8.09-6,12.31-5.87s8.65,2.56,12.56,7c4.16-2.77,8.56-3.45,12.51-1.9s6.69,5,8,9.45A13.36,13.36,0,0,1,810,94c4.41,2.5,7.24,7.38,7.77,13.28,3.75-.41,5,1.23,6.27,3.53a11.77,11.77,0,0,0,2.07,2.94l2.8-3.09c.64-.7,4.58-4,7.81-2.77,2.12.82,3.19,3.24,3.17,7.18l0,.24-.06.36c6.16-1.6,17-3.05,22.69,4.33,2.85,3.69,3.31,8.7,1.12,12.17C861.78,135,859.73,135.67,858.17,135.67Zm-.12-3c1,.05,2-.66,3-2.14,1.28-2,1.37-5.68-1-8.69-1.74-2.26-7.27-7-21.11-2.79a13,13,0,0,1-3.68,5.93c3.2-1.09,7-2.33,11.43-3.7l.28-.06c10.61-1.2,13.29,3.76,13.86,5.31a4.69,4.69,0,0,1-1.45,5.58A4,4,0,0,1,858.05,132.64Zm-98.21-4.55,1,.82c7.9,6.52,14.44,2.67,21.36-1.4,5.09-3,10.36-6.1,15.81-4.08l.12,0c16.48,7.62,17.61,8.15,29.82,4-5.16.06-11.22-2.27-17.16-4.54-8.57-3.26-17.43-6.63-22.31-2.57l-2-2.34c6.25-5.2,16-1.51,25.34,2.07,7.72,2.94,15.7,6,20.34,3.31,2.36-1.35,3.86-4.14,4.61-8.52,0-2.33-.46-3.9-1.23-4.2a2.14,2.14,0,0,0-1.41.1,4.52,4.52,0,0,1,.89.91,5.57,5.57,0,0,1,.13,6.35c-.55.76-2.17,2.42-5.33,1.38-5.72-2.1-7.41-5.16-8.53-7.19s-1.37-2.48-4.69-1.72l-1.84.42,0-1.89c-.07-5.59-2.43-10.24-6.32-12.44-3.32-1.88-7.2-1.71-10.93.48l-1.91,1.11L795.27,96c-.73-4.39-3.17-7.79-6.51-9.11s-7.11-.46-10.73,2.33l-1.18.92L775.91,89c-2.49-3.1-6.46-6.83-11.21-7-3.51-.12-7.11,1.76-10.63,5.58l-.66.72-.94-.31a9.11,9.11,0,0,0-8.87,1.47,5.72,5.72,0,0,0-1.78,5.72l.42,1.88-1.93,0a9.21,9.21,0,0,0-8.35,6c-.81,2.09-1.45,6.23,3.27,10.34l1.18,1-1.06,1.15c-2.22,2.4-2.55,5-.89,7.14,1.51,2,4.18,2.84,5.83,1.94l1.54-.82.61,1.62a9.74,9.74,0,0,0,6.72,6.22,10.77,10.77,0,0,0,9.71-2.68Zm66.95-13.75a13.9,13.9,0,0,0,4.09,2.2c1.33.44,1.72-.1,1.86-.28a2.58,2.58,0,0,0-.12-2.76c-.17-.23-.68-.91-2.12-.42Z"/><path class="cls-1" d="M795.72,92.37l-.68,0,.16-3c.34,0,7.37.29,11.11-5.11-1.65,1.26-4,1.69-7.16,1.27-6.27-.84-8.74-3.18-10.72-5.06s-3.17-3-8-2l-1.83.37V76.91c0-2.57-.56-4.4-1.66-5.43a4.7,4.7,0,0,0-3.64-1.06l-1.88.12.28-1.87c.65-4.22-.89-8.13-4-10.22a8.13,8.13,0,0,0-9-.05l-.83.51-.81-.55c-10.31-7-23.91-9.55-31,.5A14.23,14.23,0,0,0,729.27,79c6,3.66,13.77,1.51,17.8-2.7,1.58-1.65,4.85-6,1.22-11.4l-.07-.11c-2-3.56-6.26-4.14-9.27-2.87a5.11,5.11,0,0,0-3.21,6.4c.64,2.11,1.63,3.33,2.71,3.34h0a2.82,2.82,0,0,0,2.35-1.94,1.57,1.57,0,0,0-.66-1.92l1.74-2.49a4.56,4.56,0,0,1,1.82,5.33,5.84,5.84,0,0,1-5.28,4.06c-1.47,0-4.17-.74-5.61-5.51-1.27-4.33.68-8.28,4.95-10.08s10.21-.91,13.08,4.14c3.34,5,2.75,10.64-1.58,15.15-4.82,5-14,7.84-21.65,3.15l-.11-.07a17.39,17.39,0,0,1-7.23-11.9,17.65,17.65,0,0,1,3.19-12.52c5.89-8.32,18.77-12,34.44-1.78a11.11,11.11,0,0,1,11.43.6,12.94,12.94,0,0,1,5.5,11.5A7.11,7.11,0,0,1,779,69.26a9,9,0,0,1,2.53,5.87c5.09-.63,7,1.17,9,3.07,1.84,1.74,3.74,3.55,9,4.25,2.73.36,4.56,0,5.44-1.19,1.6-2.11.26-6.56-.39-8.1l-1.51-3.56,3.53,1.58c2.2,1,5.88,4.52,4.1,10.88C808,90.29,800.08,92.37,795.72,92.37Z"/><path class="cls-1" d="M750,86.17c0-3.43.93-5.67,2.8-6.67,2.91-1.56,6.54.78,6.94,1l-1.69,2.53c-.8-.53-2.79-1.45-3.82-.9-.77.42-1.19,1.83-1.18,4Z"/><path class="cls-1" d="M745.47,86.42c-1.18-7,2.62-12,7-13.48,3.78-1.23,9.07-.09,12.56,6.87l-2.72,1.36c-2.23-4.43-5.56-6.43-8.89-5.33-3.12,1-5.82,4.81-4.93,10.07Z"/><path class="cls-1" d="M713,88.66a10.51,10.51,0,0,1-9-5.3l-.11-.18-.06-.21c-1.66-6.07.29-11.43,5.23-14.34,4.69-2.77,10.62-2.31,14.1,1.09L721,71.9c-2.48-2.42-7-2.7-10.44-.65-1.75,1-5.6,4.12-3.89,10.71,2.39,3.73,6.57,4.43,9.29,2.92,2.52-1.41,3.09-4.13,1.57-7.33a2.76,2.76,0,0,0-2.68-.82,1.84,1.84,0,0,0-1.27,1.33,1.19,1.19,0,0,0,.6,1.18l-1.83,2.44a4.2,4.2,0,0,1-1.77-4.13,4.87,4.87,0,0,1,3.33-3.72,5.8,5.8,0,0,1,5.93,1.72l.18.18.11.22c2.75,5.44.63,9.74-2.69,11.59A9.26,9.26,0,0,1,713,88.66Z"/><path class="cls-1" d="M706.61,99c-3.68,0-7.67-3.18-11.57-6.28-4.37-3.48-9.31-7.42-14.09-7.42h0c-3,.24-4.33,1.5-4.4,2,0,.21.4.8,1.9,1.33l2.79,1-2.41,1.7a6.74,6.74,0,0,1-5.31,1,6.17,6.17,0,0,1-3.89-3.87l0-.11c-1.27-3.77-.52-7.14,2.13-9.51,4.1-3.65,12.29-4.41,18.89-1.9a9,9,0,0,1,4.87-4.39c4.93-1.85,10.55,1,10.79,1.17l-1.41,2.7c-.05,0-4.67-2.39-8.33-1a6.52,6.52,0,0,0-3.73,4.07l-.6,1.51-1.47-.69c-5.6-2.63-13.54-2.25-17,.82-1.72,1.54-2.15,3.62-1.3,6.21a3.52,3.52,0,0,0,1.76,2,3.41,3.41,0,0,1-.68-2.48c.32-2.43,3.3-4.33,7.24-4.63h.2c5.84,0,11.23,4.29,16,8.07,6.52,5.2,9.66,7.17,12.29,4.26l.74-.82,1,.44c.4.18,9.88,4.12,14.85-6l1.46-3,1.31,3.08a16.12,16.12,0,0,0,6.51,7.85l-1.35,2.72A17.6,17.6,0,0,1,727.08,92c-5.37,7.84-13.51,6.21-16.33,5.34A6.1,6.1,0,0,1,706.61,99Z"/><path class="cls-1" d="M660.54,126.56a24.84,24.84,0,0,1-18.9-8.3c-4.53-5.28-6.19-10.9-4.55-15.43,1.75-4.87,6.93-8.07,15.38-9.52,9-1.54,14.16,2.85,16.43,5.6,3.5,4.25,4.83,10.17,3.22,14.4a6.82,6.82,0,0,1-5.42,4.58c-7.47,1.18-9.1-3-9.42-4.34-.54-2.19.15-5,2-5.66l2.44-.82-.46,2.53c-.06.33.34.67.47.77a2.45,2.45,0,0,0,2.2.42c.13-.06.52-.25.55-1.22a3.78,3.78,0,0,0-1.83-3.51,5.58,5.58,0,0,0-5.29.35,4.49,4.49,0,0,0-2.32,4c.05,2.73,1.82,5.28,4.74,6.82a9.72,9.72,0,0,0,9.87-.2c15-10.73,34.53-11.23,42-4.47,6.54,5.92,20,5,20.08,5l.24,3c-.61,0-14.85,1-22.37-5.75a9.38,9.38,0,0,0-.91-.73c-1.59-.5-15.91-4.63-28.6,5.28C673.58,124.43,666.77,126.56,660.54,126.56ZM656,96.05a18.91,18.91,0,0,0-3,.26c-7.19,1.24-11.7,3.85-13,7.55-1.25,3.47.21,8,4,12.42,6.83,8,21.16,10.9,34.26.67a34.55,34.55,0,0,1,6.18-3.87,45.55,45.55,0,0,0-13,6.44,12.77,12.77,0,0,1-13,.38c-3.91-2.06-6.29-5.59-6.36-9.46a7.47,7.47,0,0,1,3.79-6.64,8.51,8.51,0,0,1,8.34-.4,6.83,6.83,0,0,1,3.39,6.19,4.15,4.15,0,0,1-2.28,4,5.36,5.36,0,0,1-4.92-.45,2.26,2.26,0,0,0,.18.39c.74,1.37,2.78,1.87,5.74,1.4a3.81,3.81,0,0,0,3-2.65c1-2.75.44-7.54-2.73-11.39A13.2,13.2,0,0,0,656,96.05Z"/><path class="cls-1" d="M673.6,42.8a3.42,3.42,0,0,1-3.34-2.09,4,4,0,0,1,1.56-5c-2-.1-4.81.87-8.37,2.2-7.25,2.7-16.22,6-22.31-3.09a6.18,6.18,0,0,1-6.55-4.27c-1.07-2.81-.75-6.57,1.19-8.72a5.92,5.92,0,0,1,.18-6.57A7.9,7.9,0,0,1,642.78,12c1.56-3.17,4.19-5,7.34-5h.09c3.85,0,7.81,2.73,9.76,6.64a7.86,7.86,0,0,1,5.89,3,6.39,6.39,0,0,1,4.84,3.89,5.61,5.61,0,0,1,4.53.63c1.35.87,2.88,2.77,2.92,6.87a4.92,4.92,0,0,1,3.69,4.14c.61,3.82-2.2,8.75-5.79,10.13A6.84,6.84,0,0,1,673.6,42.8Zm-31-11.35.57.95c4.8,8,11.79,5.42,19.19,2.66,5.81-2.16,11.83-4.4,15.15.79l.11.19a3.32,3.32,0,0,1,.2.66,6.48,6.48,0,0,0,1-4.06c-.19-1.18-.9-1.74-2.32-1.81L675,30.75l.1-1.54c.18-2.81-.35-4.77-1.5-5.51a3.14,3.14,0,0,0-3.12.16l-1.77.92-.42-2a5.59,5.59,0,0,0-.57-1.54,10.63,10.63,0,0,1-4.29,9.92,7.77,7.77,0,0,1-8,.43,7,7,0,0,1-4.12-5.55,5.27,5.27,0,0,1,2.88-4.77l.26-.12c3.47-1.3,5.49,0,6.23,1.73.81,1.87.17,4.27-1.35,5-.37.18-2.3,1-3.92-1.87L658,24.63a1.17,1.17,0,0,0-.19-.64c-.27-.37-1.07-.37-2.14,0a2.29,2.29,0,0,0-1.31,2,4.08,4.08,0,0,0,2.44,3,4.79,4.79,0,0,0,4.91-.22,7.71,7.71,0,0,0,2.68-8.46,5,5,0,0,0-5.31-3.58l-1.08.05-.4-1c-1.31-3.3-4.4-5.68-7.36-5.68h-.06c-2.27,0-4,1.49-5,4.23l-.52,1.4-1.41-.5A4.65,4.65,0,0,0,638.46,17c-.88,1.27-.7,2.67.54,4.15l1.19,1.43-1.62.88c-1.43.79-2,3.77-1.14,6a3.21,3.21,0,0,0,4.13,2.21Zm31.57,5.14-.11.66a1.59,1.59,0,0,0,.59-.17A3.72,3.72,0,0,0,674.2,36.59Z"/><path class="cls-1" d="M699.7,35.87a19.6,19.6,0,0,1-6.94-1.69c-3.84-1.46-7.16-2.72-11.52.17l-1.68-2.54c5.66-3.75,10.24-2,14.28-.47,3.07,1.16,5.72,2.17,8.69.9,1.82-1.07,2.85-2.48,2.91-4a5.72,5.72,0,0,1-2.54,2.54c-2.38,1.38-5.66,1.94-7.63.1a16.44,16.44,0,0,1-3.9-5.19c-1.26-2.34-1.56-2.9-4.33-2l-1.76.59L685,22.52c-.4-3.11-1.75-5.23-3.9-6.15a7.82,7.82,0,0,0-7.47,1.22l-1.49,1.11L671.39,17c-.13-.26-3.33-6.58-12.83-2.45l-1.21-2.8c8.41-3.65,13.62-.52,15.9,2.49a10.65,10.65,0,0,1,9.08-.69,9.55,9.55,0,0,1,5.41,6.87c3.88-.68,5.16,1.71,6.31,3.85a14.06,14.06,0,0,0,3.22,4.34l.06.05a2.54,2.54,0,0,0,2.24.23,6.29,6.29,0,0,0,2.81-1.46,6.18,6.18,0,0,0-1.46-.21l-2.71-.15,1.53-2.23c1.26-1.85,3-2.67,4.83-2.25a5.37,5.37,0,0,1,3.85,4.58c.44,3-1.22,5.87-4.44,7.73l-.15.07A10.11,10.11,0,0,1,699.7,35.87Z"/><path class="cls-1" d="M648.17,44.58a12.33,12.33,0,0,1-3.25-.41,9.82,9.82,0,0,1-6.38-5c-6.48-.26-10.83-3.45-11.71-8.68-.71-4.17,1.08-8.49,4.11-10.44a7.55,7.55,0,0,1,.61-6.36,9,9,0,0,1,6.88-4.21,7.34,7.34,0,0,1,4.25-3.87C647,4.2,651.82,7.08,652,7.2l-1.56,2.61s-3.89-2.27-6.81-1.27a4.65,4.65,0,0,0-2.79,3l-.38,1h-1a6,6,0,0,0-5.26,2.76,4.68,4.68,0,0,0,.08,4.8l.88,1.59-1.72.59c-2.47.84-4.15,4.48-3.59,7.78.66,3.95,4.22,6.19,9.69,6.16h1.07l.37,1a6.72,6.72,0,0,0,4.74,4c2.53.67,7.95.82,15.8-5.73l2,2.34C657,43.26,651.73,44.58,648.17,44.58Z"/></svg>