<svg id="Layer_1" data-name="Layer 1" xmlns="http://www.w3.org/2000/svg" viewBox="0 0 1942 501"><defs><style>.cls-1{opacity:0.15;}.cls-2{fill:#595959;}</style></defs><title>chachi website 2 [Recovered]</title><g class="cls-1"><path class="cls-2" d="M178.58,188.78c-21.27-11.85-31.41-34.9-29.09-50.33-16.93-15.08-18.42-31.26-16.64-42.29a53.2,53.2,0,0,1,6.87-18.55c-12-8-22.16-21.67-30.34-40.79a172.23,172.23,0,0,1-7.33-20.74C88.6,46.38,78.34,62.27,51.32,77.28c-9.74,25.37-36.85,51-48.86,57.74L0,130.57c11.26-6.32,38-31.81,46.91-55.95l.33-.9.84-.46c28.23-15.47,37.62-32,52.31-66l3.2-7.41,1.64,7.9c.11.49,10.68,49.82,39.39,66.94L147,76.1l-1.69,2.26c-.92,1.25-22.2,30.87,8.59,57.18l1.16,1-.32,1.49c-2.5,11.87,5.24,34.57,26.32,46.31Z"/><path class="cls-2" d="M173.76,192.41c-9.6-2.28-20-11.63-26.61-23.83-5.16-9.58-6.85-18.91-4.7-25.77A52.13,52.13,0,0,1,121.13,102c-.11-9.27,2.62-17.12,7.37-21.34a84,84,0,0,1-27.68-40.38C89,67,82,70.77,58.09,83.88l-.51.28C46.42,115,12.27,142.27,1.71,148.2l-1-1.78c9-5,44.16-32.55,55.08-63.31l.13-.37,1.19-.65c24.24-13.27,30.75-16.84,43-45.29l1.31-3,.63,3.27c0,.24,4.81,24.1,28.67,42.87l1.06.83-1.08.79c-4.84,3.58-7.67,11.24-7.56,20.5a50,50,0,0,0,21.08,39.58l.64.45-.27.73c-2.32,6.38-.75,15.43,4.32,24.84,6.31,11.71,16.24,20.67,25.29,22.82Z"/><path class="cls-2" d="M169.49,198.48C160,196.29,148.27,185.9,141,173.21c-5.92-10.25-8-20.3-5.85-28.41-12.85-5.83-19.22-22.13-20.91-35.64-1.43-11.5.33-21.25,4.49-25.56a45.4,45.4,0,0,1-19-25.4c-8.43,18.68-13.84,21.47-27.3,28.4-2.58,1.33-5.48,2.82-8.76,4.61C54.1,128.88,3.85,157.48,1.71,158.68l-1-1.78c2.12-1.19,52-29.58,61-66.61l.11-.44.39-.21c3.46-1.9,6.51-3.47,9.19-4.85,14-7.21,18.73-9.64,27.58-30.17l1.38-3.18.57,3.42a43.77,43.77,0,0,0,19.94,27.71l1.32.79-1.24.91c-4.29,3.18-6.21,13.07-4.77,24.64,1.65,13.23,7.89,29.21,20.49,34.37l.86.35-.27.89c-2.36,7.71-.43,17.54,5.42,27.67,6.95,12,18.4,22.26,27.23,24.3Z"/><path class="cls-2" d="M23.57,230.25c-.21-13.61,5.56-29.63,5.81-30.3l.24-.66.54-.44c.78-.65,19.17-16.44,10.3-51.48l-.37-1.49,1.14-1c14.05-12.67,28.39-29.38,38.86-41.59,7.29-8.48,12.55-14.62,15.3-16.63l5.85-4.27-1.88,7c-.08.29-7.66,30.15,14.12,59.18l.37.48.1.59c.59,3.25,1,6.5,1.39,9.94,2.27,18.9,4.83,40.32,44.25,62.67l-2.52,4.44c-41.66-23.62-44.38-46.4-46.79-66.5-.38-3.15-.74-6.14-1.25-9-16.17-21.87-17-43.7-15.89-55.07-2.58,2.86-5.75,6.56-9.17,10.55-10.29,12-24.27,28.28-38.19,41,8.08,34.28-8.41,51.55-11.82,54.68-1,3-5.46,16.63-5.29,27.89Z"/><path class="cls-2" d="M145.46,224.08c-43.61-19.44-43-57.29-42.76-61.49A153.6,153.6,0,0,1,93.14,146c-5.76-11.63-8.71-21.54-8.81-29.53a42.3,42.3,0,0,0-5.92,8.62c-3.47,6-8.21,14.27-21.72,29.17,3.61,23.6-1.61,31.18-7.13,39.19-.47.69-1,1.38-1.42,2.09-5.52,8.25-3.3,21.44-3.28,21.58l-2,.35c-.1-.58-2.39-14.12,3.59-23.06.48-.72,1-1.42,1.44-2.11,5.32-7.73,10.35-15,6.72-38.2l-.07-.49.32-.36c13.61-15,18.34-23.18,21.79-29.18,2.47-4.29,4.25-7.39,8.1-10.84l1.88-1.69-.18,2.52c-1.35,19.2,17.94,47.34,18.14,47.62l.21.3,0,.37c0,.4-3.06,40,41.54,59.83Z"/><path class="cls-2" d="M135.16,224.11C95.89,210.2,96.5,169.83,96.73,165a68.83,68.83,0,0,1-15.88-29.94,60.62,60.62,0,0,0-3,5.81c-2.61,5.64-5.57,12-13.35,18.57,3.14,20.88-2,34-6.89,41.27C53.16,207.43,55,218.19,55,218.3l-2,.35c-.08-.47-2-11.67,3-19.08,4.73-7.07,9.7-19.82,6.48-40.39l-.09-.57.45-.37C70.55,151.84,73.47,145.56,76,140a43.42,43.42,0,0,1,4.5-8.14l1.4-1.84.42,2.27c3.42,18.54,16,31.47,16.14,31.6l.32.33,0,.47c0,.43-3,43.29,37.05,57.49Z"/><path class="cls-2" d="M309.37,228.42c-15.4-11.31-21.49-22.25-25.73-46.51-29.11-25.73-29-41.79-28.87-57.33,0-.61,0-1.22,0-1.83-5.75-5-14.07-17-16.76-29-2.92-2.12-4-4.71-6-9.44-1.24-2.92-2.94-6.94-5.79-12.55-4.36,13.12-17.84,21.65-34.24,32-7.44,4.71-15.82,10-24.14,16.3,0,26.18-10.82,41-11.29,41.61l-4.1-3.05c.11-.14,10.6-14.64,10.28-39.78l0-1.28,1-.78c8.83-6.76,17.69-12.37,25.51-17.33C208,87.63,221.61,79,222.54,64.07l.55-8.77,4.24,7.7a193.09,193.09,0,0,1,9.38,19.35c2.12,5,2.77,6.38,4.94,7.73l.95.58.21,1.09c2.3,11.64,11,23.82,16.09,27.78l1,.77v1.25c0,1,0,2,0,3.07-.12,15.17-.24,29.51,27.8,54l.69.6.15.9c4,23.61,9.38,33.51,23.87,44.14Z"/><path class="cls-2" d="M298.36,226.63c-19.58-14.26-21.25-37.92-21.39-41.8-21.31-14.94-27.25-25.79-31.33-57.08-9.45-6.16-18.35-30.87-20.84-38.27-6,8.69-16.88,15.75-28.42,23.19A234.48,234.48,0,0,0,177,126.09c.62,30-15.23,42.88-15.91,43.42l-1.27-1.6c.16-.13,15.91-13,15.12-42.27v-.5l.39-.32A230,230,0,0,1,195.28,111c12.13-7.83,23.59-15.23,28.93-24.36l1.16-2,.69,2.19c.11.34,10.64,33.32,21.05,39.46l.43.26.06.49c4.06,31.5,9.56,41.52,31,56.44l.44.31v.53c0,.26.16,25.82,20.56,40.69Z"/><path class="cls-2" d="M294,228.48c-16.35-11.37-19.44-25.73-21.93-37.27-.15-.68-.3-1.36-.44-2a75.06,75.06,0,0,1-32.31-58.35c-9.72-3.87-15.24-24-16.76-30.41-9.11,9.33-33.52,26.22-37.62,29,.22,2,.12,8-4.12,24.65-3.83,15.06-11.93,23.76-12.27,24.12l-1.48-1.4a57.39,57.39,0,0,0,11.78-23.23c5.13-20.16,4-24.11,4-24.26l-.21-.72.6-.47c.31-.21,31-21.21,39.12-30.5l1.35-1.56.42,2c0,.28,5.83,27.71,16.49,31l.7.22,0,.72a73,73,0,0,0,31.77,57.66l.34.23.08.39c.18.8.35,1.61.53,2.43,2.42,11.19,5.42,25.11,21.1,36Z"/><path class="cls-2" d="M276.7,253.17l-4.44-2.51c.56-1,13.71-24.91-4-35.87-9.91-6.13-26.79-30.77-30.26-46.53-3.32-2.55-6.41-10.26-12.13-25.12-2.48-6.45-5.24-13.63-8.27-20.67-3.75,3.41-8.33,6.92-20.22,15.45.33,3.05,0,10-5.62,27.51-3.46,10.89-7.32,20.72-7.36,20.82l-4.75-1.87c5.79-14.73,14.3-40.49,12.46-46.87l-.5-1.73,1.47-1.05c15.61-11.18,19.07-14,23.63-18.43l2.62-2.57,1.49,3.35c3.64,8.19,6.92,16.71,9.82,24.22,3.69,9.6,8.28,21.52,10.43,22.9l1.43.41.28,1.56c2.61,14.31,19,38.62,28.16,44.28C288.46,221.28,282.37,243.13,276.7,253.17Z"/><path class="cls-2" d="M271.67,244.88l-1.89-.78c6.22-15,.53-20-8.9-28.28C252,208,239.74,197.31,232.08,173c-11.48-2.53-16.34-31.06-17.43-38.58-2.6,2-8.2,6.33-11.19,8.79,3.32,8.13-7.5,36.57-8.79,39.9l-1.9-.73c5.09-13.17,11.58-34.39,8.56-38.85l-.52-.76.71-.6c3.63-3.06,13.19-10.37,13.29-10.44l1.42-1.09.21,1.77c1.26,10.32,6.68,37.39,16.56,38.68l.65.09.19.62c7.49,24.23,19.57,34.81,28.38,42.54C272,222.84,278.45,228.5,271.67,244.88Z"/><path class="cls-2" d="M320.59,359l-4.36-2.64c.16-.27,16.55-27.64,12.85-45.26l-.25-1.19.77-.94c20.63-25.45,23.76-36.6,23.26-53.46l-.2-6.88,4.78,5.24c17.13,18.81,29.5,32.4,44,39.41l.93.46.35,1c6.12,16.82.71,35.45-11.41,64l-4.7-2c13.07-30.75,16.1-46,11.65-59.27-13.7-6.91-25.32-19-40.34-35.43-.74,16.33-6.69,28.27-23.62,49.28C337.51,330.79,321.3,357.85,320.59,359Z"/><path class="cls-2" d="M322.56,365.05l-1.25-1.61c.25-.2,25-19.79,18.29-50.86l-.09-.45.26-.36a174.08,174.08,0,0,1,12.66-15.54c7-7.81,10.15-11.37,8.87-21.07l-.5-3.8,2.33,3.05c10.6,13.92,27.62,27.7,27.79,27.84l.19.15.09.22c.39.83,9.14,20.66-6,47.21l-1.77-1c7.64-13.37,8.85-25,8.52-32.37a40.17,40.17,0,0,0-2.48-12.76c-1.83-1.5-15.76-13-25.84-25.37.21,8.24-3.5,12.39-9.65,19.28a175.29,175.29,0,0,0-12.26,15C348.36,344.69,322.82,364.85,322.56,365.05Z"/><path class="cls-2" d="M330.14,372.38,328.68,371c.28-.3,28.3-29.41,19.25-56.16l-.21-.62.48-.45c11.95-11.22,18.14-19.33,18.37-24.09l.14-2.66,1.68,2.07c7.55,9.29,17,19.09,17.13,19.19l.13.13.07.16A37.39,37.39,0,0,1,383.44,340l-1.79-1a35.92,35.92,0,0,0,2.27-29.53c-1.11-1.15-8.89-9.28-15.73-17.49-1.57,5.28-7.54,12.76-18.12,22.74,3.64,11.46,1.39,25-6.52,39.17A96.86,96.86,0,0,1,330.14,372.38Z"/><path class="cls-2" d="M537.31,363c-18-7.06-21-26.64-26.14-62.14C486.07,285.13,485,256.76,485,252.36c-1.82-1.3-8.57-6.85-22.64-25.39-1.76,12.82-8.74,17.92-23.25,27.18,2.66,22.8-2.31,30.68-18.38,41.81,4.15,10.45,2,24.26-6.31,40a129.08,129.08,0,0,1-14.26,21.3l-1.55-1.34a126,126,0,0,0,14-20.94c5.71-10.85,11.37-26.42,5.9-39l-.33-.77.69-.48c16.26-11.14,20.88-18.25,18.12-41l-.08-.63.54-.35c15.64-10,22-14.55,23.14-28.56l.21-2.7,1.62,2.17c17.19,23,24,27.23,24.1,27.27l.52.31,0,.61c0,.31-.88,31.2,25.63,47.55l.41.25.06.47c5.27,36.18,7.92,54.34,24.94,61Z"/><path class="cls-2" d="M533.17,369.22c-14-5.48-23.86-27-29.29-63.92-22-13.91-26.1-42.75-26.63-47.52-1.73-.78-6-3.81-12-15.61-5.26,9.32-9.37,12.55-18,18.68,1.77,16.87-4.63,30.54-17.2,36.83,9.48,31-19.8,60.44-20.1,60.74L408.45,357c.29-.29,29.21-29.4,19.32-59.5l-.28-.86.82-.39c6-2.78,19.54-11.82,16.78-35.73l-.07-.61.5-.35c9.66-6.82,13.28-9.7,18.84-20l.94-1.74.88,1.78c7.54,15.33,12.15,16.48,12.2,16.49l.74.16.1.77c0,.32,2.71,32.41,26.13,46.86l.41.25.07.47c5.31,36.45,14.76,57.57,28.09,62.78Z"/><path class="cls-2" d="M348.88,385l-4.23-2.84a117.11,117.11,0,0,0,9.85-19.22c4.1-10.19,8.37-25.26,5.46-39.19l-.43-2.06,1.93-.82c7-3,8.35-10.74,8.4-11.07l.81-5.09,3.56,3.72c5.65,5.93,7.16,16.41,8.62,26.54,1.16,8.06,2.35,16.35,5.6,19.41,5.41-6.65,25-33.23,20.37-65.19l-.24-1.66,1.43-.88c15.31-9.41,17.8-26.33,13.47-38.92l-.79-2.28,2.23-.91c18.79-7.69,27.11-19,29.67-40.29l.87-7.31,3.84,6.28c.15.25,15.35,24.93,34.32,37.72l.75.5.27.86c1,3.14,1.85,6.08,2.67,8.83,6.08,20.3,8.85,29.56,26,38.88l1.35.73v1.53c0,.45-.22,45,17.64,57.09l-2.85,4.23c-18.32-12.36-19.79-51.44-19.89-59.83-17.87-10.12-21.21-21.28-27.16-41.17-.75-2.48-1.54-5.12-2.41-7.93-14.07-9.74-25.73-25-31.4-33.2-3.59,18.3-12.54,29.34-29.61,36.89,3.83,13.82.67,31.29-14.92,41.75,4.69,38.45-22.08,68.07-23.24,69.33l-1.18,1.29-1.63-.64c-7.14-2.81-8.65-13.29-10.24-24.38-1-7.21-2.1-14.61-4.62-19.79a19.23,19.23,0,0,1-7.86,8.75C370.07,353.08,349.77,383.68,348.88,385Z"/><path class="cls-2" d="M518.64,383.18c-12.21-6.5-21.15-19.61-25.87-37.91A113.73,113.73,0,0,1,489.32,321c-3.07-2.28-11.22-9.67-26-31.78a119.79,119.79,0,0,1-6.17,13.07c-4,7.77-9.45,18.38-16.5,34.86,2.87,17.44-7.95,29.46-8.41,30l-3.76-3.45c.09-.1,9.86-11.07,7-26.36l-.14-.76.3-.7c7.26-17.05,12.86-27.94,17-35.89,4.33-8.43,6.72-13.07,7-17.31l.51-7.66,4.18,6.44c19.89,30.66,28.7,35.91,28.79,36l1.3.74,0,1.51c0,.45.07,44.88,26.64,59Z"/><path class="cls-2" d="M503.4,378.08c-23.5-15.41-22.06-50.63-21.77-55.15-2-2-11.95-12.47-16.58-20.94-1.06,2.17-2.82,4.95-5,8.44-2.06,3.26-4.62,7.3-7.34,12-.31,36.55-17.3,49-18,49.5l-1.19-1.66c.17-.12,16.95-12.51,17.17-48.12v-.27l.14-.23c2.79-4.86,5.41-9,7.51-12.33,2.94-4.65,5.06-8,5.68-10.09l.78-2.62,1.13,2.49c4.13,9.1,17.38,22.57,17.51,22.71l.34.33-.05.48c0,.37-3.15,38,20.83,53.73Z"/><path class="cls-2" d="M492.82,378c-15.23-13.58-22-45-18.38-53.93a34.35,34.35,0,0,1-8.9-10.08,89.56,89.56,0,0,1-6.31,9.83c1.17,35.37-8.59,45.33-17.2,54.13l-1.45-1.43c8.35-8.53,17.81-18.2,16.6-53v-.36l.21-.28a84.14,84.14,0,0,0,7.29-11.63l1-2.05.87,2.1c2.75,6.63,9.71,11.54,9.78,11.59l.78.55-.48.81c-4.12,6.93,2.75,39,17.56,52.2Z"/><path class="cls-2" d="M504.31,512.14l-4.84-1.64c.12-.34,11.6-34.58,8.6-54l-.23-1.51,1.22-.91c22.53-17,18-48.25,12.42-62.4l-.43-1.11.56-1.05c10-18.42,19.11-37,17.42-48.39l-.14-.92.48-.79c1.33-2.17,2.55-4.15,3.68-6,9-14.64,11.19-18.12,9.11-28.23l-.35-1.69,1.44-.95c23.38-15.46,28.38-33.32,28.87-35.31l1.36-5.45,3.21,4.6c.07.1,6.9,9.83,15.7,20.07,11.43,13.3,20.93,21.41,27.46,23.45l1.24.39.42,1.22c.06.18,6.68,18.93,18.7,19.67l1.68.1.56,1.58c10.49,29.13,27.74,61.74,44.68,65.89l-1.21,5c-9.79-2.4-19.79-12.09-29.72-28.82-8.42-14.17-14.72-29.86-18-38.81-12.45-2-19.32-17.28-21.07-21.73-14.45-5.56-34.25-30.93-41.67-41-3.85,9.44-12.76,22-28,32.47,1.88,10.87-1.13,15.74-10.09,30.25-1,1.6-2,3.32-3.19,5.19,1.38,13.2-8.19,32.39-17.54,49.61a75.15,75.15,0,0,1,4.05,32.44c-1.48,14.19-7.48,25.85-17.39,33.85C515.76,478,504.79,510.73,504.31,512.14Z"/><path class="cls-2" d="M506.3,500.5l-1.67-1.17c.48-.69,48.1-70.05,30.53-108.83l-.23-.51.29-.46c12.57-19.92,19-35.7,18.73-45.64v-.31l.17-.26c.13-.22,13.62-22.06,15.94-31.81l.1-.4.34-.22c7.58-4.86,13.5-15,15.28-20.67l.54-1.72,1.2,1.35c6.65,7.56,25.4,27.1,32.37,27.1H620l.68,0,.27.62c9.26,20.88,22.68,25.4,22.82,25.44l.49.16.16.49c.16.47,16.36,47.32,48.8,71.81l-1.23,1.63c-31.19-23.55-47.54-67.31-49.34-72.32-2.59-1-14.59-6.58-23.31-25.81-4.06-.43-10.78-5.1-20-13.91-5.32-5.08-10.07-10.22-12.18-12.55-2.35,6-8,15.13-15.19,19.89-2.52,9.75-14.34,29.16-15.94,31.76.18,10.28-6.29,26.17-18.76,46,7.32,16.74,4.37,40.34-8.77,70.16A271,271,0,0,1,506.3,500.5Z"/><path class="cls-2" d="M534.34,474.81l-1.69-1.16c.27-.39,26.92-39.95,12.85-81.42l-.16-.46.26-.41c11.74-18.61,16.41-29.88,16.13-38.91v-.36l.21-.28c10.26-13.69,13.91-30.67,14-30.84l.09-.43.37-.23A31.3,31.3,0,0,0,588.53,306l.64-1.78,1.14,1.51c.1.14,10.94,14.39,22.43,19.64l.29.13.16.27a79.85,79.85,0,0,0,26.15,26.39l.38.21.11.42c.1.38,10.44,37.84,36,58.82l-1.3,1.58C649.93,393,639.19,357.91,638,353.71a80.87,80.87,0,0,1-26.37-26.64c-9.83-4.61-18.82-15-21.86-18.77a33.23,33.23,0,0,1-12,13.52c-.64,2.76-4.55,18.16-14,30.93.16,9.33-4.56,20.78-16.19,39.29C561.64,434.32,534.61,474.41,534.34,474.81Z"/><path class="cls-2" d="M552.7,480.76l-4.76-1.84c6.27-16.26,15.13-44.33,12.21-50.39l-.56-1.16.6-1.14c9.52-18.07,12.31-29,10.29-40.36l-.18-1,.54-.84c12.1-18.91,17-30.42,17.64-34.88l.79-6,3.75,4.78c7.78,9.95,22,25.42,27.37,27.38l1.34.49.28,1.4c2.18,10.75,8.21,30.39,24.16,41.13l-2.84,4.24c-16.84-11.34-23.5-31.33-26.05-43.08C610,375.7,597.91,361.85,592.19,355c-2.53,7.22-8.3,18.07-16.52,31,1.88,12-1,23.53-10.44,41.64C568.38,439.06,555.43,473.68,552.7,480.76Z"/><path class="cls-2" d="M563.45,479l-1.9-.74c.14-.37,14.63-37.8,11-48.56l-.13-.39.17-.36c.13-.29,13.43-29.37,18.48-62l.37-2.41,1.45,2c6.29,8.43,18.8,17.61,18.92,17.7l.34.24.07.42c0,.3,5.25,30.55,23,43.39l-1.2,1.65c-9.65-7-15.61-18.79-18.91-27.46a100.32,100.32,0,0,1-4.81-16.84c-1.93-1.43-11.43-8.64-17.57-16-5,30-16.6,56.5-18.11,59.87C578,441.37,564.05,477.5,563.45,479Z"/><path class="cls-2" d="M578.3,482.34l-2-.41c3-14.61,8.2-43.93,6.19-50.31l-.11-.33.13-.34a264.71,264.71,0,0,0,12.37-47.73l.33-2.12,1.44,1.59a70.66,70.66,0,0,0,8.29,7.95l.26.2.09.31c.11.34,10.55,34.39,24.79,43.8l-1.13,1.7c-14.27-9.43-24.37-40.9-25.52-44.6a71,71,0,0,1-6.86-6.44,270.51,270.51,0,0,1-12,45.75C586.89,440.56,578.66,480.62,578.3,482.34Z"/><path class="cls-2" d="M290.11,520.26l-.05-.07c-.07-.07-.8-.89-3-3-1.73-1.67-4.39-4.15-8.4-7.74l-3.2-2.85c-2.63-2.32-5.72-5-9.33-8.13l-1.57-1.34-.22-.19-.26-.13-1.53-.83a71.46,71.46,0,0,1-7.33-4.69c-19.78-14.43-25.31-34.16-25.36-34.38l-.46-1.7-1.74-.18c-14-1.49-23.58-6.59-30.08-12.61-.51-.46-1-.94-1.47-1.43-.88-.88-1.69-1.78-2.44-2.68A45.09,45.09,0,0,1,184,416.67l-.11-.95-.69-.65A111.21,111.21,0,0,1,164,389.42l-.35-.65-.65-.35c-8.54-4.76-20.21-25.68-24-33.35l-.27-.56-.49-.36c-.06,0-5.74-4.36-16.43-17.73l-4.68-5.86.13,7.5c.2,10.26-6.49,19.83-21.15,40.82l-1.63,2.34.13,1c3.25,24.3-.26,30.29-19.61,50.06l-.77.78,0,1.09a75.67,75.67,0,0,1-.9,16.14.78.78,0,0,1,0,.22h0c-.13.69-.27,1.35-.44,2a29.59,29.59,0,0,1-3.15,8c-2.25,3.84-5.25,7-8.93,10.79l-.48.49c-1.74,1.82-3.69,3.86-5.74,6.18l-.64.72v1a45.78,45.78,0,0,1-1,9.4,41,41,0,0,1-1.36,5c-5.09,15.22-16.94,23.56-19.68,25.34l-.56.35-4.61,2.62-3,1.71-.76.43h270.8Zm-249.73-.94a53.23,53.23,0,0,0,17.21-27.54c.38-1.58.7-3.23.94-4.95a49.58,49.58,0,0,0,.5-6.23l1.14-1.27h0c1-1.15,2.06-2.22,3.07-3.25q.61-.66,1.23-1.29c3.8-4,7.08-7.37,9.6-11.66a33.28,33.28,0,0,0,2.26-4.68A41.31,41.31,0,0,0,78.58,450a83.08,83.08,0,0,0,.82-14.92c19.25-19.77,23.6-27.45,20.39-52.56l.49-.7c12.51-17.91,19.47-27.87,21.47-37.41,7.14,8.46,11.49,12.28,12.93,13.44,2,4,14.35,28,25.15,34.64A117.2,117.2,0,0,0,179,418.17a51,51,0,0,0,7.46,18.8c5.83,9,17.31,20.15,39,22.95a75,75,0,0,0,26.42,35.27,76,76,0,0,0,7.12,4.63c.79.47,1.63.94,2.47,1.38l1.11,1c3.76,3.23,6.95,6,9.65,8.4,1.15,1,2.22,2,3.2,2.86,2.78,2.48,4.89,4.42,6.47,5.9Z"/><path class="cls-2" d="M268.9,515.1c-.44.61-.81,1.18-1.17,1.72,1.07,1,1.95,1.81,2.69,2.5l.47.45.28-.45c.28-.4.56-.83.88-1.29C271.22,517.24,270.18,516.27,268.9,515.1Zm6.34,6.1c-.05-.06-.51-.58-1.85-1.88L272.05,518c-.83-.79-1.87-1.76-3.15-2.93-2.29-2.1-5.38-4.87-9.49-8.45-1-.9-2.11-1.85-3.27-2.84s-2.3-2-3.54-3.06l-.2-.14c-1.08-.57-2.11-1.15-3.13-1.75-22-13-27.31-32.31-27.35-32.52l-.19-.67-.7-.08A48.44,48.44,0,0,1,190.24,450,73.62,73.62,0,0,1,174,421.16l-.13-.49-.46-.19c-.06,0-6.36-3-14-16.86l-.14-.27-.28-.15c-14.76-7.79-18.71-29.24-18.74-29.45l-.08-.4-.32-.24c-.06-.05-5.21-3.94-14.9-16.06l-1.88-2.34.06,3c.11,6.38-1.12,7.92-6.29,14.39-2.58,3.22-6.13,7.65-10.86,14.43l-.23.32.06.39c2.93,22,2,27.9-15.4,45.67l-.23.24-.05.33a125.13,125.13,0,0,1-3.91,18.19c-.83,2.84-1.76,5.51-2.74,8-.52,1.35-1.06,2.64-1.6,3.91-1.2,2.72-2.46,5.27-3.76,7.66-.39.71-.77,1.4-1.17,2.08-1.83,3.17-3.73,6.08-5.64,8.79q-1.47,2.07-2.93,4c-.58.77-1.16,1.52-1.73,2.26l-.19.27V489a40.43,40.43,0,0,1-.8,6.58,35.51,35.51,0,0,1-2.22,7A37.27,37.27,0,0,1,49.34,519l-.48.31a28.57,28.57,0,0,1-3,1.62l-4.65,2H276.73Zm-225-.34c.68-.43,1.43-1,2.24-1.54a38.72,38.72,0,0,0,14.09-19.18,39.17,39.17,0,0,0,1.42-6,43.3,43.3,0,0,0,.48-4.72,132.75,132.75,0,0,0,9.76-14.2c.62-1,1.21-2.07,1.79-3.15,1.3-2.37,2.54-4.9,3.73-7.61.54-1.26,1.09-2.56,1.61-3.91,1-2.54,1.92-5.22,2.76-8.07a129,129,0,0,0,4-18.37c16.1-16.48,19-22,15.77-46.73,4.58-6.54,8-10.84,10.56-14,4.49-5.62,6.32-7.9,6.67-12.87,7.56,9.22,12,13,13.2,14a59.61,59.61,0,0,0,3.86,11.89c3.83,8.63,9.21,15,15.6,18.48,6.83,12.43,12.66,16.33,14.32,17.26A76.84,76.84,0,0,0,187.4,450a51.29,51.29,0,0,0,28.2,16.83c1.46.32,3,.57,4.53.76,1.14,3.67,7.4,20.85,28.07,33.06,1,.6,2.06,1.19,3.16,1.76q2,1.69,3.72,3.23l3.29,2.85c4.07,3.57,7.12,6.3,9.36,8.38,1.07,1,1.95,1.81,2.69,2.5l.47.45,1.14,1.09Z"/><path class="cls-2" d="M260.65,521.2l-.32-.34-.73-.74-.81-.8c-.84-.82-2.05-2-3.71-3.47-1-.9-2.1-1.92-3.4-3.09-1.85-1.65-4.06-3.6-6.7-5.89l-4.09-3.53-.19-.12c-.76-.4-1.47-.8-2.18-1.2-19.38-11.15-21.87-26-21.89-26.2l-.12-.78-.79-.08a45.82,45.82,0,0,1-6.06-1.06,43.46,43.46,0,0,1-5.66-1.79A48.74,48.74,0,0,1,189,462.7h0q-2.12-1.92-3.93-3.92a69.35,69.35,0,0,1-13.33-21.32l-.06-.18-.12-.14c-.05-.06-5.08-6.07-11.84-18.46l-.15-.28-.27-.14c-12-6.34-20.42-18.66-21.73-20.65.09-1.82,0-9.71-7.93-19.57l-1.32-1.64-.46,2.05c-.71,3.08-2.61,5.09-5.5,8.15-1.63,1.73-3.49,3.69-5.53,6.29l-.27.33.06.44c2.66,20-1,26.86-15.66,41.91l-.24.24-.05.33a132.59,132.59,0,0,1-4.82,21c-.91,2.91-1.9,5.75-3,8.48-.54,1.43-1.1,2.82-1.67,4.17-1.34,3.21-2.76,6.26-4.19,9.08-.46.9-.92,1.77-1.39,2.63a92.78,92.78,0,0,1-5,8.22c-.71,1-1.42,2-2.1,2.91l-.19.26,0,.32q0,.62-.06,1.2a32,32,0,0,1-3.74,13.08A32.63,32.63,0,0,1,63.86,519h0a5.31,5.31,0,0,1-.46.31,24.83,24.83,0,0,1-2.74,1.54l-.17.08-4.65,2H262.14Zm-195.88-.34c.66-.43,1.39-1,2.17-1.54A33.64,33.64,0,0,0,80.33,494c0-.14,0-.28,0-.41.86-1.13,1.8-2.46,2.8-4,1.37-2.1,2.85-4.56,4.35-7.36a6.94,6.94,0,0,0,.38-.71c1.59-3,3.21-6.29,4.77-9.93.63-1.44,1.24-2.95,1.85-4.5,1.07-2.72,2.09-5.59,3-8.58a135.22,135.22,0,0,0,5-21.77c14.73-15.1,18.68-22.71,16-42.94,1.88-2.37,3.61-4.2,5.15-5.82,2.33-2.48,4.28-4.54,5.37-7.14,7,9.56,6.3,16.83,6.29,16.9l0,.35.18.31c.37.58,9,14.32,22.42,21.5,6.3,11.51,11,17.4,11.8,18.39a72.55,72.55,0,0,0,13,21.13c1,1.15,2.12,2.3,3.28,3.43a51.14,51.14,0,0,0,19.31,11.93,44.46,44.46,0,0,0,5.11,1.39c1.36.3,2.76.54,4.2.71a35.8,35.8,0,0,0,7.48,14.28,48.36,48.36,0,0,0,3.52,3.83,58.73,58.73,0,0,0,13.4,9.69l.5.27,4.49,3.87c2.69,2.35,4.93,4.33,6.77,6l3.45,3.13,1.46,1.37c.62.57,1.12,1.06,1.54,1.47l.07.07Z"/><path class="cls-2" d="M220.94,522.9l-4.09-2-2.54-1.27-.54-.27a33.77,33.77,0,0,1-3.41-2,27.77,27.77,0,0,1-3.59-2.88,31.88,31.88,0,0,1-6.07-7.89c-.74-1.29-1.41-2.63-2-4-1.28-2.82-2.42-5.89-3.55-9.19-.43-1.21-.85-2.45-1.27-3.72-.16-.47-.33-1-.49-1.45-.72-2.13-1.45-4.32-2.24-6.58l-.09-.26-.19-.53-.1-.29-1.07-.43a68.2,68.2,0,0,1-13.94-7.59q-1.77-1.26-3.42-2.58a67,67,0,0,1-6.36-5.88,69,69,0,0,1-17-30.61l-.25-1.3-1.22-.55c-2.49-1.1-5.27-5-7.95-8.79a58,58,0,0,0-6.06-7.62l-2.89-2.83-1.3,3.84c-4.85,14.19-18.89,37.29-19,37.53l-.62,1,.37,1.11c2.65,8.06,1.17,12.73-2.39,17.88-1.19,1.71-2.6,3.46-4.17,5.41-.79,1-1.6,2-2.43,3.05-1.21,1.54-2.46,3.2-3.7,5Q96.07,489,94.83,491l-.55.93.29,1a29.6,29.6,0,0,1,1,9.56,23.86,23.86,0,0,1-.68,4.18,21.43,21.43,0,0,1-3,6.69,22.12,22.12,0,0,1-4.26,4.71c-.65.54-1.21.94-1.58,1.19l-.54.33-2.16,1.21L81.21,522l-1.53.86L77,524.42H224ZM94.43,518.47c.56-.66,1.1-1.38,1.64-2.16.27-.41.56-.84.82-1.29,2.86-4.76,5.26-12.17,2.87-22.27.64-1,1.27-2,1.92-3,.83-1.21,1.67-2.35,2.5-3.43,1.1-1.46,2.2-2.82,3.23-4.11.72-.89,1.41-1.76,2.1-2.63,5.18-6.65,9-13.14,5.69-24.3,2.53-4.22,12.18-20.62,17.36-33.46.93,1.21,1.88,2.52,2.8,3.82,2.87,4.06,5.61,7.91,8.84,9.88a73.31,73.31,0,0,0,19.18,33.25,70.1,70.1,0,0,0,6.72,5.9,73.59,73.59,0,0,0,12.19,7.61q2.1,1,4.37,2c.65,1.86,1.25,3.66,1.84,5.42.06.16.11.33.17.49.46,1.37.9,2.71,1.36,4,1.11,3.24,2.25,6.36,3.55,9.3.57,1.31,1.17,2.58,1.82,3.82a44,44,0,0,0,3.9,6.25,34.39,34.39,0,0,0,3.53,4c.58.57,1.18,1.13,1.81,1.66H93.7C94,519.05,94.2,518.76,94.43,518.47Z"/><path class="cls-2" d="M205,522.05,202.81,521l-.2-.1a22.52,22.52,0,0,1-2.58-1.54,18.83,18.83,0,0,1-1.56-1.14A30.42,30.42,0,0,1,195,515a44.58,44.58,0,0,1-4.52-5.65c-.77-1.13-1.52-2.31-2.23-3.51a87.66,87.66,0,0,1-4.71-9.33c-.59-1.31-1.13-2.62-1.64-3.91-.9-2.24-1.71-4.43-2.44-6.49l-.22-.6-.15-.44-.43-.17c-1-.41-2-.83-3-1.27a65.35,65.35,0,0,1-14.5-8.89C149,464.78,146,454.2,146,454.05l-.12-.47-.44-.19c-2.28-1-4.57-5.8-6.23-9.28a27.94,27.94,0,0,0-2.74-5L135.5,438l-.73,1.28a64.07,64.07,0,0,1-11.47,14.93l-.5.45.2.63c2.88,8.76-2.59,18.16-8.81,27.38l-2.34,3.42c-.83,1.22-1.65,2.4-2.43,3.57s-1.56,2.34-2.28,3.49c-.39.61-.76,1.22-1.12,1.82l-.21.38.11.41a27.08,27.08,0,0,1-.1,14.76c-.09.32-.2.64-.3.94a27,27,0,0,1-4.16,7.86c-.22.3-.43.56-.63.79s-.49.58-.65.75l-.26.27L98,522.9H206.68Zm-102.19-1.19c.34-.43.73-1,1.14-1.54a29.35,29.35,0,0,0,3.07-5.8c.26-.68.51-1.38.74-2.14h0a28.86,28.86,0,0,0,.26-15.71c.23-.38.46-.77.7-1.14.72-1.17,1.49-2.34,2.3-3.55s1.66-2.46,2.54-3.73l2.24-3.29c6.19-9.16,12.07-19.19,9.36-28.66a67,67,0,0,0,10.56-13.57c.5.9,1.06,2.06,1.63,3.27,1.9,4,4,8.47,6.81,10,.72,2.31,4.49,12.62,16.75,22.13a68.93,68.93,0,0,0,12.69,7.73c1.24.59,2.54,1.16,3.9,1.72.09.24.17.49.26.73.78,2.2,1.57,4.25,2.34,6.17.56,1.38,1.12,2.69,1.67,3.93a93.76,93.76,0,0,0,4.76,9.4c.75,1.27,1.48,2.45,2.22,3.53a47.27,47.27,0,0,0,4.38,5.65,33.76,33.76,0,0,0,3.2,3.1,2.19,2.19,0,0,0,.25.2c.7.58,1.38,1.09,2,1.54Z"/><path class="cls-2" d="M180.86,511.39c-.49.49-1,1-1.44,1.51.94,1.09,1.91,2.13,2.87,3.11.44-.52.9-1,1.4-1.52C182.74,513.52,181.78,512.48,180.86,511.39Zm-10.22-11.08c.7,1.26,1.45,2.51,2.24,3.75.5-.47,1-.93,1.56-1.39-.78-1.24-1.52-2.49-2.2-3.73C171.69,499.38,171.17,499.85,170.64,500.31ZM193,521.39l-.86-.43-.2-.1a23.37,23.37,0,0,1-2.55-1.54l-.21-.16a39.84,39.84,0,0,1-5.44-4.67c-.95-1-1.91-2-2.83-3.1a75.89,75.89,0,0,1-6.42-8.72c-.78-1.24-1.52-2.49-2.2-3.73a59.65,59.65,0,0,1-3.42-7.24c-.12-.33-.24-.66-.35-1l-.16-.43-.42-.18c-1-.42-2-.9-3-1.42a42.28,42.28,0,0,1-8.42-5.9c-9.26-8.19-15.14-19.42-17.79-24.49a21.61,21.61,0,0,0-1.67-3l-.95-1.12-.73,1.27c-4.47,7.82-5.12,10.78-5.15,10.91l0,.26.08.26c2.29,7-2.44,12.9-7.46,19.2q-1,1.32-2.1,2.67a55.64,55.64,0,0,0-4,5.69l-.22.37.11.41a20.85,20.85,0,0,1,.6,3.56A28.38,28.38,0,0,1,116,509a46.49,46.49,0,0,1-4.4,10.33c-.39.68-.7,1.21-.92,1.54a3.47,3.47,0,0,1-.29.43l-1.1,1.61H196Zm-79.88-.53c.26-.43.56-1,.88-1.54a47.44,47.44,0,0,0,2.29-4.74,39,39,0,0,0,2.9-10.91,25.38,25.38,0,0,0-.51-8.52c1-1.6,2.11-3.16,3.28-4.7.79-1,1.61-2.06,2.4-3.06,5.06-6.36,10.3-12.94,7.9-20.81a47.28,47.28,0,0,1,4-8.54c.2.36.41.78.64,1.2,2.64,5.07,8.42,16.11,17.57,24.49a47.37,47.37,0,0,0,7.85,5.87,38.22,38.22,0,0,0,4.43,2.23c.07.19.15.4.23.59a58.38,58.38,0,0,0,3.72,7.89c.7,1.26,1.45,2.51,2.24,3.75a78.56,78.56,0,0,0,6.54,8.84c.94,1.09,1.91,2.13,2.87,3.11a46.07,46.07,0,0,0,3.65,3.31c.59.48,1.17.94,1.76,1.36l.27.18Zm59.17-21.92c-.55.44-1.07.91-1.6,1.37.7,1.26,1.45,2.51,2.24,3.75.5-.47,1-.93,1.56-1.39C173.66,501.43,172.92,500.18,172.24,498.94Zm8.62,12.45c-.49.49-1,1-1.44,1.51.94,1.09,1.91,2.13,2.87,3.11.44-.52.9-1,1.4-1.52C182.74,513.52,181.78,512.48,180.86,511.39Z"/><path class="cls-2" d="M421.39,529.39c-17.06-9.06-37.17-34.6-50.14-63.64-38.68-9.26-74.14-39.7-105.44-90.49-12.79-1.69-20-7.57-22.61-10.19-9.32,23.09-23.15,25.41-33.21,23.2-28.48-6.23-58.13-54.88-56.1-91.76-11-3.78-20.6-12.75-26.82-19.68a122.37,122.37,0,0,1-10.12-13c-7.59,17.63-18.94,30.75-33.76,39,3,33.75-7.41,40.65-20.5,49.36-2.34,1.56-4.74,3.16-7.19,5,11.22,19.15-9.83,57.77-10.74,59.43l-1.79-1c.22-.4,22-40.31,10.31-58.14l-.52-.8.76-.57c2.76-2.11,5.44-3.89,8-5.62,13.1-8.72,22.57-15,19.54-48.14l-.06-.67.58-.32c15.19-8.31,26.69-21.81,34.19-40.13l.76-1.85,1.06,1.71c.16.27,16.85,27,37.64,33.69l.76.25-.06.8c-1.16,17.19,4.92,38.48,16.26,56.95,11.15,18.16,25.43,30.68,38.2,33.47,13.61,3,24.49-5.14,31.47-23.47l.63-1.67,1.12,1.4c.07.09,7.18,8.83,22.9,10.76l.49.06.25.42c31.2,50.77,66.5,81.08,104.92,90.1l.49.11.21.47c12.79,28.85,32.66,54.22,49.44,63.12Z"/><path class="cls-2" d="M410.8,529.39c-15.88-8.43-31.5-28.51-44-56.57-42.88-8.78-77.56-49.42-103-84-7.36-1.9-14.57-6.91-17-8.69-15.43,19.91-32.54,18.75-44.24,14.21-14.55-5.64-29.46-19.82-40.91-38.91-10.78-18-16.51-37.09-15.43-51.37a53,53,0,0,1-27.75-22c-12.56,17.69-15.65,20.89-26.51,27.76-1.78,27.9-10.57,39.73-27.15,52.47,6,17.34-8.71,58.69-9.35,60.47l-1.92-.69c.15-.44,15.51-43.59,9.1-59.76l-.29-.72.62-.47c16.94-12.89,25.3-24,27-51.95l0-.52.45-.28c11.19-7,14-10,27.29-28.79l1-1.37.78,1.49a51.27,51.27,0,0,0,28.15,22.62l.78.26-.08.81c-2.66,27.9,24,77,55,89,16.06,6.23,30.76,1.27,42.5-14.35l.62-.83.82.64c.09.07,8.88,6.95,17.39,9l.36.09.22.3c25.38,34.5,60,75.18,102.53,83.63l.52.1.21.48c12.37,27.9,27.75,47.81,43.32,56.07Z"/><path class="cls-2" d="M445.29,476.19c-.78-.45-19-11.26-30.05-48.53-27.4-4.14-42.9-11.53-59.89-41.66-32.45-3.11-43-33.93-48.63-51.53-40.59-16.64-59.8-39.43-73.87-56.1-2-2.38-3.94-4.68-5.82-6.81-6.21,23.92-20,38.81-38.58,53.24,0,4.44-.45,19.3-3.59,29.05L180,352.28c3.41-10.55,3.35-28.54,3.35-28.72v-1.27l1-.77c20-15.34,33.45-30,38.8-55.79l1-4.78,3.36,3.54c3,3.15,6,6.76,9.26,10.59,13.84,16.42,32.8,38.9,73,55.11l1.11.45.36,1.14c5.64,17.61,15.08,47.08,45.88,49.24l1.38.1.67,1.21c16.65,30,30.87,36.54,58.45,40.52l1.64.24.45,1.58c5.45,19,12.83,30.82,18.06,37.37,5.64,7.07,10.06,9.7,10.1,9.73Z"/><path class="cls-2" d="M431,475.07c-.54-.38-13.3-9.54-22.27-38.49-26.73-3.87-45.46-17.21-60.6-43.15-12.8-.64-23.48-10.87-30.23-19.42a111.44,111.44,0,0,1-17-30.92c-37-14.42-52.15-33.93-63.22-48.2-2.11-2.72-4.12-5.31-6.11-7.64-3.84,15.53-13.09,24.44-22.05,33.06-5,4.78-9.65,9.29-13.2,14.73.1,13.51-3.83,32.21-3.87,32.4l-2-.42c0-.19,4-19,3.83-32.27v-.3l.16-.26c3.7-5.76,8.54-10.42,13.66-15.35,9.11-8.77,18.53-17.84,21.92-34l.42-2,1.34,1.5c2.46,2.75,4.91,5.91,7.51,9.25,11,14.13,26,33.49,62.79,47.72l.45.18.15.45c5.3,15.86,23.53,48.81,46.07,49.43h.58l.28.5c15,25.86,33.49,39,60.05,42.72l.64.08.19.63c8.75,28.68,21.55,37.94,21.68,38Z"/><path class="cls-2" d="M421.25,478.76c-.51-.39-12.52-9.7-19.45-33.3-22.65-3.38-43.92-19.58-58.5-44.55-24.6-5.22-44.26-35.27-49.61-50.73-33.34-13.4-45-28-54.37-39.72-1.63-2-3.18-4-4.78-5.83-3.61,12-9.4,17.39-15.51,23-3.73,3.45-7.59,7-11,12.31-5.4,13.37-6.12,33.59-6.13,33.8l-2-.07c0-.85.75-20.88,6.31-34.58l.09-.17c3.58-5.57,7.55-9.24,11.4-12.79,6.18-5.72,12-11.11,15.44-23.88l.48-1.82,1.26,1.4c2.08,2.32,4,4.75,6.08,7.33,9.27,11.59,20.8,26,54,39.26l.44.18.15.45c5,15,24.45,45.09,48.68,49.92l.46.09.23.4c14.4,24.89,35.5,40.95,57.9,44.05l.65.09.19.64c6.69,23.35,18.79,32.77,18.91,32.86Z"/><path class="cls-2" d="M67.37,327.44C67,327.15,32,299,1.06,321l-3-4.16c34.12-24.27,72.13,6.36,72.51,6.67Z"/><path class="cls-2" d="M61.4,337.05c-11.29-11.2-25-15.14-40.87-11.71A64.3,64.3,0,0,0-.39,334.12l-2.94-4.18c.38-.26,38.24-26.34,68.33,3.48Z"/><path class="cls-2" d="M-1.14,406.91a56.73,56.73,0,0,1,12.34-1.4,72.77,72.77,0,0,1,12.49,1,65.65,65.65,0,0,1,23.68,8.7A62.59,62.59,0,0,1,57.42,423l2.22,2.29c.74.76,1.39,1.61,2.08,2.41l1,1.23.94,1.28c.6.87,1.22,1.72,1.81,2.6A62.47,62.47,0,0,1,74.54,456a103.92,103.92,0,0,0-12.29-20.83,78,78,0,0,0-8.14-8.6,71.78,71.78,0,0,0-9.42-7.05,82.12,82.12,0,0,0-21.82-9.16A112.33,112.33,0,0,0-1.14,406.91Z"/><path class="cls-2" d="M431.93,530.74c-17.45-9.26-41.33-40.36-55.86-72.63-38.46-11.61-73.54-41.18-107.18-90.34-13-2.15-25.38-13.45-31.39-19.7-2.19,12.66-8.43,31.93-26,30.28C188,376.12,161.4,335.43,164,292.28c-18.56-7.34-40.88-35.42-49.4-46.82-4.69,18-21.08,39.83-40.12,47.12,3,37.42-8.85,45.9-23.79,56.6-1.4,1-2.84,2-4.3,3.1,10.92,21.14-10.62,56.94-11.57,58.5l-4.36-2.65c.22-.37,22.28-37.05,10.45-55.13l-1.3-2,1.89-1.44c2.13-1.62,4.21-3.11,6.22-4.54,14.41-10.32,24.83-17.77,21.51-54l-.19-2,1.93-.63c19.93-6.54,37.71-32,39.7-49.52l.76-6.7,3.87,5.53c.3.43,30.57,43.44,52.16,50.37l1.92.62-.16,2c-3.43,43,23.43,80.7,42.78,82.53,11.36,1.09,18.9-10,21.23-31.23l.66-6,3.85,4.66c.16.2,16.84,20.21,33,22.19l1.14.14.66,1c33.46,49.18,68.19,78.48,106.15,89.58l1.14.33.48,1.08c14.07,31.74,37.32,62.38,54.07,71.27Z"/><path class="cls-2" d="M216,288c-6.72-24-26.11-51.88-54.28-60.08-21-6.11-43,.48-63.68,19l-2.36,2.12-1.57-2.76c-11.76-20.69-28.38-30.58-44.45-26.45C19.1,227.72,3.26,263.06,3.14,263.4l-1.34-.47L-1.77,262c.1-.37,16.42-38.41,50.16-47.07,17.43-4.47,35.83,5.53,48.57,26.19,26.92-23,50.75-22.59,66.19-18.1,30,8.74,50.66,38.25,57.76,63.61Z"/><path class="cls-2" d="M212.78,295.81c-13.51-39-37.65-57.46-55.74-61.69-19.73-4.62-40.28,3.42-61,23.88l-.91.9-.67-1.09c-12.64-20.56-33.68-38.48-50-29.28C14.51,245.33,2.79,279,2.69,279.32l-2-.56c.1-.34,11.58-34.54,42.63-52,17.24-9.7,38.91,8,52.11,28.91,21-20.33,41.86-28.25,62-23.53,28.39,6.64,48.16,36.91,57.2,63Z"/><path class="cls-2" d="M220,278.47c-2.83-10.74-9.69-30.59-23.78-42.89a67.36,67.36,0,0,0-30.91-15.25l-1.84-.37-.19-1.87C161.74,203,168.85,188.88,181,183c7.36-3.56,16.42-3.81,24.88-.69A38.53,38.53,0,0,1,227,201.78c8.06,1.09,21.85,4.68,33.06,16.43,9.88,10.33,13.41,22.87,14.35,33.37,5-11.43,11.64-19.47,19.68-23.91,9.46-5.23,20.53-5.2,32.9.07,9.62,4.11,22.29,15.37,28,45.72.09.46.15.81.2,1l-5,1.11c-.06-.24-.14-.64-.24-1.19-5.26-28.12-16.47-38.34-24.95-41.95-10.85-4.63-20.41-4.73-28.42-.31-15.07,8.32-21.17,30.42-22.88,38.15-.29,1.67-.53,2.7-.59,2.92l-5-1c0-.11.17-1.06.5-2.63,1.25-7.56,3.58-31.28-12.24-47.83-10.8-11.3-24.29-14.28-31.37-15l-1.47-.16-.59-1.36a33.52,33.52,0,0,0-18.87-18c-7.16-2.64-14.77-2.46-20.88.5-9.54,4.63-15.53,16-15,28.13a72.37,72.37,0,0,1,31.36,16c15.11,13.19,22.37,34.12,25.36,45.43Z"/><path class="cls-2" d="M251.26,294.35l-2-.56a12.27,12.27,0,0,1,.8-1.74c14.67-29.75,14.88-52.87.6-65.1-13-11.15-31.09-13.23-31.85-13.31l-.59-.07L218,213c-4.27-9.76-13.88-25.25-30.27-19.27-8.75,3.19-12.21,8.29-12.17,18,6.09,1.45,20.94,7,31.53,16.3,10.18,8.89,16.45,28.38,18.81,35.72.27.86.5,1.57.68,2.1l-1.93.66c-.18-.54-.41-1.26-.7-2.14-2.31-7.19-8.45-26.28-18.2-34.8-10.79-9.42-26.08-14.94-31.4-16l-.81-.16v-.81c-.26-11,3.78-17.26,13.5-20.81,13-4.73,24.84,2.5,32.6,19.84,3.38.46,20,3.16,32.37,13.72,15.06,12.89,15,36.89-.1,67.55C251.61,293.59,251.31,294.2,251.26,294.35Z"/><path class="cls-2" d="M347.35,286.86c-3.66-21.72-8.24-32.68-16.34-39.1-9.19-7.29-18.93-9.79-27.44-7-10.95,3.53-19.59,15.5-25,34.6l-2-.56c5.61-19.79,14.72-32.23,26.35-36,9.17-3,19.59-.34,29.33,7.39,8.54,6.77,13.33,18.08,17.08,40.36Z"/><path class="cls-2" d="M399.37,533.12c-3.44-4-6.93-8.2-10.31-12.27-19.7-23.71-40.08-48.24-63.68-50.16-11.91-1-25.28,1-25.41,1.05l-3.13.47.2-3.15A31,31,0,0,0,279.66,439a31.31,31.31,0,0,0-32.42,3.57l-2.94,2.27-1.06-3.56a26.15,26.15,0,0,0-23-18.72c-7.4-.6-18.07,1.76-27,16.45a11.18,11.18,0,0,1-.65,1l-4-3.16,2,1.58-2.05-1.52.33-.55c10.26-16.92,22.94-19.6,31.76-18.88A31.14,31.14,0,0,1,247,436.56a36.4,36.4,0,0,1,34.91-2.16,36,36,0,0,1,20.33,31.9,127.66,127.66,0,0,1,23.59-.7c25.75,2.1,46.82,27.46,67.2,52,3.36,4,6.84,8.24,10.25,12.2Z"/><path class="cls-2" d="M392.62,535.92c-4.27-5-8.48-10.23-12.55-15.32-16.93-21.16-32.92-41.13-53.82-42.84-11.13-.9-33.61,2.11-33.84,2.14l-1.23.16.08-1.24c.73-11.79-3.55-26.92-14.67-32.27-10.39-5-25.45-1.15-34,5.45l-1.18.9-.42-1.42c-2.91-9.72-10-21.36-20.49-22.16-11.25-.84-20.65,10-24.16,14.72l-.23.3-1.6-1.26.2-.26c3.71-5,13.65-16.46,25.94-15.53,11,.83,18.51,12.19,21.86,22.23,11.79-8.39,26.66-8.81,35-4.81,11.57,5.57,16.27,20.75,15.87,33,4.9-.63,23.09-2.8,33.06-2,21.78,1.77,38,22.09,55.25,43.59,4.06,5.08,8.26,10.32,12.51,15.27Z"/><path class="cls-2" d="M402.78,518.14l-5.09-.4c0-.3,0-1,0-1.66-.14-6.24-.5-22.82,15.52-35.46,18.93-14.93,36.18-9.4,44.25-5.84a35,35,0,0,1,.73-16.3c2.63-8.49,8.83-14.75,18.45-18.61,25.2-10.11,40.36,10.64,40.51,10.85l-4.16,3c-.52-.72-13-17.67-34.45-9.07-8.34,3.34-21.36,12.19-15,33.86l1.07,3.65-3.78-.39a9.63,9.63,0,0,1-3-1.13c-6.2-3-22.66-10.85-41.51,4-14,11.07-13.71,25.28-13.58,31.34C402.81,516.91,402.82,517.58,402.78,518.14Z"/><path class="cls-2" d="M412.05,518l-2-.16a12.41,12.41,0,0,0-.12-1.67c-.48-4.45-1.47-13.72,9.52-24.08,12.75-12,28.69-14.2,47.4-6.47a42.68,42.68,0,0,1-.75-15.53c1-7.22,4.15-13.06,9-16.91,16.46-13.07,36,1.93,36.16,2.08L510,456.89a38.74,38.74,0,0,0-11.17-5.66c-8.56-2.67-16.11-1.47-22.46,3.57-9.19,7.31-10.09,21.82-7,32.21l.43,1.46-1.52-.16a8.61,8.61,0,0,1-1.95-.69c-18-7.51-33.28-5.5-45.44,6-10.25,9.67-9.33,18.26-8.89,22.38A12.5,12.5,0,0,1,412.05,518Z"/><path class="cls-2" d="M752.31,516.49l-1-5c6.27-1.2,9.15-9.56,10.76-15.75C766,480.85,770,465.47,770.63,450c.48-12-1-29.19-10.83-43.44-9-13.11-23.88-20.61-37.79-19.12-14.88,1.6-27.46,15-26.91,28.76l.16,4-3.7-1.56a48.83,48.83,0,0,0-67.27,38l-.65,4.47-3.49-2.86a24.91,24.91,0,0,0-40.33,23.5l.79,4.58-4.29-1.79A44.44,44.44,0,0,0,516,514.82l-5-1.22a49.53,49.53,0,0,1,63.31-35.25A30,30,0,0,1,620,451.86a53.91,53.91,0,0,1,70.13-39.25c1.44-15.08,15-28.52,31.36-30.28,15.74-1.7,32.43,6.66,42.53,21.29,10.63,15.41,12.25,33.81,11.73,46.54-.65,16.07-4.73,31.72-8.68,46.85C765.08,504.54,761.42,514.74,752.31,516.49Z"/><path class="cls-2" d="M524.15,516.59l-1.82-.92a42,42,0,0,1,64.09-13.56,29.11,29.11,0,0,1-.18-18c2.5-7.5,8.73-13.48,15.88-15.23,7.48-1.83,15.7,1.17,19.85,7.16l4.17-1.13c.64-12.09,4-22.71,9.63-30.76,6.88-9.77,17.74-15.91,28.33-16h.31c11.47,0,22.16,7.45,25.34,17.55,4.6-.73,7.85-5.75,8.74-10.59a48,48,0,0,0,.5-8.65,56.55,56.55,0,0,1,.39-8.09A28.9,28.9,0,0,1,720.64,395c10.38-2.54,22.28,1.84,29.6,10.89,3.46,4.27,9.85,15.15,11.88,28.86,1.63,11,.72,26.95-12.89,40.38l-1.44-1.46c13-12.82,13.88-28.08,12.31-38.62-1.71-11.55-7.13-22.55-11.44-27.88-6.84-8.45-17.9-12.54-27.54-10.18a26.8,26.8,0,0,0-19.72,21.68,54.92,54.92,0,0,0-.37,7.8,49,49,0,0,1-.54,9c-1.07,5.91-5.35,12-11.44,12.34l-.82,0-.21-.79c-2.6-9.66-12.72-16.87-23.61-16.87h-.28c-10,.11-20.18,5.92-26.69,15.16-5.56,7.9-8.78,18.42-9.29,30.42l0,.75-7.06,1.92-.4-.65c-3.55-5.68-11.14-8.59-18.06-6.89-6.48,1.58-12.14,7-14.42,13.88a28,28,0,0,0,1.72,20.57l2.6,5.44-4.24-4.29a40,40,0,0,0-64.11,10.08Z"/><path class="cls-2" d="M727.86,520.44,723,519.05c2.06-7.27,7.37-12.59,12.5-17.74s9.73-9.75,11.28-15.93c1.89-7.51-2-16.29-9-20.42-6.69-3.95-16-3.71-23.14.59-6.79,4.08-11.82,11.64-13.45,20.23l-1.69,8.9-3.2-8.48c-1.85-4.88-7.41-8.43-13.23-8.43-5.41,0-11.07,2.7-15.53,7.4-3.7,3.91-6.65,9.06-9.27,16.21l-1.36,3.71-2.82-2.76a14.8,14.8,0,0,0-16.7-2.55,15.08,15.08,0,0,0-7.78,15.16l-5.06.72A20.35,20.35,0,0,1,635,495.24a20.11,20.11,0,0,1,19.69,1.12,47.07,47.07,0,0,1,9.09-14.7c5.42-5.71,12.43-9,19.23-9a20,20,0,0,1,14.69,6.39A34.56,34.56,0,0,1,712,461.17c8.84-5.31,20-5.55,28.35-.61,8.89,5.24,13.77,16.45,11.35,26.06-1.89,7.55-7.34,13-12.61,18.29C734.18,509.81,729.56,514.44,727.86,520.44Z"/><path class="cls-2" d="M709.49,522.54c-.69-4.7,2.07-9,4.21-11.82.45-.6.91-1.19,1.38-1.78,2-2.5,4-5.09,4.88-8.05,1-3.4-.1-7.81-3.33-9s-7,1.56-8.82,3.3c-.44.42-.88.84-1.31,1.27-2.32,2.26-4.72,4.6-8,5.35-2.54.58-5.08.05-7.54-.46s-4.87-1-7.08-.34-4.1,2.66-5.94,4.7-3.5,3.89-5.92,5c-2.84,1.27-5.91,1.06-8.87.86-1.21-.09-2.46-.17-3.65-.15a9.63,9.63,0,0,0-6.58,2.64,3.8,3.8,0,0,0-1.08,2.91l-2,.16a5.83,5.83,0,0,1,1.6-4.45,11.6,11.6,0,0,1,8.05-3.3c1.28,0,2.57.06,3.83.15,2.84.2,5.52.38,7.89-.68,2-.91,3.59-2.65,5.24-4.49,2-2.16,4-4.39,6.86-5.28,2.71-.83,5.44-.26,8.09.29,2.35.48,4.57.94,6.68.47,2.71-.62,4.9-2.76,7-4.82.45-.44.89-.88,1.34-1.3,3.81-3.56,7.68-4.89,10.9-3.73,4.47,1.59,5.87,7.19,4.6,11.47-1,3.34-3.14,6.08-5.23,8.73-.46.58-.91,1.16-1.36,1.75-3,4-4.25,7.29-3.82,10.29Z"/><path class="cls-2" d="M464.62,409.47l-2.16-3.73c-2.48-4.26-11.87-3.77-15-3.26l-3.95.64,1.08-3.85c.21-.77,4.86-19.19-20.36-33.67-10.44-6.05-20.75-7.7-30.65-4.92-20.05,5.63-32.2,27.63-32.32,27.85l-4.49-2.43c.53-1,13.26-24.09,35.4-30.32,11.29-3.18,22.93-1.37,34.61,5.39C449.08,374,450.65,390,450.1,397.08c3.89-.23,10.09,0,14.17,3.17,7.26-11.34,14.58-18.53,22.87-22.51,12.1-5.8,26-4.21,41.26,4.72l-2.57,4.4c-31.19-18.22-47.91.54-59,18.92Z"/><path class="cls-2" d="M469.32,426.65l-2.9-2.68c-.14-.12-13.5-12.15-27.87-8l-4.18,1.21,1-4.24c2.74-11.76-2.07-36.11-25.94-41.85C388,365.94,368.17,398.67,368,399l-4.38-2.61c.88-1.48,21.92-36.29,47-30.25s31.73,29.77,30.34,44.13c11.4-1.62,21.34,4.21,26.05,7.64,3.21-7.92,12.54-27.3,28.85-33.39,9.2-3.44,19.06-2.09,29.32,4l-2.61,4.39c-8.86-5.27-17.25-6.48-24.92-3.61-18,6.72-27,33.33-27.06,33.6Z"/><path class="cls-2" d="M472.89,437.92l-1.24-1.33C457.18,421,428.76,425,428.47,425.08l-1.81.27.72-1.68a44.86,44.86,0,0,0,2.82-11.38c.67-5.93.36-14.52-5-21.79-7.76-8.63-15.79-12.47-23.82-11.36-16.95,2.35-28.72,26-28.83,26.24l-1.84-.9c.5-1,12.36-24.86,30.38-27.36,8.75-1.23,17.39,2.85,25.69,12.1,9.33,12.69,4.88,28.56,3.08,33.64a76,76,0,0,1,14.95.06c11.46,1.17,20.78,5,27.1,11.05a93.88,93.88,0,0,1,6.33-14.82c4.27-8,11.52-18.29,21.81-22,8.54-3.12,17.83-1.34,27.62,5.29l-1.15,1.69c-9.21-6.24-17.88-7.94-25.77-5.06-18.62,6.79-27.3,36.85-27.39,37.16Z"/><path class="cls-2" d="M45,495.91C30.26,472.86,9.73,483,3,486.32a14,14,0,0,1-2.1.93l-.52-2c.24-.06,1-.44,1.72-.79,3.44-1.71,10.62-5.25,18.93-5.32h.25c10.25,0,18.79,5.26,25.42,15.64Z"/><path class="cls-2" d="M47,485.32c-22-22.83-43.51-12-44.42-11.55L.16,469.25c.26-.13,25.71-13.15,50.47,12.53Z"/><path class="cls-2" d="M40.77,391.88c-20-17.73-39.7-1.52-40.53-.82l-1.32-1.56c.22-.18,21.86-18.06,43.2.86Z"/><path class="cls-2" d="M825.67,498.19l-3.24-4.63c1-.68,23.64-17.34,11.58-57.12-6.28-20.73-20.32-25.21-31-25.31-14.42-.15-27.55,7.91-29.33,13.4l-5.36-1.74c3-9.2,19.48-17.43,34.75-17.3,10.27.1,28.66,4,36.32,29.31C852.71,478.66,826.78,497.41,825.67,498.19Z"/><path class="cls-2" d="M818.45,487.46l-2.2-1.77c16.1-19.95,13.4-44.28,1.49-56.29-4.09-4.11-19.22-16.13-42.33,2.22l-1.75-2.21c13-10.32,31.93-16.26,46.08-2C832.53,440.3,835.54,466.28,818.45,487.46Z"/><path class="cls-2" d="M1005.19,500.68c-.24-.35-22.91-35.46,12.66-63.85.26-10.7,8.66-21.23,22.19-27.7,16.47-7.87,40.71-9.29,58.68,4.76,30.65-34.06,71.68-13,80.14-8.05,9.54-10.26,17.14-13.72,24.5-17.08l1-.47a42.24,42.24,0,0,1,32.8-1.31c10.54,4.13,24.33,14.53,30.15,40.64l-4.13.92c-4.34-19.5-13.62-32.16-27.56-37.62a38,38,0,0,0-29.5,1.22l-1,.47c-7.26,3.32-14.78,6.74-24.29,17.35l-1.22,1.36-1.52-1A79.76,79.76,0,0,0,1151.14,400c-20.25-3.6-37.25,2.53-50.56,18.21l-1.38,1.62-1.61-1.38c-16.66-14.22-40-13-55.73-5.48-12.46,5.95-20,15.47-19.78,24.85l0,1.07-.85.66c-33.66,26.12-13.43,57.49-12.55,58.81Z"/><path class="cls-2" d="M1032.56,501.28c-.38-.43-9.15-10.71-7.81-24.43.9-9.18,6.12-17.61,15.52-25.07.08-9.13,6.51-17.82,16.94-22.81a42.4,42.4,0,0,1,44.61,5.36c31.41-34.06,71.47-12.44,78.53-8.19,16.43-19.45,31.22-24.26,40.8-24.84,10.71-.65,17.33,3.58,17.61,3.76l-1.54,2.36c-1-.65-25-15.44-55.49,21.46l-.81,1-1.06-.72a75.41,75.41,0,0,0-26.11-10c-19.9-3.48-37,2.6-50.74,18.09l-.92,1-1-.89a39.55,39.55,0,0,0-42.61-5.83c-9.69,4.63-15.56,12.64-15.34,20.91l0,.71-.56.44c-9.1,7.06-14.14,15-15,23.52-1.24,12.5,7,22.23,7.13,22.33Z"/><path class="cls-2" d="M1122.64,455.43l-3.37-2.56c.25-.32,24.25-31.09,63.82-11.06,10.74-16.15,23.24-25.38,36.22-26.72,10.81-1.12,21.5,3.38,30.94,13l-3,3c-8.51-8.68-18-12.74-27.48-11.77-12.09,1.26-23.9,10.39-34.16,26.42l-1.06,1.66-1.72-.93C1145.46,426.35,1123.55,454.23,1122.64,455.43Z"/><path class="cls-2" d="M1769.76,194.91l-2.67-4.79c20.46-11.39,28-33.4,25.55-44.91l-.34-1.6,1.24-1.06c29.86-25.51,9.24-54.24,8.35-55.45l-1.8-2.43,2.6-1.56C1830.6,66.47,1840.9,18.45,1841,18l1.77-8.49,3.44,8c14.62,33.89,23.32,49.19,50.93,64.32l.9.49.35,1c8.73,23.71,31.71,50.44,45.66,57.61l-2.51,4.88c-15-7.68-38.4-34.65-47.94-59.63-26.17-14.56-36.24-30-49.23-59.15a169.06,169.06,0,0,1-7,19.6c-8,18.6-17.89,32-29.52,39.79,4.82,8.2,17.36,35.28-9.58,59.37C1800.5,160.82,1790.56,183.33,1769.76,194.91Z"/><path class="cls-2" d="M1773.14,197.07l-.5-2.14c9.46-2.25,20-11.59,26.31-23.24,4.43-8.23,5.8-16.2,3.73-21.86l-.28-.79.69-.48A48.69,48.69,0,0,0,1823.6,110c.11-9-2.63-16.45-7.33-19.92l-1.16-.85,1.14-.89c23.25-18.29,27.9-41.54,27.94-41.77l.67-3.52,1.42,3.29c12,27.72,18.31,31.2,41.93,44.14l1.2.65.14.39c10.93,30.8,27.49,49.75,53.69,61.46l-.9,2c-26.67-11.92-43.56-31.15-54.72-62.33l-.46-.25c-23.3-12.76-30.16-16.52-41.63-42.29a82.16,82.16,0,0,1-26.86,39.1c4.59,4.16,7.24,11.8,7.13,20.82A51,51,0,0,1,1805,149.88c1.92,6.24.47,14.31-4.13,22.85C1794.33,184.9,1783.18,194.68,1773.14,197.07Z"/><path class="cls-2" d="M1777.76,202.9l-.49-2.14c9.45-2.19,21.11-11.85,27.71-23,3.78-6.35,7.68-16.07,4.84-26.28l-.26-.94.9-.37c7.67-3.14,17.51-13.93,20-34,1.43-11.47-.41-21.24-4.56-24.31l-1.33-1,1.42-.84a41.33,41.33,0,0,0,19.27-26l.62-3.66,1.47,3.41c8.63,20,13.23,22.36,26.87,29.39,2.62,1.35,5.59,2.88,9,4.73l.42.23.11.47c7.88,32.29,35.53,55.23,59.43,63.66l-.73,2.07c-24.35-8.58-52.49-31.9-60.71-64.74-3.18-1.73-6-3.18-8.5-4.47-13.1-6.75-18.41-9.48-26.58-27.55a43.62,43.62,0,0,1-18.26,23.62c4,4.29,5.68,13.92,4.27,25.29-1.68,13.46-7.93,29.65-20.48,35.4,2.58,10.61-1.42,20.53-5.3,27.06C1800,190.5,1787.75,200.59,1777.76,202.9Z"/><path class="cls-2" d="M1920.07,234.16l-5.49-.08c.16-10.79-3.21-23.06-4.1-26.1-3.56-3.32-19.3-20.22-11.54-53.37-11-10.17-21.63-23.14-30.23-33.63-5.83-7.11-11.43-14-15.56-17.92a78.19,78.19,0,0,1-15.41,55c-.32,1.79-.6,3.59-.89,5.4-3.08,19.42-6.57,41.43-49.66,65.85l-2.7-4.77c40.78-23.13,43.91-42.86,46.94-61.94.33-2.06.65-4.11,1-6.15l.12-.63.39-.52c21.17-28.22,13.81-57.24,13.73-57.53l-1.27-4.83,4.75,1.5c5,1.58,11.57,9.4,22.78,23.08,9.26,11.3,19.75,24.1,30.88,34.14l1.23,1.1-.41,1.61c-8.6,34,9.22,49.34,10,50l.62.51.25.78C1915.69,206.23,1920.27,220.9,1920.07,234.16Z"/><path class="cls-2" d="M1798.25,228l-.72-2.07c44.36-15.35,44.57-63.94,44.57-64.43V161l.31-.32c.14-.14,14-14.94,16.66-41.5l.21-2.16,1.62,1.45c3.73,3.35,5.51,6.72,8,11.37,3.46,6.51,8.19,15.42,21.57,30.15l.35.39-.08.52c-3.53,22.57,1.36,29.67,6.54,37.19l1.41,2.06c5.85,8.76,3.61,22,3.52,22.58l-2.17-.38c0-.13,2.18-13-3.18-21-.46-.68-.92-1.36-1.39-2-5.39-7.83-10.49-15.24-7-38.26-13.3-14.7-18-23.66-21.53-30.21-2-3.72-3.49-6.58-5.94-9.22-3,24.11-14.63,37.93-16.71,40.23C1844.16,166.92,1841.77,212.91,1798.25,228Z"/><path class="cls-2" d="M1808.81,228.74l-.46-2.15c38.5-8.33,42.11-61.7,42.14-62.23l0-.56.48-.3c.08-.06,9.14-6.08,12.43-23.93l.45-2.45,1.5,2a42.47,42.47,0,0,1,4.4,8c2.51,5.4,5.35,11.52,12.9,17.74l.48.4-.09.62c-3.14,20,1.7,32.45,6.3,39.34,4.86,7.26,3,18.22,2.92,18.68l-2.16-.37c0-.11,1.78-10.57-2.58-17.09-4.78-7.14-9.8-19.91-6.75-40.29-7.57-6.4-10.45-12.61-13-18.11-.89-1.91-1.74-3.75-2.74-5.43-3.37,14.86-10.5,21-12.41,22.46C1852.15,170.76,1846.81,220.51,1808.81,228.74Z"/><path class="cls-2" d="M1640.39,235.07l-3.05-4.57c12.17-8.11,21.44-24.66,24.78-44.26l.17-1,.73-.64c27.27-23.86,27.16-37.79,27-52.54,0-1,0-2,0-3v-1.35l1.06-.82c4.34-3.36,19.36-27.47,27.86-54.59l3.13-10,2.17,10.23c2.63,12.38,17.16,22.15,35.56,34.5,7.52,5,16,10.78,24.46,17.23l1.09.83v1.38c-.32,24.44,9.87,38.52,10,38.66l-4.4,3.28c-.46-.61-11-15.07-11.07-40.62-7.91-6-15.63-11.18-23.1-16.2-15.91-10.69-29.08-19.53-35-30.38-8,22-20.16,43-26.2,49,0,.58,0,1.16,0,1.74.12,15.2.25,30.93-28.18,56.07C1663.63,208.77,1653.58,226.27,1640.39,235.07Z"/><path class="cls-2" d="M1650.07,236l-1.4-1.68c18.56-15.48,22.86-43.87,22.9-44.16l.07-.47.39-.27c21.12-14.73,25.7-26.41,29.56-56.36l.07-.53.46-.27c10.15-6,21-36.81,21.11-37.12l.78-2.24,1.2,2c5.2,8.89,16.37,16.1,28.2,23.73a225,225,0,0,1,19.44,13.54l.38.31,0,.49c1.62,38.39,12.09,46.34,12.2,46.42l-1.26,1.8c-.46-.32-11.37-8.28-13.11-47.63a228.61,228.61,0,0,0-18.86-13.08c-11.22-7.24-21.86-14.11-27.69-22.56-2.65,7.14-11.67,29.91-20.83,35.89-3.91,30.12-8.67,42.1-30,57.09C1673,194.91,1668.18,220.89,1650.07,236Z"/><path class="cls-2" d="M1656.07,238.93l-1-2c12-5.74,18.79-29.21,21.79-42.7l.09-.42.36-.24c18.23-12.48,30-34.63,30.73-57.8l0-.78.74-.23c10.36-3.22,16.2-28.34,16.26-28.6l.48-2.1,1.42,1.63c7.87,9.05,37.84,29.54,38.14,29.74l.36.25.1.42c0,.15.82,3.83,4.38,29.46,2.75,19.81,5.08,21.61,5.34,21.75a.52.52,0,0,0-.61.19l1.63,1.47a1.63,1.63,0,0,1-1.7.42c-1-.31-3.73-1.15-6.83-23.53-3-21.34-4-27.39-4.28-28.87-3.46-2.37-27.69-19.09-36.79-28.35-1.62,6.11-7.13,24.21-16.5,28-1,23.43-12.91,45.77-31.3,58.54C1675.82,209.09,1668.74,232.85,1656.07,238.93Z"/><path class="cls-2" d="M1679.93,289.39c-.61-2.16-14.63-53.19.51-80.64,2.65-4.81,6.54-9.14,10.66-13.72,8.31-9.24,17.71-19.71,21.38-38.34l.38-1.91,1.92-.28c4.93-.72,10.11-12.25,13.18-29.38l1-5.48,3.75,4.11c5.62,6.17,11.44,10.95,18.17,16.49,1.5,1.23,3,2.49,4.62,3.81l.86.72.11,1.12c3.16,32,11.87,43.62,12,43.74l-4.32,3.38c-.39-.49-9.55-12.42-13-45.46l-3.73-3.07c-5.45-4.49-10.32-8.49-15-13.17-4.19,19.46-10,26.23-14.82,28.1-4.19,19.1-14.23,30.27-22.33,39.29-4.08,4.53-7.59,8.44-9.94,12.7-14.07,25.51-.18,76,0,76.51Z"/><path class="cls-2" d="M1676.23,260.86c-.66-34.67,10.56-46.49,22.44-59,8.51-9,17.31-18.25,22.38-36.83l.18-.68.7-.11c11.92-2,11.5-22.39,11.49-22.6l-.1-3.76,2.11,3.12c3.58,5.29,9.86,13.57,12.52,14.69l1.23.52-.75,1.1c-3.29,4.86,2.7,25.21,5.29,32.64l-2.08.72c-.94-2.71-8.74-25.66-5.57-33.54-3.18-2.19-7.9-8.45-10.55-12.17a44.53,44.53,0,0,1-1.27,8c-2,7.53-5.86,12.12-11.27,13.32-5.23,18.67-14.12,28-22.72,37.1-11.56,12.18-22.48,23.68-21.83,57.45Z"/><path class="cls-2" d="M1630.86,360.92c-.69-1.14-16.49-27.51-13.43-46.64-16.3-20.24-22.16-31.87-23-47.53-14.44,15.79-25.7,27.42-38.93,34.12-4.27,12.9-1.3,27.7,11.39,57.56l-5.06,2.14c-11.84-27.88-17.13-46.11-11.14-62.6l.38-1,1-.49c14.11-6.82,26.17-20.07,42.86-38.4l5.12-5.62-.21,7.4c-.48,16.38,2.56,27.22,22.64,52l.82,1-.27,1.28c-3.59,17.12,12.36,43.71,12.52,44Z"/><path class="cls-2" d="M1629.08,366.75c-.23-.18-22.33-18.53-18.4-48.8-4.1-5.68-7.79-10.13-10.77-13.72-6.68-8.05-10.79-13-10.9-21.18a79.65,79.65,0,0,1-25.4,24.1l-1,.56,0-.07c-1.89,1.37-6.78,7.61-3.86,34.72l-2.18.23c-3.46-32,3.78-36.74,6.08-37.42l.12,0a79.68,79.68,0,0,0,26.73-26.85l2.72-4.58-.69,5.28c-1.32,10,2.51,14.65,10.14,23.84,3.06,3.69,6.87,8.28,11.12,14.19l.25.36-.06.43c-4,29.27,17.34,47.06,17.55,47.23Z"/><path class="cls-2" d="M1619.53,377.67a106.56,106.56,0,0,1-12.63-19.05c-7.53-14.58-9.82-28.19-6.61-39.4a70.18,70.18,0,0,0-8.2-10.55c-3.53-4-6.66-7.54-7.81-11-6.6,7.14-16.29,14.68-18,16-.94,2.45-7.72,21.65,2.61,40.16l-1.91,1.07c-11.54-20.68-2.71-42.13-2.62-42.34l.12-.27.23-.18c.12-.09,12.55-9.58,19.39-17.52l1.79-2.08.14,2.74c.17,3.45,3.83,7.6,7.7,12,3,3.38,6.38,7.22,8.7,11.33l.23.41-.14.45c-7.83,26,18.4,56.52,18.67,56.83Z"/><path class="cls-2" d="M1419.66,364.81l-.8-2c16.55-6.47,19.13-24.17,24.26-59.43l.08-.51.43-.27c25.81-15.92,25-46,25-46.31l0-.65.56-.34c.06,0,6.74-4.21,23.49-26.58l1.74-2.32.23,2.89c1.08,13.62,7.3,18.1,22.52,27.79l.59.37-.09.69c-2.69,22.14,1.81,29.06,17.63,39.91l.75.51-.36.83c-5.32,12.23.09,27.24,5.56,37.68a119.16,119.16,0,0,0,13.42,20.08l-1.66,1.43a121.62,121.62,0,0,1-13.71-20.49c-7.94-15.16-10-28.53-6-38.74-15.65-10.85-20.5-18.56-17.92-40.79-14.06-9-20.86-13.95-22.64-26.31-13.52,17.79-20.08,23.24-21.92,24.57,0,4.48-1.17,32-25.57,47.38C1440.18,338.8,1437.31,357.91,1419.66,364.81Z"/><path class="cls-2" d="M1423.7,370.84l-.8-2c13-5.07,22.17-25.66,27.34-61.18l.08-.51.43-.27c22.84-14.08,25.43-45.33,25.45-45.64l.07-.89.88-.12s4.47-1.15,11.79-16l.94-1.91,1,1.88c5.42,10.06,8.95,12.87,18.36,19.51l.53.38-.07.65c-2.69,23.27,10.51,32.06,16.31,34.77l.88.41-.3.92c-9.64,29.33,18.06,57,18.34,57.31l-1.54,1.57c-.29-.28-28.37-28.38-19.18-58.65-12.24-6.17-18.47-19.49-16.77-35.93-8.38-5.94-12.39-9.09-17.48-18.07-5.8,11.25-9.91,14.27-11.65,15.08-.54,4.83-4.56,32.81-26,46.36C1447,344.49,1437.39,365.49,1423.7,370.84Z"/><path class="cls-2" d="M1603.33,386.37c-.55-.75-13.33-18.38-12.38-35.58-2.07-4.84-3.89-8.7-5.49-12.13-2.65-5.64-4.6-9.79-5.59-13.93-3.34,5.2-4.93,12.56-6.37,19.23-1.74,8.07-3.24,15.05-7.67,17.86l-1.94,1.23-1.55-1.69c-1.13-1.23-27.26-30.13-22.76-67.7-15.13-10.22-18.25-27.21-14.59-40.71-16.43-7.32-25.13-18-28.72-35.5-5.65,8.09-16.84,22.58-30.29,31.91-.84,2.71-1.6,5.26-2.32,7.66-5.81,19.42-9.08,30.35-26.51,40.25-.23,8.49-2.25,46.67-20.13,58.73l-3.07-4.55c7-4.75,12.35-15.82,15.34-32a152.13,152.13,0,0,0,2.4-23.81V294l1.43-.77c16.68-9,19.38-18.05,25.28-37.78.81-2.69,1.67-5.55,2.62-8.63l.29-.92.8-.54c18.46-12.44,33.27-36.48,33.42-36.72l4.12-6.75.94,7.85c2.48,20.68,10.56,31.65,28.79,39.12l2.4,1-.85,2.45c-4.19,12.19-1.78,28.56,13,37.67l1.53,1-.25,1.78c-4.34,30,13.25,55.12,19.21,62.65,1.57-2.75,2.64-7.71,3.68-12.54,2.08-9.66,4.45-20.62,12-26.55l4.43-3.47v5.63c0,5.51,2.07,9.92,5.83,17.92,1.61,3.43,3.61,7.7,5.83,12.91l.26.62,0,.67c-1.19,15.4,11.16,32.43,11.29,32.6Z"/><path class="cls-2" d="M1426.57,380.73l-1.87-5.16c37.38-13.55,37.81-55.62,37.81-56v-1.59l1.37-.79c.08,0,10-6.26,25.47-34.58l2.89-5.27,2.09,5.63c.08.21,7.78,20.74,20.11,37.84l.73,1-.28,1.21c-4.47,19.66,11.19,42.25,11.35,42.47l-4.49,3.16c-.69-1-16.62-23.91-12.47-45.62a184.91,184.91,0,0,1-17.92-32.78c-11.87,20.6-20.29,28.36-23.41,30.77C1467.49,329,1463.39,367.39,1426.57,380.73Z"/><path class="cls-2" d="M1450.21,380.37l-1.36-1.72c26.9-21,23.87-54,23.84-54.36l0-.52.37-.37c.12-.12,12.19-12.23,16.21-21.09l1.21-2.67.84,2.81c.61,2,2.67,5.29,5.53,9.82,2.06,3.25,4.61,7.3,7.33,12l.17.28,0,.33c-.94,18.61,3,29.89,6.53,36.07,3.77,6.66,7.81,9,7.85,9l-1.06,1.92c-.71-.4-17.29-10-15.53-46.79-2.64-4.58-5.12-8.51-7.12-11.67-2.09-3.32-3.77-6-4.82-8.07-4.43,8-13.29,17.25-15.22,19.21C1475.2,329,1476.17,360.06,1450.21,380.37Z"/><path class="cls-2" d="M1463.11,379.38l-1.46-1.64c15-13.36,20.57-44.75,17.35-51.76l-.29-.63.45-.54c0-.06,5.63-6.68,9-11.8l.9-1.35L1490,313s3.07,4.42,7.77,12.6l.16.27v.31c-1.18,33.9,8,43.32,16.17,51.63l-1.57,1.53c-8.41-8.6-18-18.34-16.81-52.92-3.08-5.35-5.42-9-6.62-10.83-2.87,4.13-6.57,8.64-7.82,10.14C1484.6,335.16,1477.88,366.21,1463.11,379.38Z"/><path class="cls-2" d="M1448.11,499.18c-.33-.94-7.84-22.65-5.35-42.49-9.66-7.85-15.51-19.25-17-33.1a73.6,73.6,0,0,1,3.93-31.66c-9.1-16.77-18.4-35.45-17.09-48.37-1.1-1.8-2.13-3.45-3.08-5-8.74-14.16-11.7-18.95-9.9-29.53-14.59-10.06-23.23-22.12-27.08-31.29-7.43,10-26.41,34.2-40.4,39.67-1.78,4.48-8.49,19.16-20.58,21.24-8.09,21.12-34.48,67.67-53.7,70.35l-.76-5.44c15.37-2.14,41.92-46.23,49.89-68.37l.61-1.7,1.8-.11c11.6-.72,18-18.84,18-19l.45-1.32,1.32-.41c13-4.05,34.7-32,42-42.37l3.46-4.94,1.46,5.86c.47,1.92,5.32,19.26,28.06,34.3l1.55,1-.37,1.82c-2,9.76-.14,12.79,8.85,27.35,1.1,1.78,2.29,3.71,3.59,5.84l.52.84-.15,1c-1.64,11,7.19,29.12,17,47.06l.62,1.13-.47,1.19a67.42,67.42,0,0,0-4,30.29c.94,9,4.49,21.55,16.08,30.29l1.3,1-.25,1.62c-2.9,18.88,4.81,41.22,4.89,41.44Z"/><path class="cls-2" d="M1433.46,470.56a241.87,241.87,0,0,1-13.74-32.88c-7.48-23-7.58-38.71-.29-46.72-12.1-19.32-18.36-34.78-18.14-44.78-7.66-22.33-17.34-33.75-23.75-41.31-2.94-3.48-5.22-6.16-6.5-8.85-5.15,5.71-23,24.92-31.43,25.79-10.33,17-20.92,23.43-23.11,24.62a214.48,214.48,0,0,1-15.28,30.69c-13.06,21.51-26.72,34.39-40.61,38.3l-.59-2.11c31.9-9,54.36-67.46,54.58-68l.15-.41.39-.19c.12-.06,11.82-6,22.89-24.49l.33-.55h.7c6.76,0,25-19,31.51-26.41l1.29-1.46.58,1.86c.91,2.88,3.37,5.79,6.78,9.81,6.53,7.71,16.4,19.36,24.21,42.2l.06.19v.2c-.3,9.68,6,25.06,18.26,44.47l.47.75-.63.62c-17.51,17.26,13.5,77.06,13.81,77.67Z"/><path class="cls-2" d="M1425.92,472.31c-.3-.41-30.34-41.34-16.87-76.45-10.16-16.22-15.6-30.87-15.35-41.33-9.61-28-19.51-39.35-25-43.74-3.16,2.65-16.61,13.85-26.13,20.65-5.2,14-17.43,20.32-20.06,21.53-1.46,4.71-13.64,41.64-41.38,60.79l-1.25-1.81c28.86-19.92,40.56-59.68,40.67-60.08l.15-.5.48-.21c.14-.06,14.15-6.1,19.44-20.78l.11-.33.29-.2c10.73-7.62,26.78-21.17,26.94-21.31l.67-.57.7.53c5.49,4.14,16.23,15.55,26.47,45.5l.07.19v.2c-.18,5.88,1.56,19,15.3,40.77l.3.47-.21.52c-13.51,34.08,16.09,74.45,16.39,74.85Z"/><path class="cls-2" d="M1395.12,478.4c-.56-1.51-13.46-36.67-9.61-58-7.94-15.4-10.71-29.78-8.46-43.88-8.49-13.43-12.27-23.4-14-29.6-7,7.79-19.37,19.9-26.19,23.42-2.9,11.83-13.74,31-31.57,46.95l-3.65-4.1c12.73-11.37,27.18-30.6,30.16-45.32l.3-1.51,1.45-.53c5.58-2,22.55-18.56,28.87-26.63l4-5.14.86,6.47c.42,3.16,2.73,14.92,14.89,33.93l.58.9-.19,1.06c-2.39,13.46.29,27.29,8.18,42.28l.46.88-.2,1c-4.12,19.65,9.06,55.57,9.19,55.93Z"/><path class="cls-2" d="M1379.52,481.08c-.28-1.93-6.75-47.06-2.72-61.1a266,266,0,0,1-17.17-57.82A144.11,144.11,0,0,1,1341.31,378c-.85,3.22-7.18,24.58-28.35,42.07l-1.4-1.69c22.27-18.4,27.66-41.06,27.72-41.28l.09-.41.34-.24c.12-.09,12.39-8.9,19.81-17.42l1.55-1.78.36,2.34c4.93,31.81,17.41,59.62,17.53,59.9l.18.38-.13.4c-4.12,13.08,2.61,60.05,2.68,60.53Z"/><path class="cls-2" d="M1366.59,453.35c-.3-2.83-2.77-27,1.84-32.85a243.32,243.32,0,0,1-12.63-45.35,81.05,81.05,0,0,1-8.39,5.91c-.88,4.21-7.49,32.86-26.23,45l-1.19-1.84c19-12.34,25.3-43.75,25.36-44.07l.09-.48.42-.25a71.19,71.19,0,0,0,10-7.22l1.52-1.46.32,2.09a239.43,239.43,0,0,0,13.07,47.48l.31.73-.6.52c-3.39,2.92-2.81,20.89-1.65,31.54Z"/><path class="cls-2" d="M1693.86,496.87A74.35,74.35,0,0,0,1710.14,483,40.68,40.68,0,0,0,1693.86,496.87Zm225.76,24-.21-.12-6-3.4s-.77-.46-2-1.29a46.41,46.41,0,0,1-4.12-3.33A47.46,47.46,0,0,1,1893,489.89a44.3,44.3,0,0,1-1.5-10.61c0-.28,0-.56,0-.83v-1l-.69-.77a.34.34,0,0,0-.08-.09c-2.15-2.44-4.19-4.56-6-6.43a64,64,0,0,1-8-9.46,28.81,28.81,0,0,1-4-10.32c-.07-.27-.11-.56-.17-.84,0,0,0,0,0,0-.15-.79-.27-1.62-.38-2.48h0a84.63,84.63,0,0,1-.44-12.92l0-1.16-.8-.84c-18.81-19.22-22.22-25-19.08-48.64l.15-1.06-1.65-2.37c-14.27-20.43-20.78-29.74-20.6-39.66l.15-8.07-5,6.3c-10.4,13-15.93,17.21-16,17.24l-.54.4-.29.59c-3.67,7.46-15,27.83-23.29,32.44l-.7.39-.37.69a109.11,109.11,0,0,1-18.67,25l-.74.69-.11,1a40.94,40.94,0,0,1-4,12.62,44.24,44.24,0,0,1-2.86,4.94c-.45.66-.91,1.33-1.41,2s-.9,1.16-1.39,1.73a43.1,43.1,0,0,1-17.3,12.29c-1.37.53-2.82,1-4.33,1.48a61,61,0,0,1-11.13,2.18l-1.87.21-.49,1.82c-.06.24-7,24.93-33.26,38.77l-.29.14-.23.2c-1.66,1.42-3.22,2.77-4.66,4-2.67,2.31-5,4.35-7,6.14l-3.69,3.3c-7.49,6.77-9.42,8.92-9.53,9.05l-4,4.55h265.76ZM1669.48,517c.29-.26.57-.53.89-.83,1.21-1.1,2.65-2.42,4.37-4,2.13-1.92,4.69-4.18,7.76-6.86,1.93-1.69,4.06-3.54,6.42-5.56,1.72-.92,3.37-1.88,4.94-2.86A74.35,74.35,0,0,0,1710.14,483a76,76,0,0,0,5-6.36,69.1,69.1,0,0,0,8.94-17.18,56.72,56.72,0,0,0,24.44-8.74A47.42,47.42,0,0,0,1762.16,437a49.67,49.67,0,0,0,7.3-18.36,114.42,114.42,0,0,0,18.67-25c10.55-6.59,22.54-29.8,24.56-33.82,1.42-1.17,5.56-4.82,12.26-12.72,2.11,9.2,8.87,18.89,20.88,36.08l.42.61c-3.12,24.5,1.14,32,19.92,51.32A80,80,0,0,0,1867,450a38.45,38.45,0,0,0,2.35,8.5,32.2,32.2,0,0,0,2.44,4.76c2.4,3.87,5.46,7,9,10.71,1.68,1.73,3.41,3.53,5.25,5.58A49.86,49.86,0,0,0,1897.21,510c.55.69,1.11,1.34,1.67,2a53.59,53.59,0,0,0,4.93,5Zm24.38-20.08A74.35,74.35,0,0,0,1710.14,483,40.68,40.68,0,0,0,1693.86,496.87Z"/><path class="cls-2" d="M1899.15,518.68A25.6,25.6,0,0,1,1896,517a37.1,37.1,0,0,1-10.74-10.32,33.2,33.2,0,0,1-2.54-4.37,36.07,36.07,0,0,1-3.57-14.63v-.35l-.22-.28c-1.43-1.87-2.89-3.8-4.35-5.87h0a110.77,110.77,0,0,1-6.34-10c-1.35-2.4-2.64-5-3.87-7.72-.56-1.25-1.11-2.55-1.63-3.89-1-2.51-1.93-5.17-2.78-8a123.05,123.05,0,0,1-3.91-18.07l0-.36-.25-.26c-17-17.42-17.91-22.7-15-44.47l.07-.47-.3-.36c-12.66-15.92-16.65-21.41-16.48-30.78l.07-3.28-10.42,13.28-.06.2c-.08.25-8,25.51-22.4,33.13l-.3.16-.16.29c-7.49,13.74-16.19,20.2-16.28,20.26l-.32.24-.1.38c-.06.27-4.92,18.83-19.49,31.64a49.57,49.57,0,0,1-8.27,5.89,45.71,45.71,0,0,1-16,5.47c-.69.12-1.38.2-2.09.28l-.76.08-.18.74c-.06.2-5.63,20.69-29.7,33.37l-.21.13c-3.61,3.1-6.65,5.75-9.2,8-1.93,1.69-3.58,3.17-5,4.44-2.85,2.58-4.73,4.34-5.93,5.5-1.44,1.4-1.94,2-2,2l-1.29,1.47-.32.36h230.5Zm-220.43-.08c.46-.45,1-1,1.73-1.65s1.66-1.56,2.74-2.55l3.16-2.86c3.08-2.76,7.12-6.3,12.34-10.79,2-1.05,3.83-2.14,5.57-3.26a67.69,67.69,0,0,0,8.11-6.15,61.78,61.78,0,0,0,11.39-13.3,49,49,0,0,0,5.42-11.27,49.87,49.87,0,0,0,5.71-1,48,48,0,0,0,8.76-3,45.94,45.94,0,0,0,5.42-2.91,49.85,49.85,0,0,0,7.54-5.7c13.5-12.22,18.71-29.07,19.48-31.82,1.68-1.3,9.47-7.77,16.46-20.46,14.53-7.93,22.3-31.48,23.12-34.08l6.27-8c.73,8.34,5.38,14.66,16.58,28.75-2.85,21.52-1.75,28,15.4,45.58a126.72,126.72,0,0,0,4,18.3c.88,2.87,1.82,5.56,2.83,8.1.53,1.35,1.09,2.66,1.67,3.94a99.41,99.41,0,0,0,8.36,15.07c.39.58.77,1.13,1.16,1.69,1.68,2.43,3.37,4.69,5,6.86a37.34,37.34,0,0,0,5.55,18.41,39,39,0,0,0,9.62,10.48c.84.64,1.64,1.19,2.36,1.65Z"/><path class="cls-2" d="M1886.72,519.45l-1.8-.77-.17-.08a18.1,18.1,0,0,1-1.83-.94c-.35-.21-.74-.43-1.16-.71a32.7,32.7,0,0,1-3.93-3,31.12,31.12,0,0,1-5-5.69,29.45,29.45,0,0,1-2.11-3.64,30.28,30.28,0,0,1-2.88-9.83,27.57,27.57,0,0,1-.26-3.09v-.36l-.22-.27-.33-.44a75.68,75.68,0,0,1-4.93-7.52c-1.13-1.94-2.26-4-3.37-6.27q-1.28-2.5-2.47-5.25c-.7-1.54-1.37-3.14-2-4.77-1.17-3-2.3-6-3.33-9.23a130.89,130.89,0,0,1-5.05-21.59l0-.36-.26-.25c-14.33-14.65-17.85-21.38-15.25-40.82l.06-.45-.29-.37a47.16,47.16,0,0,1-8.81-18.76l-.94-4.07-1.19,4c-5.74,19.41-18,36.92-30.63,43.55l-.29.16-.16.29c-6.59,12.07-11.48,17.94-11.53,18l-.14.14-.06.2a68.2,68.2,0,0,1-13.43,21.26,55.15,55.15,0,0,1-6.32,5.78q-1.72,1.35-3.61,2.56a45.52,45.52,0,0,1-9.11,4.52c-.86.32-1.72.6-2.62.85a43.09,43.09,0,0,1-7.8,1.55l-.86.09-.12.84a16,16,0,0,1-.45,1.81,29.31,29.31,0,0,1-1.55,4,37.14,37.14,0,0,1-2.35,4.24,44.28,44.28,0,0,1-6.07,7.35,56,56,0,0,1-13,9.3l-.21.13c-2.42,2.08-4.55,3.93-6.42,5.57-3.53,3.09-6.14,5.44-8,7.19-1.2,1.1-2.13,2-2.82,2.65-.85.82-1.37,1.35-1.67,1.65l-.34.37-1.6,1.83h202ZM1693,518.6l1.73-1.65c1.23-1.14,2.86-2.63,5-4.54,2.65-2.36,6.06-5.35,10.45-9.12a54.77,54.77,0,0,0,16.78-13.22,36.56,36.56,0,0,0,7.12-12.66c.2-.61.32-1.12.41-1.5a47.82,47.82,0,0,0,8.35-1.81c1.28-.41,2.52-.86,3.71-1.36a47.37,47.37,0,0,0,8.26-4.41q1.85-1.23,3.52-2.56a57.83,57.83,0,0,0,6.24-5.77,70.79,70.79,0,0,0,13.78-21.78c.82-1,5.39-6.75,11.5-17.93,12.17-6.58,24-22.77,30.28-41.11a48.36,48.36,0,0,0,8,15.59c-2.57,19.75,1.28,27.2,15.67,41.92a132.71,132.71,0,0,0,5.44,22.86c1.13,3.4,2.34,6.61,3.6,9.61q1.08,2.61,2.21,5c.3.64.6,1.28.91,1.9,1.62,3.38,3.26,6.39,4.81,9s2.89,4.62,4.13,6.31l.58.78a32.93,32.93,0,0,0,.33,3.4,32.45,32.45,0,0,0,3.06,10,30.2,30.2,0,0,0,2.09,3.63,33.6,33.6,0,0,0,4.72,5.59c.84.82,1.68,1.53,2.48,2.17.45.36.9.69,1.32,1s.66.46,1,.66Z"/><path class="cls-2" d="M1867.35,521.17l-.64-.37-3.85-2.2-1.78-1-.49-.27c-.06,0-.27-.15-.57-.36a18.06,18.06,0,0,1-2.35-1.88,21.05,21.05,0,0,1-6-9.78,22.41,22.41,0,0,1-.81-5.09,29.24,29.24,0,0,1,1-8.61l.29-1.12-.07-.11-.51-.88c-.57-1-1.14-1.87-1.72-2.74a108.73,108.73,0,0,0-6.7-9c-.7-.87-1.38-1.71-2-2.51-4.85-6.19-7.38-10.82-4.37-20l.39-1.19-.66-1.09c-.13-.22-13.81-22.76-18.53-36.58l-1.4-4.12-3.12,3.05a56.81,56.81,0,0,0-5.92,7.46c-2.49,3.49-5.31,7.45-7.66,8.5l-1.31.58-.28,1.4a67.29,67.29,0,0,1-26.25,38.13,65,65,0,0,1-7.37,4.48c-1.24.63-2.53,1.26-3.86,1.84-.68.31-1.38.6-2.08.89l-1.15.47-.41,1.17c-.78,2.19-1.5,4.33-2.19,6.41-2.13,6.36-4,11.91-6.49,16.66a35.24,35.24,0,0,1-4,6.1,28.51,28.51,0,0,1-8.39,7c-.3.18-.62.36-1,.52s-.37.2-.55.29l-2.74,1.36-3.64,1.81-.76.39-3.29,1.64h145.34Zm-112.26-18.89c1.9-4.29,3.47-9,5.11-13.86l1.76-5.18.2-.09c1.37-.58,2.69-1.2,4-1.82a73.34,73.34,0,0,0,7.69-4.42,71.69,71.69,0,0,0,29.58-41.27c3.16-2,5.81-5.71,8.61-9.65.81-1.14,1.63-2.29,2.45-3.37,5.07,12.39,14.22,27.95,16.73,32.17-3.61,12.37,1.64,18.9,7.69,26.41l.4.49c1.7,2.12,3.54,4.44,5.35,7.11.56.81,1.11,1.64,1.64,2.52-.11.5-.21,1-.31,1.48a30,30,0,0,0,0,12.22,25.45,25.45,0,0,0,1.5,4.73,26.61,26.61,0,0,0,4.5,7.2H1744.9a37,37,0,0,0,8-10.24Q1754.08,504.58,1755.09,502.28Z"/><path class="cls-2" d="M1846.57,518.9l-.3-.3a17,17,0,0,1-1.4-1.65c-.44-.59-.95-1.31-1.46-2.15a25.25,25.25,0,0,1-2.09-4.29,26.07,26.07,0,0,1-.85-15.58l.17-.69.12-.44-.24-.4c-.48-.81-1-1.63-1.52-2.45-1.28-2-2.69-4.08-4.16-6.23l-.6-.86c-6.69-9.76-13.32-19.81-10.28-29.09l.23-.68-.54-.48a63.19,63.19,0,0,1-11.17-14.56l-.79-1.35-1,1.19a27.49,27.49,0,0,0-2.69,4.89c-1.61,3.39-3.82,8-6,9l-.48.21-.14.51c0,.18-4.46,16-25.19,26.93a69.55,69.55,0,0,1-6.64,3.08l-.45.2-.18.47-.58,1.64c-.45,1.27-.94,2.58-1.47,3.91a102.51,102.51,0,0,1-5.89,12.83c-.78,1.36-1.58,2.71-2.43,4a43.39,43.39,0,0,1-5.84,7.25,28.36,28.36,0,0,1-3.77,3.15,20.12,20.12,0,0,1-2.72,1.65,2.39,2.39,0,0,1-.22.12l-4.1,2-.07,0h106.75Zm-96.18-.3c.72-.51,1.42-1.07,2.1-1.65a34.65,34.65,0,0,0,3.6-3.57,52.57,52.57,0,0,0,4.86-6.54c.77-1.24,1.52-2.51,2.23-3.8a107.19,107.19,0,0,0,5.63-12.3q.8-2,1.47-3.93c.19-.49.36-1,.53-1.45a76.38,76.38,0,0,0,7.46-3.54c18.9-10.33,24.17-24.44,25.06-27.28,2.7-1.56,4.79-5.93,6.64-9.82.54-1.1,1-2.17,1.51-3a65.1,65.1,0,0,0,10.19,13.07c-2.83,10,4.12,20.66,10.65,30.17l.71,1c1.42,2.08,2.79,4.07,4,6,.46.73.92,1.44,1.34,2.15-.19.77-.35,1.54-.48,2.28a27.71,27.71,0,0,0,1.86,16.12,29.54,29.54,0,0,0,2.24,4.18,1.67,1.67,0,0,1,.16.24c.42.63.83,1.19,1.2,1.65Z"/><path class="cls-2" d="M1784,486.69a35.33,35.33,0,0,1-4,1.93l-.46.18-.16.47c-.39,1.1-.84,2.25-1.38,3.44s-1.25,2.65-2,4h0a23.69,23.69,0,0,1,1.43,1.94c.79-1.4,1.51-2.79,2.13-4.15s1.23-2.77,1.71-4.08a34.2,34.2,0,0,0,4.19-2.11C1785,487.76,1784.52,487.22,1784,486.69Zm52.27,32.38s-.12-.17-.31-.47a1.64,1.64,0,0,0-.17-.26c-.2-.35-.49-.82-.82-1.39a43.49,43.49,0,0,1-4.87-12.79,27,27,0,0,1-.48-6.18,19.79,19.79,0,0,1,.65-4.23l.11-.44-.22-.4a51.84,51.84,0,0,0-2.94-4.35c-1-1.3-2-2.56-3-3.82-4.87-6.11-9.47-11.9-7.26-18.63l.1-.28-.07-.29c0-.11-.66-3-5-10.67l-.79-1.35-1,1.19a19.49,19.49,0,0,0-1.66,2.91c-3.21,6.15-11.3,21.58-24.52,29.07a35.33,35.33,0,0,1-4,1.93l-.46.18-.16.47c-.39,1.1-.84,2.25-1.38,3.44s-1.25,2.65-2,4h0a68.3,68.3,0,0,1-14.1,18.15,33.14,33.14,0,0,1-2.62,2.06c-.45.32-.89.61-1.33.87a14.83,14.83,0,0,1-1.37.78,2.39,2.39,0,0,1-.22.12l-4.17,2.08h85.22Zm-75.46-.47c.7-.51,1.41-1.06,2.12-1.65.27-.21.53-.44.79-.68a69,69,0,0,0,13.76-17.59c.79-1.4,1.51-2.79,2.13-4.15s1.23-2.77,1.71-4.08a34.2,34.2,0,0,0,4.19-2.11c13.54-7.89,21.69-23.47,25-29.71.19-.34.37-.68.54-1a45.93,45.93,0,0,1,3.78,8.12c-2.33,7.71,2.78,14.14,7.73,20.36,1,1.29,2.07,2.6,3.06,3.93.87,1.18,1.72,2.39,2.46,3.61a24.09,24.09,0,0,0-.6,6.94,32.43,32.43,0,0,0,1,6.17,45.93,45.93,0,0,0,4,10.19c.35.63.67,1.19.94,1.65ZM1784,486.69a35.33,35.33,0,0,1-4,1.93l-.46.18-.16.47c-.39,1.1-.84,2.25-1.38,3.44s-1.25,2.65-2,4h0a23.69,23.69,0,0,1,1.43,1.94c.79-1.4,1.51-2.79,2.13-4.15s1.23-2.77,1.71-4.08a34.2,34.2,0,0,0,4.19-2.11C1785,487.76,1784.52,487.22,1784,486.69Z"/><path class="cls-2" d="M1532.78,527.12l-1-1.94c16.14-8.56,36.26-34.51,48.94-63.11l.22-.5.53-.12c37.62-8.83,71.79-37.87,101.56-86.31l.27-.45.53-.06c15.35-1.88,22.21-10.37,22.27-10.46l1.2-1.52.69,1.81c7.12,18.73,18.54,27,33,23.79,25.23-5.52,55.46-47.05,53-83.59l0-.86.81-.26c20.17-6.47,30.63-27.86,30.73-28.08l1.15-2.38.88,2.49c8.72,24.71,32.74,31.88,33,31.95l.78.23,0,.81c.63,30.53,10.76,36.87,23.58,44.89,2.22,1.39,4.5,2.82,6.82,4.43l.88.61-.59.89c-11.35,17.34,9.86,56.23,10.07,56.62l-1.92,1.06c-.89-1.61-21.37-39.18-10.55-58-2-1.34-4-2.58-5.87-3.78-12.75-8-23.78-14.88-24.6-45.93-4.18-1.44-24.07-9.3-32.8-30.79-3.23,5.72-13.17,21-30.07,26.77.89,16.79-5,36.19-16.15,53.38-11,16.94-25.46,28.78-38.62,31.66-15,3.29-27.39-5.06-34.92-23.52-2.66,2.61-9.65,8.22-22,9.86-29.87,48.46-64.23,77.63-102.12,86.72C1569.6,492.26,1549.21,518.4,1532.78,527.12Z"/><path class="cls-2" d="M1543.12,527.12l-1-1.94c14.77-7.84,30.83-28.86,43-56.22l.23-.52.56-.11c41.91-8.32,75.05-47.13,99.24-80l.23-.32.39-.1c8.28-2,16.84-8.72,16.92-8.79l.89-.69.67.9c15.24,20.27,32.77,19,44.79,14.32,13.94-5.41,28.18-18.2,39-35.09,10.52-16.34,16-33.89,14.8-47l-.07-.73.66-.35c15.4-8,21.19-18.68,21.25-18.78l1-1.88.95,1.9a46.12,46.12,0,0,0,25.29,22.57l.73.22,0,.77c1.64,27.17,11.65,33.82,26.81,43.89l2.45,1.64-.33.82c-6.24,15.74,10,60.18,10.17,60.63l-2.06.76c-.67-1.83-16.17-44.24-10.45-61.36l-1-.66c-15-10-25.89-17.2-27.73-44.84a47.82,47.82,0,0,1-25-21.73c-2.27,3.4-8.43,11.22-20.49,17.66,2.28,29.45-25.9,72.16-55.31,83.57-12.55,4.86-30.75,6.28-46.66-14.18-2.43,1.78-9.39,6.58-16.49,8.43-24.3,33-57.54,71.75-99.78,80.42C1574.53,497.91,1558.21,519.11,1543.12,527.12Z"/><path class="cls-2" d="M1498.61,480.32l-1.92-5.14c15.74-5.88,26.41-24.53,37.57-50.71l.61-1.42,1.53-.22c26.82-3.88,40.65-10.21,56.84-39.41l.73-1.3,1.48-.11c29.89-2.09,39.06-30.75,44.54-47.87l.39-1.22,1.2-.49c39.14-15.79,57.61-37.7,71.11-53.7,3.15-3.73,6.12-7.26,9-10.34l3.61-3.81,1.07,5.14c5.2,25.06,18.3,39.35,37.76,54.28l1.3,1-.26,1.62c-2.39,14.91,2.42,36,2.47,36.17l-5.35,1.24c-.2-.88-4.78-20.9-2.77-36.65-17.93-13.95-31.22-28.38-37.31-51.39-1.74,2-3.52,4.09-5.37,6.28-13.72,16.28-32.47,38.51-72.05,54.77-5.53,17.22-15.86,47.21-47.5,50.32-16.63,29.42-31.8,36.63-58.62,40.67C1526.89,455.52,1516,473.84,1498.61,480.32Z"/><path class="cls-2" d="M1506.74,486.75l-.74-2.07c16.08-5.76,28.38-29.51,37.3-49.55l.25-.56.6-.08c25.88-3.59,43.93-16.43,58.52-41.64l.31-.53h.61c21.94-.6,39.7-32.71,44.86-48.16l.16-.49.48-.19c35.88-13.87,50.53-32.75,61.23-46.53,2.53-3.26,4.92-6.34,7.33-9l1.45-1.61.44,2.12c3.3,15.72,12.48,24.56,21.36,33.1,5,4.82,9.73,9.37,13.34,15l.18.28v.33c-.16,13,3.69,31.28,3.73,31.46L1756,369c0-.19-3.87-18.42-3.78-31.61-3.46-5.29-8-9.68-12.84-14.32-8.72-8.4-17.72-17.06-21.5-32.12-1.9,2.23-3.82,4.71-5.83,7.3-10.8,13.92-25.58,33-61.69,47-5.47,16-23.51,48-46.1,49.14-14.79,25.31-33.09,38.32-59.2,42.1C1536,456.9,1523.45,480.76,1506.74,486.75Z"/><path class="cls-2" d="M1515.05,492.41l-.74-2.07c15.57-5.58,29.09-31.55,35.75-46.54l.25-.55.61-.09c21.81-3,42.38-18.66,56.42-42.92l.24-.43.49-.1c23.6-4.71,42.53-34,47.42-48.64l.16-.49.48-.19c32.34-12.91,43.58-27,52.62-38.28,2-2.51,3.9-4.89,5.93-7.15l1.35-1.51.53,2c3.32,12.43,9,17.68,15,23.25,3.76,3.47,7.64,7.06,11.14,12.5l.1.18c5.43,13.39,6.13,33,6.16,33.78l-2.19.07c0-.2-.72-19.91-6-32.93-3.33-5.16-7.09-8.63-10.73-12-5.94-5.49-11.57-10.69-15.11-22.33-1.51,1.76-3,3.61-4.53,5.54-9.15,11.45-20.52,25.69-53,38.77-5.25,15.11-24.42,44.39-48.42,49.51-14.25,24.39-35,40.19-57.17,43.49C1544.93,460.63,1531.2,486.62,1515.05,492.41Z"/><path class="cls-2" d="M1875.16,330.5l-3.67-4.09c.36-.31,35.61-31.34,71.33-8.51l-3,4.62c-13.44-8.58-28.34-9.9-44.29-3.92A71.56,71.56,0,0,0,1875.16,330.5Z"/><path class="cls-2" d="M1883.92,339.75l-3.39-4.32c36.7-28.83,61.17-2.41,61.41-2.14l-4.08,3.68C1937,336,1916.48,314.17,1883.92,339.75Z"/><path class="cls-2" d="M1941.34,407a76.26,76.26,0,0,0-11.36.73A74,74,0,0,0,1919,410a67.6,67.6,0,0,0-19.86,9.19,74.58,74.58,0,0,0-16.1,15A141.23,141.23,0,0,0,1870.44,453a67.37,67.37,0,0,1,9.16-21.38,59.43,59.43,0,0,1,16.5-16.95,56,56,0,0,1,33.76-9.6A43.55,43.55,0,0,1,1941.34,407Z"/><path class="cls-2" d="M1522.57,528.57l-2.57-4.84c16.3-8.65,38.93-38.5,52.64-69.43l.51-1.16,1.23-.36c37-10.8,70.82-39.36,103.44-87.29l.7-1,1.23-.15c15.63-1.91,31.85-21.36,32-21.56l4.13-5,.71,6.46c2.34,21.28,10.6,32.81,22.69,31.68,19.08-1.81,45-34.61,41.65-76.21l-.18-2.32,2.26-.56c22.52-5.6,41.46-39.1,41.65-39.44l3.37-6.05,1.68,6.72c6.57,26.3,41,36.66,41.36,36.76l2.17.63-.21,2.25c-3,32.21,7.49,38.77,20.7,47.09,3.19,2,6.5,4.09,9.84,6.63l2,1.55-1.4,2.13c-11.46,17.51,10,53.16,10.2,53.52l-4.68,2.86c-.93-1.53-21.87-36.34-11.41-57.12-2.52-1.79-5-3.38-7.51-4.93-13.92-8.75-26-16.34-23.42-50-7.52-2.6-32.21-12.58-41.07-34.16-6.31,9.78-21.41,30.44-39.75,36.29a93.62,93.62,0,0,1-13.35,53.87c-9.3,15.18-21.79,24.89-33.41,26-6.91.64-22.78-1.23-27.84-30.68-6,6.17-17.87,16.79-30.29,18.9-32.81,47.92-67,76.76-104.54,88.12C1562.93,489.19,1539.62,519.53,1522.57,528.57Z"/><path class="cls-2" d="M1494.94,480.62l-1.92-5.14c15-5.59,29.6-23.71,41.24-51l.61-1.42,1.53-.22c26.82-3.88,40.65-10.21,56.84-39.41l.73-1.3,1.48-.11c29.89-2.09,39.06-30.75,44.54-47.87l.39-1.22,1.2-.49c39.14-15.79,57.61-37.7,71.11-53.7,3.15-3.73,6.12-7.26,9-10.34l3.61-3.81,1.07,5.14c5.2,25.06,18.3,39.35,37.76,54.28l1.3,1-.26,1.62c-2.39,14.89,2.42,36,2.47,36.17l-5.35,1.24c-.2-.88-4.78-20.9-2.77-36.65-17.93-13.95-31.22-28.38-37.31-51.39-1.74,2-3.52,4.09-5.37,6.28-13.72,16.28-32.47,38.51-72.05,54.77-5.53,17.22-15.86,47.21-47.5,50.32-16.63,29.42-31.8,36.63-58.63,40.67C1530,448.11,1515.44,473,1494.94,480.62Z"/><path class="cls-2" d="M1737,277.68l-4.92-2.43c10.2-20.69,30.64-44.63,57.41-49.79,19.73-3.8,39.82,2.89,59.75,19.91,12.39-19.94,29.93-29.41,47.45-25.43,34.66,7.89,45.79,42.76,45.88,43.1l-5.3,1.4c-.09-.31-10.26-32-41.8-39.14-15.84-3.61-32,6-43.17,25.66l-1.68,3-2.54-2.28c-19.41-17.42-38.77-24.42-57.55-20.8C1765.72,235.63,1746.6,258.17,1737,277.68Z"/><path class="cls-2" d="M1938.81,284c-1-9.93-24.43-52.22-47.16-52.22h-.05c-18.08,0-26.88,9.4-39.74,30.33l-.72,1.17-1-1c-20-19.66-39.28-28.17-57.43-25.3-26.16,4.13-43.52,30.62-51.53,46l-2-1c8.21-15.79,26-42.91,53.13-47.2,18.59-2.94,38.21,5.46,58.34,24.95,12.68-20.42,22.22-30.15,40.89-30.2h.05c13.79,0,26.74,14.37,33.24,22.94,9.27,12.24,15.58,25.76,16.1,31.27Z"/><path class="cls-2" d="M1683.13,310.58c-.18-.84-1.59-7.67-2.81-17.3-3.54-18.1-10-41.57-19-48.44s-23.5-13.57-40.52-6.38c-1.15.58-21.72,11.25-20.74,29.86l-5.48.29c-1.2-22.72,22.86-34.62,23.88-35.11l.12-.06c20.49-8.71,37.65.67,46,7,5.79,4.37,10.38,13.56,13.93,23.86.22-16,2.93-32.19,11.44-41.1,10.94-11.45,24.36-15,32.28-16.09a37.84,37.84,0,0,1,20.73-19c8.31-3.07,17.23-2.82,24.47.68,11.9,5.77,18.89,19.62,17.4,34.47l-.21,2-2,.4a65.28,65.28,0,0,0-48.87,42.86l-5.19-1.78a70.75,70.75,0,0,1,50.93-46c.46-11.65-5.3-22.56-14.47-27-5.9-2.85-13.26-3-20.18-.47a32.45,32.45,0,0,0-18.27,17.47l-.64,1.46-1.58.17c-6.87.74-20,3.64-30.45,14.61-7.52,7.87-10.87,24.52-9.69,48.14.31,6.36.92,12.43,1.59,17.65,1.76,9.21,2.61,16.09,2.71,16.88Z"/><path class="cls-2" d="M1689,276.74l-.07-.25c-1.89-6.65-6.81-29.64,8.89-46.07,4.84-5.06,14.24-11.48,31.67-13.48,7.59-16.94,19.19-24,31.9-19.35,9.53,3.47,13.49,9.57,13.25,20.39l0,.88-.86.17c-5.19,1.05-20.09,6.43-30.59,15.6-9.65,8.42-14.14,22.17-16,28-.21.62-.39,1.17-.54,1.63l-2.08-.71.53-1.6c2-6,6.6-20.19,16.69-29,10.3-9,24.72-14.46,30.73-15.9,0-9.42-3.34-14.34-11.81-17.43-15.91-5.81-25.25,9.25-29.4,18.75l-.26.58-.63.07c-17.19,1.87-26.31,8-30.94,12.88-14.9,15.6-10.17,37.59-8.37,44l.08.3Z"/><path class="cls-2" d="M1678.89,314.78c-1-3.85-1.88-7.9-2.78-11.81-5.53-24.05-11.24-48.91-26.25-55.7-9.7-4.38-20.48-2.51-28.83,5-7.52,6.77-13,20.3-15.38,38.09a3.6,3.6,0,0,1-.21,1.13l-2-.9,1,.45-1.06-.26c0-.1,0-.35.1-.72,2.46-18.3,8.17-32.3,16.08-39.42,9-8.12,20.68-10.12,31.2-5.37,16,7.23,21.84,32.64,27.49,57.21.9,3.9,1.83,7.94,2.77,11.77Z"/><path class="cls-2" d="M1562.19,530.46l-4.71-2.83c21.9-36.52,38.5-60.65,68.5-63.09a124.28,124.28,0,0,1,22.8.65,35.36,35.36,0,0,1,20-31.07,35.8,35.8,0,0,1,34.07,2,31.43,31.43,0,0,1,25.69-18.49c20.14-2.13,32.89,13.22,34.28,15l-4.31,3.39c-1.2-1.51-12.16-14.75-29.39-12.91a25.82,25.82,0,0,0-22.29,18.09l-1.15,3.82-3.16-2.43a30.27,30.27,0,0,0-31.36-3.46,30,30,0,0,0-16.81,29.08l.21,3.39-3.37-.51c-.13,0-13.14-2-24.73-1C1599,472.25,1583.84,494.34,1562.19,530.46Z"/><path class="cls-2" d="M1560.88,533.46l-1.66-1.43c4.14-4.82,8.23-9.93,12.19-14.88,16.81-21,32.69-40.84,54-42.58,9.72-.79,28.65,1.32,33.82,1.94-.48-12.35,2.9-26.91,13.9-32.2,10.55-5.07,25.33-.67,34.35,6.7,3.26-10.88,10.82-22,21-23.69,16.78-2.71,26.74,8.14,29.39,11.54l-1.68,1.42,0-.07c-2.47-3.15-11.7-13.25-27.31-10.73-9.77,1.58-16.95,13.08-19.73,23.77l-.46,1.75-1.34-1.22c-10.57-9.62-25.22-11.36-33.26-7.49-10.41,5-13.33,19.5-12.59,31.4l.08,1.32-1.31-.17c-.24,0-23.82-3-34.67-2.08-20.35,1.66-35.94,21.14-52.44,41.76C1569.16,523.48,1565.05,528.62,1560.88,533.46Z"/><path class="cls-2" d="M1550.63,516.07c0-.3,0-.7-.06-1.18-.2-4.47-.8-18.08-13.41-31.62-16.48-17.7-33.21-7.78-39.51-4-1.68,1-2.45,1.45-3.39,1.55l-4,.42,1.13-3.91c3.46-12,2.32-21.35-14.06-30.76-17.85-10.27-28.55,1.17-32.57,5.48-1.17,1.25-1.76,1.88-2.7,2.18l-1.66-5.24a2,2,0,0,0-.64.33c.16-.13.62-.62,1-1,4.37-4.68,17.68-18.93,39.32-6.49,17.16,9.87,19.7,20.54,18,30.92,8.61-4.64,26.14-11.42,43.15,6.84,14,15,14.65,30.14,14.87,35.11,0,.41,0,.74.06,1Z"/><path class="cls-2" d="M1541.74,515.94a12,12,0,0,1,.12-2c.43-4,1.33-12.35-8.65-21.76-17.55-16.55-39.48-5.26-46.69-1.56a8.24,8.24,0,0,1-2.4,1.05l-1.62.17.46-1.57c1.36-4.64,7.37-28.23-8.34-37.49-14.46-8.52-23.81,3.37-27.32,7.85-1,1.24-1.34,1.71-1.87,1.87l-.66-2.09a.88.88,0,0,0-.23.11,14.84,14.84,0,0,0,1-1.24c3.47-4.43,14-17.89,30.16-8.39,6.74,4,10.6,10.72,11.48,20.06a54.9,54.9,0,0,1-1.52,17.63c20.17-10.32,36.67-9.65,49,2,10.77,10.15,9.79,19.22,9.32,23.58a11.3,11.3,0,0,0-.11,1.61Z"/><path class="cls-2" d="M1440.14,512.88a43.1,43.1,0,0,0-58.48-29.42l-4.61,1.92.85-4.92A24.05,24.05,0,0,0,1339,457.77l-3.75,3.07-.7-4.8a48.36,48.36,0,0,0-23.6-34.45c-5.87-3.32-26.65-13-47.73.75l-3-4.59c16-10.46,35.95-10.81,53.43-.94A54.09,54.09,0,0,1,1339.13,451a29.5,29.5,0,0,1,44.58,25.89,48.57,48.57,0,0,1,61.76,34.68Z"/><path class="cls-2" d="M1432.38,514.59a38.93,38.93,0,0,0-62.39-9.81l-4.57,4.61,2.8-5.85a27.13,27.13,0,0,0,1.67-20c-2.21-6.65-7.7-11.95-14-13.48-6.71-1.65-14.07,1.17-17.5,6.68l-.43.69-7-1.91,0-.8A61.93,61.93,0,0,0,1321.8,445c-8.27-13.47-20.48-20-36.28-19.61a60.72,60.72,0,0,0-21.58,4.82l-.94-2c.4-.19,39.89-18.21,60.68,15.64a64,64,0,0,1,9.36,29.93l3.94,1.07c4.09-5.84,12.12-8.75,19.43-7,7,1.72,13.12,7.57,15.57,14.93a28.49,28.49,0,0,1-.08,17.26,41.12,41.12,0,0,1,62.44,13.48Z"/><path class="cls-2" d="M1334.79,513.67l-5.43-.77a14.65,14.65,0,0,0-7.47-14.53,14.16,14.16,0,0,0-16,2.44l-3,3-1.47-4c-2.54-6.94-5.4-11.94-9-15.73-3.43-3.62-9.13-7.49-14.82-7.51-3.89,0-7.59,1.76-11,5.28l-4-3.8c4.44-4.62,9.44-7,14.87-7h.06c9.35,0,16.75,7.07,18.79,9.23a45.54,45.54,0,0,1,8.81,14.14,19.86,19.86,0,0,1,19.2-.94A20.1,20.1,0,0,1,1334.79,513.67Z"/><path class="cls-2" d="M1310,515.08l-2.19-.16a3.61,3.61,0,0,0-1-2.77,9.26,9.26,0,0,0-6.35-2.54c-1.16,0-2.37.06-3.55.14-2.9.2-5.91.41-8.7-.84-2.39-1.07-4.13-3-5.82-4.89s-3.47-3.85-5.75-4.55c-2.12-.66-4.42-.18-6.85.33s-4.9,1-7.4.44l.49-2.13c2,.46,4.19,0,6.46-.46,2.6-.54,5.28-1.1,8-.28,2.86.88,4.83,3.07,6.73,5.18,1.61,1.79,3.12,3.47,5.09,4.36,2.29,1,4.89.84,7.65.65,1.23-.08,2.49-.17,3.74-.15a11.42,11.42,0,0,1,7.93,3.26A5.81,5.81,0,0,1,1310,515.08Z"/><path class="cls-2" d="M1489.23,408.55l-2-3.44c-4.84-8.56-13.2-19.42-25.52-22.5-9.1-2.28-19.18,0-30,6.89l-2.94-4.64c12.13-7.68,23.66-10.23,34.26-7.58,12.76,3.2,21.63,13.26,27.2,22.15a17.93,17.93,0,0,1,12.27-3c-.08-6.69,2.85-20.42,24.7-33.71,14.37-8,27.46-9.72,39-5.11,20.26,8.08,28.1,32.52,28.42,33.56l-5.24,1.63,2.62-.82-2.62.83c-.07-.23-7.42-23-25.24-30.11-9.93-3.95-21.43-2.35-34.18,4.76-25.8,15.69-21.87,30.89-21.69,31.53l1.37,4.85-4.81-1.46c-.34-.09-8.43-2.45-13.13,3.15Z"/><path class="cls-2" d="M1484,425.68l-1.39-3.17c-.1-.23-10.39-23.42-27.34-28.33-7.26-2.1-14.86-.51-22.61,4.74l-3.08-4.55c9.17-6.21,18.33-8.05,27.24-5.46,15.69,4.56,25.85,21.56,29.41,28.48,4.91-3,15.72-8.47,27.2-6.89a44.06,44.06,0,0,1,7.43-27.52,33.55,33.55,0,0,1,23.85-14.49c11.65-1.52,23.12,3,33.16,13.16a69.31,69.31,0,0,1,11.61,15.64l-4.9,2.49h0c-.21-.41-15.14-29-39.16-25.85a27.84,27.84,0,0,0-20.05,12.18c-6.06,8.73-7.59,20.32-6,27.26l1.07,4.56-4.5-1.3c-14.08-4.08-29,6.87-29.19,7Z"/><path class="cls-2" d="M1480.32,438.15l-.55-2.1c-.07-.24-6.53-24-22.8-30.38-8.18-3.2-17.54-1.49-27.84,5.06l-1.18-1.85c10.93-6.95,21-8.72,29.82-5.25,14.63,5.72,21.57,23.8,23.53,29.88,15.61-17.66,37.53-12.91,44.48-10.81a56.1,56.1,0,0,1-2.4-11.58c-1-10.25,1.44-18.79,7-24.69,7.8-6.82,15.53-9.33,23-7.51,16.66,4,26.24,27.57,26.64,28.57l-2,.82c-.09-.24-9.56-23.52-25.11-27.26-6.8-1.64-13.87.71-21,7-12.35,13.12-3.42,35.81-3.32,36l1,2.4-2.39-1c-.28-.11-27.84-11-45.47,11Z"/><path class="cls-2" d="M1017.44,439.11C1007,418,990.58,404.73,971.22,401.89c-21.23-3.11-44,6.46-62.47,26.27l-1.48,1.59-1.92-1c-35.92-19.28-65.47,7.79-66.71,8.95l-3.86-4.1c.33-.31,32.61-30.05,71.32-10.81C925.59,402.63,949.52,393,972,396.31c21.24,3.12,39.16,17.43,50.46,40.3Z"/><path class="cls-2" d="M841.33,452.49l-2-2c.36-.37,36.26-35.95,69.94-5.91,12.07-20,33.4-32.38,54.8-31.9,20.09.5,37,12.39,47.7,33.48l-2.52,1.27C999.07,427.33,983,416,964,415.52c-20.58-.52-42,12.35-53.17,32l-.89,1.55-1.3-1.23c-13.44-12.69-28.82-15.79-45.7-9.21A69.31,69.31,0,0,0,841.33,452.49Z"/></g></svg>